<svg width="89" height="52" viewBox="0 0 89 52" fill="none" xmlns="http://www.w3.org/2000/svg">
<g filter="url(#filter0_d_0_1)">
<path d="M26.2852 30.4541C28.6519 30.4541 30.5704 28.5616 30.5704 26.2271C30.5704 23.8925 28.6519 22 26.2852 22C23.9186 22 22 23.8925 22 26.2271C22 28.5616 23.9186 30.4541 26.2852 30.4541Z" fill="white"/>
</g>
<g filter="url(#filter1_d_0_1)">
<path d="M44.8555 30.4541C47.2222 30.4541 49.1407 28.5616 49.1407 26.2271C49.1407 23.8925 47.2222 22 44.8555 22C42.4889 22 40.5703 23.8925 40.5703 26.2271C40.5703 28.5616 42.4889 30.4541 44.8555 30.4541Z" fill="white"/>
</g>
<g filter="url(#filter2_d_0_1)">
<path d="M63.2852 30.4541C65.6519 30.4541 67.5704 28.5616 67.5704 26.2271C67.5704 23.8925 65.6519 22 63.2852 22C60.9186 22 59 23.8925 59 26.2271C59 28.5616 60.9186 30.4541 63.2852 30.4541Z" fill="white"/>
</g>
<defs>
<filter id="filter0_d_0_1" x="0.573906" y="0.573906" width="51.4225" height="51.3063" filterUnits="userSpaceOnUse" color-interpolation-filters="sRGB">
<feFlood flood-opacity="0" result="BackgroundImageFix"/>
<feColorMatrix in="SourceAlpha" type="matrix" values="0 0 0 0 0 0 0 0 0 0 0 0 0 0 0 0 0 0 127 0" result="hardAlpha"/>
<feOffset/>
<feGaussianBlur stdDeviation="10.713"/>
<feComposite in2="hardAlpha" operator="out"/>
<feColorMatrix type="matrix" values="0 0 0 0 1 0 0 0 0 1 0 0 0 0 1 0 0 0 1 0"/>
<feBlend mode="normal" in2="BackgroundImageFix" result="effect1_dropShadow_0_1"/>
<feBlend mode="normal" in="SourceGraphic" in2="effect1_dropShadow_0_1" result="shape"/>
</filter>
<filter id="filter1_d_0_1" x="19.1442" y="0.573906" width="51.4225" height="51.3063" filterUnits="userSpaceOnUse" color-interpolation-filters="sRGB">
<feFlood flood-opacity="0" result="BackgroundImageFix"/>
<feColorMatrix in="SourceAlpha" type="matrix" values="0 0 0 0 0 0 0 0 0 0 0 0 0 0 0 0 0 0 127 0" result="hardAlpha"/>
<feOffset/>
<feGaussianBlur stdDeviation="10.713"/>
<feComposite in2="hardAlpha" operator="out"/>
<feColorMatrix type="matrix" values="0 0 0 0 1 0 0 0 0 1 0 0 0 0 1 0 0 0 1 0"/>
<feBlend mode="normal" in2="BackgroundImageFix" result="effect1_dropShadow_0_1"/>
<feBlend mode="normal" in="SourceGraphic" in2="effect1_dropShadow_0_1" result="shape"/>
</filter>
<filter id="filter2_d_0_1" x="37.5739" y="0.573906" width="51.4225" height="51.3063" filterUnits="userSpaceOnUse" color-interpolation-filters="sRGB">
<feFlood flood-opacity="0" result="BackgroundImageFix"/>
<feColorMatrix in="SourceAlpha" type="matrix" values="0 0 0 0 0 0 0 0 0 0 0 0 0 0 0 0 0 0 127 0" result="hardAlpha"/>
<feOffset/>
<feGaussianBlur stdDeviation="10.713"/>
<feComposite in2="hardAlpha" operator="out"/>
<feColorMatrix type="matrix" values="0 0 0 0 1 0 0 0 0 1 0 0 0 0 1 0 0 0 1 0"/>
<feBlend mode="normal" in2="BackgroundImageFix" result="effect1_dropShadow_0_1"/>
<feBlend mode="normal" in="SourceGraphic" in2="effect1_dropShadow_0_1" result="shape"/>
</filter>
</defs>
</svg>
