<svg width="152" height="152" viewBox="0 0 152 152" fill="none" xmlns="http://www.w3.org/2000/svg">
<g clip-path="url(#clip0_156_3822)">
<path d="M85.8536 74.7642C90.5447 71.8234 93.6826 66.6198 93.6826 60.6829C93.6826 51.5845 86.3345 44.1812 77.2677 44.0709V39.5768C77.2677 38.7096 76.5581 38 75.6908 38C74.8236 38 74.114 38.7096 74.114 39.5768V44.0551H68.0825V39.5768C68.0825 38.7096 67.373 38 66.5057 38C65.6384 38 64.9288 38.7096 64.9288 39.5768V44.0551H61.7988C61.7988 44.0551 61.7436 44.0472 61.7121 44.0472C61.6805 44.0472 61.6569 44.0472 61.6254 44.0551H54.5768C53.7096 44.0551 53 44.7647 53 45.6319C53 46.4992 53.7096 47.2088 54.5768 47.2088H60.1352V104.251H54.5768C53.7096 104.251 53 104.961 53 105.828C53 106.695 53.7096 107.405 54.5768 107.405H61.6254C61.6254 107.405 61.6805 107.413 61.7121 107.413C61.7436 107.413 61.7673 107.413 61.7988 107.405H64.9288V111.883C64.9288 112.75 65.6384 113.46 66.5057 113.46C67.373 113.46 68.0825 112.75 68.0825 111.883V107.405H74.114V111.883C74.114 112.75 74.8236 113.46 75.6908 113.46C76.5581 113.46 77.2677 112.75 77.2677 111.883V107.405H81.4542C90.6236 107.405 98.0742 99.9464 98.0742 90.7849C98.0742 83.1451 92.8863 76.7037 85.8536 74.7721V74.7642ZM77.0548 47.2167C84.4817 47.2167 90.5211 53.256 90.5211 60.6829C90.5211 68.1099 84.4817 74.1492 77.0548 74.1492H63.2889V47.2167H77.0548ZM81.4542 104.251H63.2968V77.3108H81.4542C88.8811 77.3108 94.9205 83.3501 94.9205 90.7771C94.9205 98.204 88.8811 104.243 81.4542 104.243V104.251Z" fill="#FFFDFD"/>
<path d="M151.22 75.61C151.22 55.41 143.36 36.43 129.07 22.15C114.44 7.51 95.25 0.15 76.03 0.05C75.89 0.02 75.75 0 75.61 0C75.47 0 75.33 0.02 75.19 0.05C55.97 0.16 36.78 7.52 22.14 22.15C7.51 36.78 0.15 55.97 0.05 75.19C0.02 75.33 0 75.46 0 75.61C0 75.76 0.02 75.89 0.05 76.03C0.16 95.25 7.52 114.44 22.15 129.08C36.78 143.71 55.97 151.08 75.2 151.18C75.33 151.21 75.47 151.23 75.62 151.23C75.77 151.23 75.9 151.21 76.04 151.18C95.26 151.07 114.45 143.71 129.09 129.08C143.37 114.8 151.24 95.81 151.24 75.62L151.22 75.61ZM4.08 77.61H17.16C17.63 91.82 23.15 105.14 32.86 115.52L23.59 124.79C11.05 111.54 4.55 94.65 4.08 77.6V77.61ZM23.6 26.42L32.87 35.69C23.16 46.07 17.64 59.4 17.17 73.6H4.08C4.55 56.56 11.06 39.66 23.59 26.41L23.6 26.42ZM147.18 73.61H134.06C133.59 59.4 128.07 46.08 118.36 35.7L127.63 26.43C139.81 39.3 146.69 55.91 147.18 73.62V73.61ZM114.15 114.14C103.86 124.43 90.17 130.1 75.62 130.1C61.07 130.1 47.38 124.43 37.09 114.14C26.8 103.85 21.13 90.16 21.13 75.61C21.13 61.06 26.8 47.37 37.09 37.08C47.38 26.79 61.07 21.12 75.62 21.12C90.17 21.12 103.86 26.79 114.15 37.08C124.44 47.37 130.11 61.06 130.11 75.61C130.11 90.16 124.44 103.85 114.15 114.14V114.14ZM115.53 32.86C105.15 23.15 91.82 17.63 77.62 17.16V4.08C94.66 4.55 111.56 11.06 124.81 23.59L115.54 32.86H115.53ZM73.62 17.16C59.41 17.63 46.09 23.15 35.71 32.86L26.44 23.59C39.67 11.06 56.57 4.55 73.61 4.08V17.16H73.62ZM35.7 118.35C46.08 128.06 59.41 133.58 73.61 134.05V147.13C56.57 146.66 39.67 140.15 26.42 127.62L35.69 118.35H35.7ZM77.61 134.05C91.82 133.58 105.14 128.06 115.52 118.35L124.79 127.62C111.54 140.16 94.65 146.66 77.6 147.13V134.05H77.61ZM118.35 115.52C128.06 105.14 133.58 91.81 134.05 77.61H147.17C146.69 95.32 139.81 111.93 127.62 124.8L118.35 115.53V115.52Z" fill="#3456FF"/>
</g>
<defs>
<clipPath id="clip0_156_3822">
<rect width="151.22" height="151.22" fill="white"/>
</clipPath>
</defs>
</svg>
