<svg width="106" height="82" viewBox="0 0 106 82" fill="none" xmlns="http://www.w3.org/2000/svg">
<g filter="url(#filter0_d_156_4199)">
<path d="M77.1084 36.1449C76.1151 29.8714 73.4445 24.5058 69.3221 20.5358C64.9381 16.318 59.0835 13.9737 53 14.0002C47.5918 14.0002 42.6041 15.7811 38.5761 19.1494C35.4979 21.7457 33.1278 25.0796 31.6871 28.84C27.0772 29.5728 22.935 31.4573 19.8988 34.2284C16.0399 37.7476 14 42.5525 14 48.1252C14 53.6096 16.1907 58.6187 20.1684 62.2307C23.9998 65.7103 29.1673 67.6252 34.7188 67.6252H74.3281C79.2595 67.6252 83.5038 66.3196 86.6055 63.8517C90.1353 61.0409 92 56.8682 92 51.7815C92 42.359 84.6205 37.257 77.1084 36.1449ZM45.9343 56.7113L35.3891 45.0266L39.0088 41.7603L45.8063 49.2952L61.9989 30.0694L65.7268 33.2092L45.9343 56.7113Z" fill="#F8F8FA"/>
</g>
<defs>
<filter id="filter0_d_156_4199" x="0.18" y="0.18" width="105.64" height="81.2652" filterUnits="userSpaceOnUse" color-interpolation-filters="sRGB">
<feFlood flood-opacity="0" result="BackgroundImageFix"/>
<feColorMatrix in="SourceAlpha" type="matrix" values="0 0 0 0 0 0 0 0 0 0 0 0 0 0 0 0 0 0 127 0" result="hardAlpha"/>
<feOffset/>
<feGaussianBlur stdDeviation="6.91"/>
<feComposite in2="hardAlpha" operator="out"/>
<feColorMatrix type="matrix" values="0 0 0 0 0.972549 0 0 0 0 0.972549 0 0 0 0 0.980392 0 0 0 0.35 0"/>
<feBlend mode="normal" in2="BackgroundImageFix" result="effect1_dropShadow_156_4199"/>
<feBlend mode="normal" in="SourceGraphic" in2="effect1_dropShadow_156_4199" result="shape"/>
</filter>
</defs>
</svg>
