<svg width="97" height="101" viewBox="0 0 97 101" fill="none" xmlns="http://www.w3.org/2000/svg">
<g filter="url(#filter0_d_0_1)">
<path d="M48.4995 37.1167C45.8526 37.1167 43.265 37.9016 41.0642 39.3722C38.8633 40.8428 37.1479 42.933 36.135 45.3784C35.122 47.8239 34.857 50.5149 35.3734 53.111C35.8898 55.7071 37.1644 58.0918 39.0361 59.9634C40.9078 61.8351 43.2925 63.1098 45.8886 63.6262C48.4847 64.1426 51.1756 63.8775 53.6211 62.8646C56.0666 61.8516 58.1568 60.1363 59.6274 57.9354C61.0979 55.7345 61.8828 53.147 61.8828 50.5C61.8788 46.9518 60.4675 43.55 57.9585 41.041C55.4495 38.532 52.0478 37.1207 48.4995 37.1167V37.1167ZM48.4995 59.0167C46.8151 59.0167 45.1685 58.5172 43.7679 57.5814C42.3674 56.6455 41.2758 55.3154 40.6312 53.7592C39.9866 52.203 39.8179 50.4906 40.1465 48.8385C40.4751 47.1864 41.2863 45.6689 42.4773 44.4778C43.6684 43.2868 45.1859 42.4756 46.838 42.147C48.4901 41.8184 50.2025 41.987 51.7587 42.6317C53.3149 43.2763 54.645 44.3679 55.5809 45.7684C56.5167 47.169 57.0162 48.8156 57.0162 50.5C57.0137 52.758 56.1155 54.9228 54.5189 56.5194C52.9223 58.116 50.7575 59.0141 48.4995 59.0167V59.0167Z" fill="#F8F8FA"/>
<path d="M81.8894 60.586L77.0577 56.6085C77.9142 52.5812 77.9142 48.4187 77.0577 44.3914L81.8894 40.414C82.4466 39.9574 82.8231 39.3173 82.9515 38.6084C83.0798 37.8995 82.9516 37.1681 82.5899 36.5451L77.6301 27.955C77.2716 27.33 76.7022 26.8531 76.0239 26.6098C75.3457 26.3665 74.6029 26.3727 73.9289 26.6273L68.0644 28.8245C65.0094 26.0643 61.4053 23.9812 57.4885 22.7119L56.4595 16.5418C56.343 15.8307 55.9771 15.1843 55.4273 14.7186C54.8775 14.2528 54.1798 13.9981 53.4592 14H43.5401C42.8195 13.9981 42.1219 14.2528 41.5721 14.7185C41.0223 15.1843 40.6563 15.8306 40.5398 16.5416L39.5114 22.7119C35.5946 23.9812 31.9905 26.0642 28.9355 28.8245L23.0704 26.627C22.3964 26.3726 21.6538 26.3665 20.9757 26.6098C20.2975 26.8531 19.7282 27.3299 19.3697 27.9549L14.4101 36.5456C14.0484 37.1686 13.9203 37.9001 14.0487 38.6089C14.1772 39.3178 14.5538 39.9578 15.1112 40.4143L19.9424 44.3914C19.0859 48.4187 19.0859 52.5812 19.9424 56.6085L15.1107 60.586C14.5535 61.0425 14.1769 61.6826 14.0485 62.3915C13.9202 63.1004 14.0483 63.8318 14.4101 64.4548L19.3698 73.0449C19.7284 73.6699 20.2978 74.1468 20.976 74.3901C21.6543 74.6334 22.397 74.6272 23.0711 74.3726L28.9357 72.1755C31.9907 74.9357 35.5948 77.0188 39.5115 78.288L40.5399 84.4582C40.6564 85.1692 41.0224 85.8155 41.5721 86.2813C42.1219 86.7471 42.8195 87.0018 43.5401 86.9999H53.4592C54.1798 87.0019 54.8775 86.7472 55.4273 86.2814C55.9771 85.8157 56.343 85.1694 56.4595 84.4583L57.4881 78.288C61.4048 77.0187 65.0089 74.9357 68.0639 72.1755L73.9289 74.3729C74.6029 74.6273 75.3455 74.6334 76.0236 74.3901C76.7018 74.1468 77.2711 73.67 77.6297 73.0451L82.5889 64.4544C82.9508 63.8315 83.0791 63.1002 82.9509 62.3914C82.8227 61.6826 82.4464 61.0426 81.8894 60.586V60.586ZM74.1885 69.273L66.8719 66.5318L65.764 67.6472C62.7157 70.7196 58.9029 72.9232 54.7189 74.0306L53.1981 74.4315L51.9138 82.1333H45.0868L43.8029 74.4315L42.282 74.0306C38.0981 72.9232 34.2853 70.7196 31.237 67.6472L30.1291 66.5318L22.8113 69.273L19.3984 63.3604L25.4253 58.3989L25.0147 56.8821C23.8854 52.7023 23.8854 48.2976 25.0147 44.1178L25.4253 42.6012L19.3984 37.6397L22.8121 31.727L30.1286 34.4681L31.2365 33.3527C34.2848 30.2803 38.0976 28.0767 42.2816 26.9694L43.8024 26.5685L45.0862 18.8667H51.9138L53.1977 26.5685L54.7185 26.9694C58.9025 28.0767 62.7153 30.2803 65.7635 33.3527L66.8715 34.4681L74.188 31.727L77.6018 37.6395L71.5749 42.6012L71.9856 44.1178C73.1148 48.2976 73.1148 52.7023 71.9856 56.8821L71.5749 58.3989L77.6018 63.3603L74.1885 69.273Z" fill="#F8F8FA"/>
</g>
<circle cx="48.5" cy="50.5" r="9.5" fill="#F8F8FA"/>
<defs>
<filter id="filter0_d_0_1" x="0.18" y="0.18" width="96.64" height="100.64" filterUnits="userSpaceOnUse" color-interpolation-filters="sRGB">
<feFlood flood-opacity="0" result="BackgroundImageFix"/>
<feColorMatrix in="SourceAlpha" type="matrix" values="0 0 0 0 0 0 0 0 0 0 0 0 0 0 0 0 0 0 127 0" result="hardAlpha"/>
<feOffset/>
<feGaussianBlur stdDeviation="6.91"/>
<feComposite in2="hardAlpha" operator="out"/>
<feColorMatrix type="matrix" values="0 0 0 0 0.972549 0 0 0 0 0.972549 0 0 0 0 0.980392 0 0 0 0.35 0"/>
<feBlend mode="normal" in2="BackgroundImageFix" result="effect1_dropShadow_0_1"/>
<feBlend mode="normal" in="SourceGraphic" in2="effect1_dropShadow_0_1" result="shape"/>
</filter>
</defs>
</svg>
