<svg width="100" height="98" viewBox="0 0 100 98" fill="none" xmlns="http://www.w3.org/2000/svg">
<g filter="url(#filter0_d_156_4177)">
<path d="M83.8934 56.0237C83.8934 54.5007 83.4275 53.0846 82.6308 51.91C84.6559 50.6003 86 48.324 86 45.7381C86 41.687 82.7042 38.3911 78.653 38.3911H64.7181C67.157 33.4289 68.4323 27.6114 68.4323 21.3478C68.4323 17.2961 65.136 14 61.0843 14C57.0328 14 53.7365 17.2962 53.7365 21.3478C53.7365 30.9047 46.415 38.3908 37.0683 38.3908H14V83.9421H72.3336C76.3848 83.9421 79.6806 80.6463 79.6806 76.5951C79.6806 75.0722 79.2146 73.6561 78.4179 72.4814C80.4431 71.1718 81.787 68.8954 81.787 66.3094C81.787 64.7864 81.321 63.3702 80.5243 62.1957C82.5495 60.8859 83.8934 58.6096 83.8934 56.0237ZM26.0479 79.5339H18.4082V42.799H26.0479V79.5339ZM34.8643 79.5339H30.4561V42.799H34.8643V79.5339ZM78.653 48.6769H70.8643V53.085H76.5465C78.1669 53.085 79.4853 54.4034 79.4853 56.0238C79.4853 57.6442 78.1669 58.9626 76.5465 58.9626H70.8643V63.3708H74.4402C76.0606 63.3708 77.379 64.6891 77.379 66.3095C77.379 67.93 76.0606 69.2483 74.4402 69.2483H70.8643V73.6565H72.3336C73.9541 73.6565 75.2724 74.9749 75.2724 76.5953C75.2724 78.2157 73.9541 79.5341 72.3336 79.5341H39.2724V42.6861C44.1459 42.1865 48.6278 40.0326 52.0704 36.4948C55.9875 32.4693 58.1449 27.0901 58.1449 21.3479C58.1449 19.7271 59.4636 18.4083 61.0845 18.4083C62.7055 18.4083 64.0243 19.7271 64.0243 21.3479C64.0243 28.1848 62.347 34.3737 59.1737 39.2454L58.8163 39.7939V42.7994H78.653C80.2735 42.7994 81.5918 44.1178 81.5918 45.7382C81.5918 47.3585 80.2735 48.6769 78.653 48.6769Z" fill="#F8F8FA"/>
</g>
<path d="M29 81V42H37.5V81H29Z" fill="#F8F8FA"/>
<defs>
<filter id="filter0_d_156_4177" x="0.18" y="0.18" width="99.64" height="97.5821" filterUnits="userSpaceOnUse" color-interpolation-filters="sRGB">
<feFlood flood-opacity="0" result="BackgroundImageFix"/>
<feColorMatrix in="SourceAlpha" type="matrix" values="0 0 0 0 0 0 0 0 0 0 0 0 0 0 0 0 0 0 127 0" result="hardAlpha"/>
<feOffset/>
<feGaussianBlur stdDeviation="6.91"/>
<feComposite in2="hardAlpha" operator="out"/>
<feColorMatrix type="matrix" values="0 0 0 0 0.972549 0 0 0 0 0.972549 0 0 0 0 0.980392 0 0 0 0.35 0"/>
<feBlend mode="normal" in2="BackgroundImageFix" result="effect1_dropShadow_156_4177"/>
<feBlend mode="normal" in="SourceGraphic" in2="effect1_dropShadow_156_4177" result="shape"/>
</filter>
</defs>
</svg>
