<svg width="276" height="95" viewBox="0 0 276 95" fill="none" xmlns="http://www.w3.org/2000/svg">
<path d="M132.969 66.3653V86H129.031V73.229L123.77 86H120.789L115.5 73.229V86H111.562V66.3653H116.035L122.279 80.9647L128.524 66.3653H132.969ZM135.85 78.1517C135.85 76.5765 136.159 75.1793 136.778 73.9604C137.416 72.7414 138.269 71.8037 139.338 71.1474C140.426 70.491 141.635 70.1628 142.967 70.1628C144.129 70.1628 145.142 70.3972 146.005 70.8661C146.886 71.3349 147.589 71.9256 148.114 72.6382V70.416H152.081V86H148.114V83.7215C147.608 84.4528 146.905 85.0623 146.005 85.5499C145.123 86.0188 144.101 86.2532 142.938 86.2532C141.626 86.2532 140.426 85.9156 139.338 85.2405C138.269 84.5654 137.416 83.6183 136.778 82.3994C136.159 81.1616 135.85 79.7458 135.85 78.1517ZM148.114 78.208C148.114 77.2516 147.927 76.4358 147.552 75.7607C147.177 75.0668 146.67 74.5417 146.033 74.1854C145.395 73.8103 144.711 73.6228 143.979 73.6228C143.248 73.6228 142.573 73.801 141.954 74.1573C141.335 74.5136 140.829 75.0387 140.435 75.7326C140.06 76.4077 139.872 77.2141 139.872 78.1517C139.872 79.0894 140.06 79.9145 140.435 80.6272C140.829 81.321 141.335 81.8555 141.954 82.2306C142.592 82.6056 143.267 82.7932 143.979 82.7932C144.711 82.7932 145.395 82.615 146.033 82.2587C146.67 81.8836 147.177 81.3585 147.552 80.6834C147.927 79.9896 148.114 79.1644 148.114 78.208ZM161.891 86.2532C160.615 86.2532 159.471 86.0281 158.459 85.578C157.446 85.1092 156.64 84.481 156.04 83.6933C155.458 82.9057 155.139 82.0337 155.083 81.0772H159.049C159.124 81.6774 159.415 82.1743 159.922 82.5681C160.447 82.962 161.094 83.1589 161.862 83.1589C162.613 83.1589 163.194 83.0088 163.607 82.7088C164.038 82.4087 164.254 82.0243 164.254 81.5555C164.254 81.0491 163.991 80.6741 163.466 80.4303C162.96 80.1677 162.144 79.8864 161.019 79.5864C159.856 79.3051 158.899 79.0144 158.149 78.7143C157.418 78.4143 156.78 77.9548 156.236 77.336C155.711 76.7171 155.449 75.8826 155.449 74.8324C155.449 73.9697 155.693 73.1821 156.18 72.4695C156.687 71.7568 157.399 71.1942 158.318 70.7817C159.256 70.3691 160.353 70.1628 161.609 70.1628C163.466 70.1628 164.947 70.6316 166.054 71.5693C167.16 72.4882 167.77 73.7353 167.882 75.3106H164.113C164.057 74.6917 163.794 74.2042 163.325 73.8478C162.875 73.4728 162.266 73.2852 161.497 73.2852C160.784 73.2852 160.231 73.4165 159.837 73.6791C159.462 73.9416 159.275 74.3073 159.275 74.7761C159.275 75.3012 159.537 75.7044 160.062 75.9857C160.587 76.2483 161.403 76.5202 162.509 76.8015C163.635 77.0828 164.563 77.3735 165.294 77.6735C166.026 77.9736 166.654 78.4424 167.179 79.08C167.723 79.6989 168.004 80.524 168.023 81.5555C168.023 82.4556 167.77 83.262 167.263 83.9746C166.776 84.6873 166.063 85.2499 165.126 85.6624C164.207 86.0563 163.128 86.2532 161.891 86.2532ZM175.841 73.6509V81.1898C175.841 81.7149 175.963 82.0993 176.207 82.3431C176.469 82.5681 176.9 82.6807 177.501 82.6807H179.329V86H176.854C173.534 86 171.875 84.3872 171.875 81.1616V73.6509H170.018V70.416H171.875V66.5622H175.841V70.416H179.329V73.6509H175.841ZM196.649 77.8704C196.649 78.433 196.611 78.9394 196.536 79.3894H185.143C185.237 80.5146 185.631 81.3961 186.325 82.0337C187.019 82.6713 187.872 82.9901 188.885 82.9901C190.347 82.9901 191.388 82.3619 192.007 81.1054H196.255C195.805 82.6056 194.942 83.8434 193.667 84.8185C192.392 85.775 190.826 86.2532 188.969 86.2532C187.469 86.2532 186.119 85.925 184.918 85.2686C183.737 84.5935 182.809 83.6465 182.133 82.4275C181.477 81.2085 181.149 79.802 181.149 78.208C181.149 76.5952 181.477 75.1793 182.133 73.9604C182.79 72.7414 183.709 71.8037 184.89 71.1474C186.072 70.491 187.431 70.1628 188.969 70.1628C190.451 70.1628 191.773 70.4816 192.935 71.1192C194.117 71.7568 195.026 72.6664 195.664 73.8478C196.32 75.0105 196.649 76.3514 196.649 77.8704ZM192.57 76.7452C192.551 75.7325 192.185 74.9262 191.473 74.326C190.76 73.7072 189.888 73.3978 188.857 73.3978C187.881 73.3978 187.056 73.6978 186.381 74.2979C185.725 74.8793 185.322 75.695 185.171 76.7452H192.57ZM203.461 72.8352C203.968 72.01 204.624 71.363 205.43 70.8942C206.256 70.4254 207.193 70.1909 208.243 70.1909V74.326H207.203C205.965 74.326 205.027 74.6167 204.39 75.1981C203.771 75.7794 203.461 76.7921 203.461 78.2361V86H199.523V70.416H203.461V72.8352ZM209.883 78.208C209.883 76.5952 210.211 75.1887 210.868 73.9885C211.524 72.7695 212.434 71.8319 213.596 71.1755C214.759 70.5004 216.091 70.1628 217.591 70.1628C219.522 70.1628 221.116 70.6504 222.373 71.6256C223.648 72.582 224.501 73.9322 224.933 75.6763H220.685C220.46 75.0012 220.076 74.4761 219.532 74.101C219.007 73.7072 218.35 73.5103 217.563 73.5103C216.438 73.5103 215.547 73.9229 214.89 74.748C214.234 75.5544 213.906 76.7077 213.906 78.208C213.906 79.6895 214.234 80.8428 214.89 81.668C215.547 82.4744 216.438 82.8776 217.563 82.8776C219.157 82.8776 220.198 82.1649 220.685 80.7397H224.933C224.501 82.4275 223.648 83.7684 222.373 84.7623C221.098 85.7562 219.504 86.2532 217.591 86.2532C216.091 86.2532 214.759 85.925 213.596 85.2686C212.434 84.5935 211.524 83.6558 210.868 82.4556C210.211 81.2367 209.883 79.8208 209.883 78.208ZM226.805 78.1517C226.805 76.5765 227.115 75.1793 227.733 73.9604C228.371 72.7414 229.224 71.8037 230.293 71.1474C231.381 70.491 232.591 70.1628 233.922 70.1628C235.085 70.1628 236.097 70.3972 236.96 70.8661C237.842 71.3349 238.545 71.9256 239.07 72.6382V70.416H243.036V86H239.07V83.7215C238.564 84.4528 237.86 85.0623 236.96 85.5499C236.079 86.0188 235.057 86.2532 233.894 86.2532C232.581 86.2532 231.381 85.9156 230.293 85.2405C229.224 84.5654 228.371 83.6183 227.733 82.3994C227.115 81.1616 226.805 79.7458 226.805 78.1517ZM239.07 78.208C239.07 77.2516 238.882 76.4358 238.507 75.7607C238.132 75.0668 237.626 74.5417 236.988 74.1854C236.351 73.8103 235.666 73.6228 234.935 73.6228C234.203 73.6228 233.528 73.801 232.909 74.1573C232.291 74.5136 231.784 75.0387 231.39 75.7326C231.015 76.4077 230.828 77.2141 230.828 78.1517C230.828 79.0894 231.015 79.9145 231.39 80.6272C231.784 81.321 232.291 81.8555 232.909 82.2306C233.547 82.6056 234.222 82.7932 234.935 82.7932C235.666 82.7932 236.351 82.615 236.988 82.2587C237.626 81.8836 238.132 81.3585 238.507 80.6834C238.882 79.9896 239.07 79.1644 239.07 78.208ZM250.821 72.8352C251.327 72.01 251.983 71.363 252.79 70.8942C253.615 70.4254 254.553 70.1909 255.603 70.1909V74.326H254.562C253.324 74.326 252.387 74.6167 251.749 75.1981C251.13 75.7794 250.821 76.7921 250.821 78.2361V86H246.883V70.416H250.821V72.8352ZM257.243 78.1517C257.243 76.5765 257.552 75.1793 258.171 73.9604C258.809 72.7414 259.671 71.8037 260.759 71.1474C261.847 70.491 263.056 70.1628 264.388 70.1628C265.4 70.1628 266.366 70.3878 267.285 70.8379C268.204 71.2693 268.935 71.8506 269.479 72.582V65.1838H273.474V86H269.479V83.6933C268.992 84.4622 268.307 85.0811 267.426 85.5499C266.544 86.0188 265.522 86.2532 264.36 86.2532C263.047 86.2532 261.847 85.9156 260.759 85.2405C259.671 84.5654 258.809 83.6183 258.171 82.3994C257.552 81.1616 257.243 79.7458 257.243 78.1517ZM269.507 78.208C269.507 77.2516 269.32 76.4358 268.945 75.7607C268.57 75.0668 268.063 74.5417 267.426 74.1854C266.788 73.8103 266.104 73.6228 265.372 73.6228C264.641 73.6228 263.966 73.801 263.347 74.1573C262.728 74.5136 262.222 75.0387 261.828 75.7326C261.453 76.4077 261.265 77.2141 261.265 78.1517C261.265 79.0894 261.453 79.9145 261.828 80.6272C262.222 81.321 262.728 81.8555 263.347 82.2306C263.985 82.6056 264.66 82.7932 265.372 82.7932C266.104 82.7932 266.788 82.615 267.426 82.2587C268.063 81.8836 268.57 81.3585 268.945 80.6834C269.32 79.9896 269.507 79.1644 269.507 78.208Z" fill="#FFFDFD"/>
<path d="M100.01 90.05H10.62C6.97 90.05 4 87.08 4 83.43V10.62C4 6.97 6.97 4 10.62 4H137.21C140.86 4 143.83 6.97 143.83 10.62V47.83C143.83 48.93 144.73 49.83 145.83 49.83C146.93 49.83 147.83 48.93 147.83 47.83V10.62C147.83 4.77 143.07 0 137.21 0H10.62C4.76 0 0 4.76 0 10.62V83.43C0 89.28 4.76 94.05 10.62 94.05H100.01C101.11 94.05 102.01 93.15 102.01 92.05C102.01 90.95 101.11 90.05 100.01 90.05Z" fill="#3456FF"/>
<path d="M110.44 41.5498C113.15 43.4698 116.39 44.5198 119.74 44.5198C128.61 44.5198 135.83 37.2998 135.83 28.4298C135.83 19.5598 128.61 12.3398 119.74 12.3398C116.42 12.3398 113.54 13.3498 110.77 15.4998C108.04 13.4698 104.71 12.3398 101.16 12.3398C92.2903 12.3398 85.0703 19.5598 85.0703 28.4298C85.0703 37.2998 92.2903 44.5198 101.16 44.5198C104.52 44.5198 107.76 43.4398 110.44 41.5498ZM131.84 28.4198C131.84 35.0898 126.41 40.5098 119.75 40.5098C117.53 40.5098 115.36 39.8998 113.49 38.7598C114.04 38.0998 114.55 37.4098 115 36.6598C116.48 34.1798 117.27 31.3198 117.27 28.4198C117.27 25.5198 116.46 22.5798 114.93 20.0598C114.55 19.4398 114.14 18.8598 113.7 18.3098C115.61 16.9398 117.49 16.3298 119.75 16.3298C126.42 16.3298 131.84 21.7598 131.84 28.4198ZM89.0703 28.4198C89.0703 21.7498 94.5003 16.3298 101.16 16.3298C105.42 16.3298 109.28 18.4998 111.5 22.1498C112.65 24.0398 113.25 26.2098 113.25 28.4298C113.25 30.6498 112.66 32.7598 111.55 34.6198C109.37 38.2598 105.39 40.5198 101.16 40.5198C94.4903 40.5198 89.0703 35.0898 89.0703 28.4298V28.4198Z" fill="#3456FF"/>
<path d="M106.446 35.13C106.666 35.13 106.896 35.09 107.116 35.01C108.156 34.64 108.706 33.5 108.336 32.46C107.876 31.17 107.646 29.81 107.646 28.42C107.646 26.95 107.906 25.51 108.426 24.15C108.816 23.12 108.296 21.96 107.266 21.57C106.236 21.18 105.076 21.7 104.686 22.73C103.996 24.55 103.656 26.46 103.656 28.42C103.656 30.27 103.966 32.08 104.576 33.8C104.866 34.62 105.636 35.13 106.456 35.13H106.446Z" fill="#3456FF"/>
<path d="M46.2809 61.4598C49.3709 61.4598 51.8909 58.9498 51.8909 55.8498V34.1398C51.8909 31.0498 49.3809 28.5298 46.2809 28.5298H14.5709C11.4809 28.5298 8.96094 31.0398 8.96094 34.1398V55.8498C8.96094 58.9398 11.4709 61.4598 14.5709 61.4598H46.2809ZM46.2809 57.4598H38.7409V51.7298H47.8909V55.8498C47.8909 56.7398 47.1709 57.4598 46.2809 57.4598ZM34.7409 57.4598H26.7609V51.7298H34.7409V57.4598ZM47.8909 47.7298H38.7409V44.9298C38.7409 43.7598 39.6909 42.8098 40.8609 42.8098H47.8909V47.7298ZM47.8909 34.1498V38.8198H40.8609C37.4809 38.8198 34.7409 41.5698 34.7409 44.9398V47.7398H26.7609V32.5498H46.2809C47.1709 32.5498 47.8909 33.2698 47.8909 34.1598V34.1498ZM12.9709 42.8098H22.7609V47.7298H12.9709V42.8098ZM14.5809 32.5398H22.7709V38.8098H12.9709V34.1398C12.9709 33.2498 13.6909 32.5298 14.5809 32.5298V32.5398ZM12.9709 55.8498V51.7298H22.7609V57.4598H14.5709C13.6809 57.4598 12.9609 56.7398 12.9609 55.8498H12.9709Z" fill="#3456FF"/>
<path d="M26.4766 77.9902H99.0466C100.147 77.9902 101.047 77.0902 101.047 75.9902C101.047 74.8902 100.147 73.9902 99.0466 73.9902H26.4766C25.3766 73.9902 24.4766 74.8902 24.4766 75.9902C24.4766 77.0902 25.3766 77.9902 26.4766 77.9902Z" fill="#3456FF"/>
</svg>
