<svg width="146" height="136" viewBox="0 0 146 136" fill="none" xmlns="http://www.w3.org/2000/svg">
<g filter="url(#filter0_d_0_1)">
<path fill-rule="evenodd" clip-rule="evenodd" d="M59.5264 32.3666C58.8781 32.1072 58.1836 31.9831 57.4856 32.0018C56.7876 32.0206 56.1007 32.1817 55.4672 32.4754C54.8338 32.7691 54.267 33.1892 53.8017 33.7098C53.3364 34.2305 52.9824 34.8407 52.7614 35.5031L43.685 62.7476H37.125C35.7658 62.7476 34.4622 63.2875 33.5011 64.2486C32.54 65.2098 32 66.5133 32 67.8726C32 69.2318 32.54 70.5354 33.5011 71.4965C34.4622 72.4576 35.7658 72.9976 37.125 72.9976H108.875C110.234 72.9976 111.538 72.4576 112.499 71.4965C113.46 70.5354 114 69.2318 114 67.8726C114 66.5133 113.46 65.2098 112.499 64.2486C111.538 63.2875 110.234 62.7476 108.875 62.7476H102.315L93.2437 35.5031C93.0228 34.8407 92.6688 34.2305 92.2035 33.7098C91.7382 33.1892 91.1714 32.7691 90.5379 32.4754C89.9044 32.1817 89.2176 32.0206 88.5196 32.0018C87.8215 31.9831 87.1271 32.1072 86.4788 32.3666L73 37.7529L59.5264 32.3666ZM91.5166 62.7476L85.2334 43.8978L74.9014 48.0286C73.6807 48.5162 72.3193 48.5162 71.0986 48.0286L60.7666 43.8978L54.4834 62.7476H91.5166Z" fill="#F8F8FA"/>
<path d="M57.6234 100.248H57.625H60.4848H60.4862C61.903 100.248 63.2841 99.8031 64.4338 98.9751C65.5825 98.1477 66.442 96.9802 66.8908 95.6377C66.8911 95.6365 66.8915 95.6353 66.8919 95.6342L67.4276 94.0168L67.4315 94.0051L67.4315 94.0051C67.8227 92.8379 68.5708 91.8232 69.57 91.1042C70.5692 90.3853 71.769 89.9985 73 89.9985C74.231 89.9985 75.4308 90.3853 76.43 91.1042C77.4292 91.8232 78.1773 92.8379 78.5685 94.0051L78.5713 94.0137L79.1087 95.6308C79.1088 95.6314 79.109 95.6319 79.1092 95.6325C79.1093 95.6327 79.1094 95.6329 79.1094 95.6332C79.5573 96.9763 80.4162 98.1445 81.5646 98.9727C82.7134 99.8012 84.0938 100.247 85.5101 100.248H57.6234ZM57.6234 100.248C56.4111 100.248 55.221 99.9224 54.1781 99.3042C53.1357 98.6862 52.2789 97.799 51.6976 96.7357C50.8892 95.2539 49.7588 93.6453 48.2698 92.3683C46.7635 91.0764 44.73 89.9978 42.25 89.9978C41.819 89.9978 41.4057 89.8266 41.101 89.5219C40.7962 89.2171 40.625 88.8038 40.625 88.3728C40.625 87.9418 40.7962 87.5285 41.101 87.2238C41.4057 86.919 41.819 86.7478 42.25 86.7478H103.75C104.181 86.7478 104.594 86.919 104.899 87.2238C105.204 87.5285 105.375 87.9418 105.375 88.3728C105.375 88.8038 105.204 89.2171 104.899 89.5219C104.594 89.8266 104.181 89.9978 103.75 89.9978C101.269 89.9978 99.237 91.0771 97.7315 92.3683C96.2435 93.6445 95.1131 95.2512 94.3021 96.7269L94.298 96.7344M57.6234 100.248L94.298 96.7344M94.298 96.7344C93.7169 97.7978 92.8604 98.6851 91.8182 99.3033C90.776 99.9215 89.5867 100.248 88.375 100.248C88.375 100.248 88.3749 100.248 88.3749 100.248M94.298 96.7344L88.3749 100.248M88.3749 100.248H85.511H88.3749Z" stroke="#F8F8FA" stroke-width="7"/>
</g>
<path d="M59 39L51 67H100L88.5 39L75 45L59 39Z" fill="#F8F8FA"/>
<defs>
<filter id="filter0_d_0_1" x="0.521112" y="0.521112" width="144.958" height="134.706" filterUnits="userSpaceOnUse" color-interpolation-filters="sRGB">
<feFlood flood-opacity="0" result="BackgroundImageFix"/>
<feColorMatrix in="SourceAlpha" type="matrix" values="0 0 0 0 0 0 0 0 0 0 0 0 0 0 0 0 0 0 127 0" result="hardAlpha"/>
<feOffset/>
<feGaussianBlur stdDeviation="15.7394"/>
<feComposite in2="hardAlpha" operator="out"/>
<feColorMatrix type="matrix" values="0 0 0 0 0.972549 0 0 0 0 0.972549 0 0 0 0 0.980392 0 0 0 0.35 0"/>
<feBlend mode="normal" in2="BackgroundImageFix" result="effect1_dropShadow_0_1"/>
<feBlend mode="normal" in="SourceGraphic" in2="effect1_dropShadow_0_1" result="shape"/>
</filter>
</defs>
</svg>
