<svg width="79" height="79" viewBox="0 0 79 79" fill="none" xmlns="http://www.w3.org/2000/svg">
<g filter="url(#filter0_d_156_4355)">
<circle cx="39.5" cy="39.5" r="23.5" fill="#FFFDFD"/>
<path d="M49.92 29.62C49.8185 29.3757 49.6243 29.1815 49.38 29.08C49.2598 29.0288 49.1307 29.0016 49 29H43C42.7348 29 42.4804 29.1054 42.2929 29.2929C42.1054 29.4804 42 29.7348 42 30C42 30.2652 42.1054 30.5196 42.2929 30.7071C42.4804 30.8946 42.7348 31 43 31H46.59L32 45.59V42C32 41.7348 31.8946 41.4804 31.7071 41.2929C31.5196 41.1054 31.2652 41 31 41C30.7348 41 30.4804 41.1054 30.2929 41.2929C30.1054 41.4804 30 41.7348 30 42V48C30.0016 48.1307 30.0288 48.2598 30.08 48.38C30.1815 48.6243 30.3757 48.8185 30.62 48.92C30.7402 48.9712 30.8693 48.9984 31 49H37C37.2652 49 37.5196 48.8946 37.7071 48.7071C37.8946 48.5196 38 48.2652 38 48C38 47.7348 37.8946 47.4804 37.7071 47.2929C37.5196 47.1054 37.2652 47 37 47H33.41L48 32.41V36C48 36.2652 48.1054 36.5196 48.2929 36.7071C48.4804 36.8946 48.7348 37 49 37C49.2652 37 49.5196 36.8946 49.7071 36.7071C49.8946 36.5196 50 36.2652 50 36V30C49.9984 29.8693 49.9712 29.7402 49.92 29.62Z" fill="#070928"/>
</g>
<defs>
<filter id="filter0_d_156_4355" x="0.5" y="0.5" width="78" height="78" filterUnits="userSpaceOnUse" color-interpolation-filters="sRGB">
<feFlood flood-opacity="0" result="BackgroundImageFix"/>
<feColorMatrix in="SourceAlpha" type="matrix" values="0 0 0 0 0 0 0 0 0 0 0 0 0 0 0 0 0 0 127 0" result="hardAlpha"/>
<feOffset/>
<feGaussianBlur stdDeviation="7.75"/>
<feComposite in2="hardAlpha" operator="out"/>
<feColorMatrix type="matrix" values="0 0 0 0 1 0 0 0 0 1 0 0 0 0 1 0 0 0 1 0"/>
<feBlend mode="normal" in2="BackgroundImageFix" result="effect1_dropShadow_156_4355"/>
<feBlend mode="normal" in="SourceGraphic" in2="effect1_dropShadow_156_4355" result="shape"/>
</filter>
</defs>
</svg>
