<svg xmlns="http://www.w3.org/2000/svg" width="1079" height="1079" viewBox="0 0 1079 1079" fill="none">
    <g filter="url(#filter0_d_0_5)">
    <path d="M73.3823 710.971C74.1457 710.971 74.7646 710.361 74.7646 709.608C74.7646 708.855 74.1457 708.244 73.3823 708.244C72.6189 708.244 72 708.855 72 709.608C72 710.361 72.6189 710.971 73.3823 710.971Z" fill="white"/>
    </g>
    <g filter="url(#filter1_f_0_5)">
    <circle cx="539.635" cy="539.635" r="262.635" fill="#3456FF"/>
    </g>
    <path d="M536.402 304.999C539.27 304.999 542.159 304.999 545.006 305.139H546.105C555.365 305.51 564.595 306.415 573.748 307.848L574.542 307.989C620.221 315.382 662.699 335.828 696.717 366.795C730.735 397.762 754.799 437.89 765.929 482.212C766.153 483.095 766.357 483.958 766.58 484.861L766.886 486.225C768.025 491.141 768.92 496.137 769.815 501.174L769.998 502.237C770.12 503.02 770.242 503.822 770.344 504.625C777.863 555.569 768.073 607.535 742.503 652.414C716.933 697.293 677.02 732.558 628.994 752.707L627.998 753.129C620.16 756.4 612.147 759.247 603.995 761.657L602.612 762.058C553.824 776.038 501.77 774.159 454.149 756.698C406.528 739.238 365.867 707.123 338.18 665.104C331.082 654.377 324.91 643.081 319.731 631.335V631.215C317.208 625.496 314.889 619.637 312.835 613.678C312.611 613.056 312.387 612.413 312.184 611.791C300.389 576.741 297.198 539.429 302.875 502.924C308.551 466.42 322.931 431.766 344.834 401.814C366.736 371.862 395.535 347.467 428.86 330.635C462.185 313.804 499.085 305.018 536.524 304.999H536.402Z" fill="url(#paint0_linear_0_5)"/>
    <path opacity="0.1" d="M771.323 510.894C776.625 556.369 768.243 602.378 747.222 643.187C726.2 683.996 693.469 717.8 653.106 740.387C612.744 762.974 566.536 773.344 520.24 770.206C473.944 767.068 429.609 750.56 392.758 722.739C611.708 767.925 723.095 612.382 771.323 510.894Z" fill="#3456FF"/>
    <path d="M534.458 407.854C533.755 403.416 530.029 409.448 530.046 407.854C530.071 406.261 527.904 408.205 527.904 406.792C527.904 405.378 525.248 406.081 528.255 403.947C531.262 401.822 528.461 402.311 529.72 399.595C530.98 396.879 528.186 395.388 528.384 393.4C528.589 391.413 525.068 392.869 525.188 391.276C525.325 389.682 522.463 392.013 522.532 390.607C522.609 389.211 520.013 390.213 520.159 389.948C520.296 389.682 519.807 388.551 518.479 387.883C517.151 387.223 514.624 385.895 517.211 385.158C519.807 384.422 515.892 383.565 517.288 382.091C518.685 380.635 514.024 380.96 514.958 378.647C515.892 376.317 513.364 376.239 512.893 374.517C512.422 372.795 511.565 376.582 509.106 378.51C506.647 380.438 504.523 379.375 503.589 378.578C502.638 377.782 502.723 378.244 502.852 377.387C502.989 376.522 502.792 376.779 502.064 376.119C501.327 375.46 502.723 373.523 503.46 372.333C504.197 371.133 501.532 371.93 500.599 371.801C499.665 371.664 500.196 370.139 499.862 369.205C499.528 368.271 497.343 367.278 497.077 367.612C496.812 367.946 494.875 368.083 493.153 367.081C491.431 366.078 491.157 366.489 488.895 367.612C486.642 368.743 490.223 368.349 488.835 369.805C487.43 371.262 488.167 370.542 488.492 371.741C488.835 372.932 488.364 372.667 487.233 374.466C486.102 376.257 486.034 375.468 484.508 376.128C482.975 376.796 483.369 376.128 484.303 378.124C485.228 380.112 485.828 378.913 485.494 381.911C485.168 384.901 484.226 384.833 481.767 386.761C479.308 388.688 477.312 388.885 475.461 388.885C473.61 388.885 475.324 390.213 475.118 394.403C474.93 398.584 473.259 397.067 471.828 398.927C470.415 400.786 469.138 398.395 468.538 396.665C467.93 394.943 466.945 394.206 467.476 392.809C468.007 391.413 467.133 391.139 469.404 388.414C471.657 385.69 469.609 387.617 467.545 385.818C465.48 384.027 464.743 385.955 463.483 384.224C462.224 382.502 460.827 381.5 460.168 379.307C459.508 377.113 458.369 379.178 457.246 377.585C456.115 375.991 456.381 378.51 454.445 377.585C452.517 376.651 457.512 373.523 455.584 372.727C453.656 371.93 453.913 371.596 458.506 367.201C463.089 362.814 460.433 365.675 462.695 363.756C464.949 361.82 465.154 363.02 467.613 362.694C470.072 362.351 470.398 360.364 473.73 359.361C477.063 358.359 473.996 359.832 476.189 359.43C478.383 359.036 478.46 358.033 480.379 356.44C482.307 354.846 482.101 356.774 481.176 358.162C480.25 359.567 479.779 360.226 478.785 361.494C477.783 362.762 479.119 363.354 480.85 363.088C482.572 362.822 481.853 361.889 483.001 362.086C484.157 362.291 485.04 362.754 486.907 361.16C488.784 359.567 484.706 358.436 484.234 357.031C483.78 355.634 484.766 357.031 486.642 356.5C487.687 356.2 488.518 355.017 489.058 354.041C490.206 353.689 491.337 353.218 492.219 352.713C495.021 351.119 495.552 348.326 497.146 347.392C498.739 346.458 500.873 348.189 502.86 349.388C504.857 350.579 504.857 352.584 505.268 354.709C505.662 356.834 504.334 356.697 501.267 358.693C498.217 360.689 500.873 361.494 501.67 363.619C502.466 365.744 503.392 365.213 505.525 368.014C507.65 370.799 509.655 369.205 512.045 369.737C514.435 370.268 512.842 367.209 514.701 367.346C516.56 367.483 516.157 363.354 514.307 362.42C512.431 361.494 512.97 359.764 514.17 358.564C515.369 357.373 515.9 361.22 518.222 361.16C520.553 361.109 519.884 357.236 520.159 355.24C520.416 353.244 515.9 353.509 513.904 351.907C511.908 350.314 513.776 349.637 516.295 349.517C518.813 349.388 516.689 346.981 512.713 346.201C508.712 345.396 511.12 346.064 510.717 344.076C510.314 342.072 509.92 344.865 508.181 343.802C506.459 342.74 507.65 341.549 506.724 339.15C505.799 336.76 504.334 340.212 501.935 338.756C500.65 337.968 499.982 338.225 499.168 338.43C499.228 338.387 499.313 338.045 499.185 338.019C498.654 337.916 496.752 338.627 496.752 338.627C496.752 338.627 491.251 340.281 490.095 341.283C489.007 342.226 491.029 346.741 491.029 346.741C491.029 346.741 489.229 347.786 487.327 349.106C487.01 347.949 486.179 346.724 485.177 346.073C482.923 344.616 484.774 344.616 486.111 342.74C489.503 337.985 490.069 339.715 493.025 337.693C497.677 334.498 493.025 337.693 488.492 336.888C483.977 336.1 486.77 339.827 483.575 339.955C480.379 340.084 479.188 342.885 475.727 343.417C475.538 343.451 475.358 343.485 475.195 343.511C475.101 343.802 475.29 339.844 475.144 339.741C475.658 339.518 476.463 339.107 477.731 338.362C483.583 334.9 479.197 335.175 477.731 334.232C476.266 333.307 476.266 335.826 474.947 334.763C473.61 333.701 473.885 332.913 475.735 329.717C477.603 326.521 472.008 329.186 469.489 330.505C466.97 331.842 464.966 330.642 464.966 330.642C460.973 332.767 463.106 333.572 465.231 333.444C467.356 333.307 466.294 334.635 465.231 335.963C464.169 337.291 463.775 338.482 461.898 337.162C460.048 335.826 460.973 338.482 459.114 340.075C457.255 341.669 456.861 338.482 458.052 336.751C459.242 335.029 456.055 336.348 456.766 334.892C457.478 333.435 458.994 333.967 460.845 331.696C462.721 329.426 456.989 330.103 453.536 331.696C450.075 333.29 451.412 331.559 456.998 326.641C460.399 323.651 458.72 321.74 456.501 320.095C441.233 325.836 426.72 333.135 413.157 341.789C417.921 341.335 421.665 340.427 420.277 342.834C418.323 346.21 414.631 351.907 404.829 362.274C390.675 377.242 388.379 387.823 381.816 394.908C375.262 402.002 362.496 404.316 361.434 421.871C360.372 439.426 356.645 452.183 356.645 452.183C356.645 452.183 355.051 462.473 354.151 468.856C353.269 475.239 356.456 482.504 358.238 482.153C360.003 481.802 359.121 480.911 357.707 477.715C356.285 474.519 355.882 468.556 357.793 458.575C358.461 455.088 358.889 452.552 359.943 449.013C360.997 445.466 361.605 445.449 363.028 450.418C364.441 455.388 363.379 455.208 361.434 462.122C359.48 469.036 363.379 475.239 364.261 480.208C365.152 485.177 367.457 493.325 364.261 496.521C361.066 499.708 366.575 507.342 367.817 508.576C369.051 509.818 371.544 511.951 371.544 514.256C371.544 516.561 382.356 520.81 386.794 520.108C391.232 519.397 389.639 521.17 390.521 522.584C391.404 524.006 393.897 527.373 397.435 532.874C400.982 538.365 399.911 532.514 402.225 535.35C404.538 538.186 405.232 536.412 409.49 537.474C413.748 538.537 409.139 540.482 410.552 541.013C411.975 541.544 414.811 545.451 414.459 548.989C414.108 552.545 413.397 552.545 417.466 552.896C421.553 553.256 421.905 555.012 422.787 558.208C423.678 561.404 427.225 562.483 430.061 564.968C432.888 567.444 434.85 566.553 433.608 564.257C432.366 561.952 432.726 561.233 435.913 559.639C439.108 558.045 437.326 563.546 441.764 564.968C446.194 566.39 440.702 561.764 440.342 558.405C439.991 555.03 437.686 558.225 434.49 556.983C431.303 555.749 433.788 560.359 431.303 559.288C428.827 558.225 428.296 560.35 428.476 557.343C428.647 554.318 425.983 556.101 424.038 553.616C422.093 551.123 422.444 552.022 421.733 549.178C421.031 546.351 420.32 546.171 422.976 541.913C425.631 537.654 423.687 535.35 424.92 533.216C426.163 531.092 422.796 531.443 422.093 530.74C421.382 530.029 419.069 528.436 416.772 528.084C414.468 527.724 414.279 530.029 411.452 528.084C408.608 526.131 405.069 527.553 406.483 525.78C407.896 524.015 409.139 522.233 410.03 520.81C410.921 519.397 410.561 515.67 413.757 514.967C416.952 514.256 412.609 513.768 412.874 512.311C413.174 510.666 415.881 508.404 416.421 505.568C416.952 502.741 408.976 505.037 406.14 504.866C403.296 504.686 405.078 511.249 401.351 513.014C397.624 514.787 399.397 518.865 396.913 516.209C394.437 513.553 389.647 514.265 388.405 511.249C387.163 508.224 385.029 505.928 384.327 502.733C383.616 499.545 383.616 492.091 386.623 488.185C389.647 484.278 389.116 479.326 391.241 475.95C393.366 472.574 394.968 471.872 400.64 469.567C406.311 467.262 405.429 467.973 407.554 468.505C409.678 469.036 411.812 471.7 413.757 469.918C415.71 468.153 413.757 469.918 419.257 469.036C424.758 468.153 425.82 470.278 427.585 470.098C429.358 469.918 429.71 474.005 432.023 472.943C434.336 471.88 434.148 473.114 436.992 476.67C439.82 480.208 438.586 481.099 436.632 484.646C434.688 488.193 437.875 489.256 440.359 493.505C442.852 497.763 441.782 491.029 443.015 487.833C444.258 484.638 443.546 481.622 442.313 476.661C441.07 471.692 441.782 470.098 445.14 465.84C448.516 461.582 450.109 460.7 455.781 460.34C461.461 459.988 463.226 454.317 464.657 451.121C466.071 447.934 463.415 447.394 465.54 442.785C467.664 438.175 467.313 446.511 468.384 442.785C469.447 439.058 468.384 442.785 471.931 440.488C475.478 438.184 472.111 436.933 477.252 436.316C482.392 435.69 486.65 429.136 488.775 428.142C490.9 427.14 490.549 425.058 492.682 425.94C494.807 426.823 493.033 423.096 498.354 421.862C503.674 420.62 502.792 421.682 501.644 423.276C500.504 424.87 500.136 423.276 498.003 426.472C495.878 429.659 501.73 427.714 503.854 425.229C505.979 422.753 511.831 422.933 516.089 420.269C520.347 417.613 516.269 418.495 514.315 417.073C512.371 415.651 512.55 419.369 508.995 420.8C505.448 422.214 505.636 419.558 504.206 416.542C502.792 413.517 505.628 412.986 506.699 410.159C507.761 407.323 502.792 409.799 499.425 409.628C496.066 409.448 494.995 409.799 497.48 408.385C499.956 406.972 500.324 407.854 499.956 406.612C499.605 405.378 499.956 405.549 505.277 405.018C510.597 404.487 516.449 407.143 521.067 403.253C525.676 399.346 521.769 400.94 526.027 402.011C530.286 403.073 526.207 403.956 523.371 405.387C520.544 406.8 524.614 409.276 521.075 410.347C517.52 411.41 522.489 414.434 528.872 413.723C535.255 413.012 531.528 414.785 533.481 416.559C535.435 418.324 534.724 417.621 536.677 415.496C538.63 413.372 535.263 412.301 534.552 407.871L534.458 407.854ZM475.118 339.733C473.748 340.307 474.664 339.424 475.118 339.733V339.733Z" fill="#40F5F9" fill-opacity="0.2"/>
    <path d="M772.99 539.265C772.99 584.228 760.319 626.227 738.334 661.885C735.635 654.543 740.502 639.978 748.041 620.298C755.572 600.618 752.214 581.992 748.041 571.891C743.869 561.781 746.893 558.062 747.956 550.609C749.018 543.163 739.979 554.336 739.448 549.546C738.917 544.757 733.596 543.163 729.869 543.694C726.142 544.226 726.142 554.867 720.822 553.273C715.501 551.68 719.228 547.953 712.845 558.062C706.462 568.172 692.094 555.938 685.18 550.617C678.266 545.297 674.008 545.297 674.008 533.593C674.008 521.89 674.008 510.186 670.812 509.124C667.617 508.062 664.961 501.147 662.305 490.506C659.649 479.865 670.812 475.076 679.86 467.099C688.907 459.123 677.735 458.592 677.735 458.592C677.735 458.592 673.477 454.334 674.539 445.826C675.602 437.318 680.391 441.037 685.18 441.037C689.97 441.037 692.094 438.381 695.29 429.864C698.477 421.348 697.415 422.419 705.931 422.925C714.447 423.421 712.314 436.778 714.979 436.196C717.635 435.613 716.572 430.927 719.768 433.06C722.955 435.185 727.744 438.912 730.409 433.06C733.065 427.208 725.62 428.271 730.409 426.146C735.198 424.021 738.925 427.208 736.792 421.357C735.884 418.881 736.226 416.413 736.92 414.374C759.779 450.521 772.999 493.351 772.999 539.282L772.99 539.265Z" fill="#40F5F9" fill-opacity="0.2"/>
    <path d="M721.386 406.314C715.432 400.496 710.283 390.755 711.131 386.351C711.259 385.657 713.915 388.476 713.384 384.629C713.341 384.355 713.564 384.072 713.924 383.807C716.571 386.78 719.142 389.804 721.626 392.914C721.446 394.413 721.635 396.05 722.423 397.798C724.042 401.362 726.15 410.958 721.378 406.305L721.386 406.314Z" fill="#40F5F9" fill-opacity="0.2"/>
    <path d="M716.587 410.826C714.333 410.826 705.945 401.119 700.625 396.338C695.304 391.549 698.432 396.552 697.138 398.84C695.836 401.127 692.648 392.08 690.515 394.744C690.207 395.13 689.838 395.396 689.418 395.576C690.258 396.424 691.269 397.418 692.374 398.471C695.467 401.41 697.301 401.796 697.832 401.256C698.363 400.725 699.683 401.993 699.683 401.993L704.215 402.995C704.215 402.995 707.256 404.752 707.154 405.668C707.076 406.234 704.472 405.583 704.24 405.531C704.6 405.874 708.807 409.746 707.325 411.906C706.579 413.002 704.875 409.652 702.75 407.39C701.482 406.037 698.757 404.854 697.96 405.66C697.164 406.456 695.424 406.054 693.574 403.004C692.16 400.699 686.882 400.056 684.389 399.877C684.423 400.399 684.509 400.99 684.655 401.676C686.248 409.121 679.865 405.403 679.865 405.403C679.865 405.403 680.928 413.379 679.865 414.981C678.803 416.575 678.272 419.239 682.521 426.154C686.78 433.068 675.076 428.278 676.139 432.536C677.201 436.795 671.615 439.982 661.899 427.747C652.192 415.512 652.997 409.541 661.899 412C668.025 412.188 670.818 409.661 666.56 404.606C659.243 399.148 656.047 399.517 652.32 396.492C648.593 393.468 654.317 391.574 658.044 390.512C660.828 390.786 660.434 388.516 658.66 387.008C653.743 382.87 662.833 384.129 659.637 377.909C658.044 373.916 658.995 372.64 659.637 370.952C661.145 366.985 666.02 373.222 664.427 366.034C662.833 358.846 672.669 369.23 668.419 363.113C664.161 356.995 654.591 356.73 658.575 355.136C662.567 353.543 655.311 353.757 654.317 349.284C653.254 344.495 651.969 343.107 648.593 342.105C648.336 345.832 654.582 349.55 650.059 348.753C645.535 347.956 641.551 346.363 638.09 342.37C634.628 338.378 623.987 332.526 630.379 339.44C636.762 346.354 639.692 349.816 644.472 351.144C648.731 351.675 648.199 351.94 652.183 355.933C656.176 359.925 660.023 370.224 655.662 368.039C648.808 364.595 649.245 359.531 645.004 356.73C644.824 356.567 645.672 361.656 643.676 362.05C638.886 364.441 635.434 355.667 630.113 353.003C624.792 350.347 635.434 351.144 631.175 347.417C626.917 343.69 617.878 338.104 615.479 333.588C613.089 329.065 613.089 324.01 618.401 327.737C620.526 331.464 620.791 324.541 625.846 328.533C630.901 332.526 627.414 330.17 632.229 332.792C637.91 335.867 642.339 335.182 640.206 333.46C635.365 329.527 614.391 324.669 614.94 318.818C614.974 318.475 614.991 318.149 614.991 317.85C649.485 329.699 680.328 349.387 705.406 374.782C703.924 375.416 699.614 377.661 702.287 381.216C705.483 385.474 709.004 385.714 707.188 390.503C705.371 395.293 722.601 410.86 716.544 410.843L716.587 410.826Z" fill="#40F5F9" fill-opacity="0.2"/>
    <path d="M626.138 363.088C631.33 359.644 629.334 368.94 632.255 368.143C635.186 367.346 636.574 370.696 638.51 372.135C641.423 374.303 639.872 373.198 645.827 376.925C648.594 378.655 649.022 380.12 649.819 381.98C650.616 383.839 652.749 378.253 653.546 380.652C654.343 383.042 659.132 384.378 651.156 387.566C648.234 387.566 649.562 391.027 647.96 390.761C646.366 390.496 647.086 385.312 644.687 385.578C642.297 385.844 645.295 382.785 642.1 382.519C638.904 382.254 645.69 381.191 641.971 379.863C638.244 378.535 635.922 374.569 636.454 377.756C636.985 380.943 641.311 387.043 638.913 385.715C636.522 384.387 639.178 389.176 637.319 389.176C635.46 389.176 634.123 388.38 633.326 385.715C632.53 383.059 626.412 381.988 629.599 381.191C632.795 380.395 626.909 377.91 630.131 376.942C631.407 376.556 629.54 373.326 629.54 373.326C625.813 371.424 620.226 368.631 625.016 369.428C629.805 370.225 624.802 363.996 626.138 363.105V363.088Z" fill="#40F5F9" fill-opacity="0.2"/>
    <path d="M591.296 351.384C592.358 350.939 595.554 351.915 595.554 353.115C595.554 354.314 599.812 355.043 598.39 356.225C596 358.221 597.816 360.166 596.085 359.763C594.355 359.361 596.351 361.888 593.292 360.963C590.234 360.029 589.3 361.091 586.378 358.838C583.448 356.576 579.198 356.979 580.655 354.314C582.651 352.052 585.444 353.646 586.644 354.58C587.972 355.908 587.406 352.661 588.503 353.115C590.765 354.049 590.542 351.701 591.296 351.384Z" fill="#40F5F9" fill-opacity="0.2"/>
    <path d="M522.621 329.33C523.76 328.953 527.984 326.648 530.914 325.449C532.114 324.387 532.911 324.652 534.239 325.449C535.567 326.246 538.642 322.253 539.953 323.453C541.273 324.652 543.012 318.8 549.266 322.656C552.128 322.545 552.445 320.206 554.433 322.733C556.429 325.261 557.834 319.769 560.036 325.175C561.501 328.765 564.028 330.975 565.356 331.429C568.347 332.457 573.059 334.385 571.465 336.253C569.872 338.112 568.021 338.078 570.411 340.211C572.802 342.336 576.4 341.008 576.4 342.601C576.4 343.929 571.688 343.004 568.689 343.004C567.49 343.004 567.096 344.735 568.689 345.266C570.283 345.797 572.416 345 573.873 345.266C575.338 345.532 575.998 348.059 573.342 348.993C570.677 349.927 568.287 351.52 565.759 350.724C563.103 350.861 570.146 355.513 564.294 357.107C558.442 358.7 560.302 355.907 558.708 357.107C557.114 358.306 562.032 358.966 558.305 360.028C554.578 361.091 555.512 362.419 555.778 363.618C556.043 364.817 555.11 365.614 553.919 366.283C552.719 366.951 555.247 367.216 554.45 370.806C553.653 374.396 557.38 375.99 554.184 375.458C550.988 374.927 552.985 371.337 549.926 371.869C546.867 372.4 540.904 369.204 538.9 365.486C536.895 361.759 536.629 361.099 534.367 359.368C532.105 357.638 530.512 355.11 532.508 354.451C534.504 353.782 534.102 352.857 536.098 352.857C538.094 352.857 539.713 353.705 538.9 351.281C538.094 348.864 539.019 348.864 536.363 349.396C533.699 349.927 531.574 347.931 534.239 347.802C536.895 347.674 539.028 348.205 537.563 346.208C536.098 344.212 535.832 342.482 534.367 344.084C532.902 345.677 532.105 347.279 531.977 343.415C531.84 339.56 531.446 339.688 530.246 337.17C529.047 334.642 531.309 334.377 526.656 334.779C522.004 335.182 518.346 335.713 518.217 334.248C518.08 332.783 520.231 330.144 522.621 329.347V329.33Z" fill="#40F5F9" fill-opacity="0.2"/>
    <path d="M573.866 317.465C574.68 316.274 581.311 317.593 579.452 318.93C577.593 320.258 580.249 319.864 583.179 320.258C586.101 320.652 588.765 321.851 587.968 322.117C587.172 322.383 583.282 320.909 582.913 322.117C582.665 322.931 586.675 323.685 585.835 323.848C583.008 324.387 579.375 323.06 577.327 322.383C576.411 322.083 573.772 321.612 573.866 320.652C573.935 319.992 576.393 319.855 576.393 319.855C576.393 319.855 573.378 318.176 573.866 317.465Z" fill="#40F5F9" fill-opacity="0.2"/>
    <path d="M434.978 592.992C433.205 593.343 431.928 594.74 431.577 601.123C431.226 607.506 429.349 612.072 431.474 617.821C435.904 623.142 443.846 641.4 447.393 643.533C455.198 658.072 469.737 665.166 475.229 667.651C480.73 670.136 480.198 699.745 478.245 700.988C476.292 702.23 480.37 705.948 479.307 706.488C478.245 707.019 481.081 710.746 481.081 715.356C481.081 719.965 481.612 719.254 479.487 722.621C477.363 725.988 482.854 739.465 484.628 745.317C486.401 751.169 490.831 753.833 493.316 755.067C495.8 756.309 497.925 756.489 502.363 757.92C506.793 759.351 514.778 761.098 513.004 757.903C508.395 758.254 503.254 752.051 504.668 752.051C506.081 752.051 504.668 750.457 505.199 748.855C505.73 747.253 508.395 747.793 509.097 746.551C509.808 745.308 506.261 745.128 504.839 743.535C503.417 741.941 505.73 741.581 508.386 741.05C511.042 740.519 508.917 738.394 511.042 736.792C513.167 735.198 507.144 733.425 509.448 733.956C511.753 734.487 513.347 734.307 513.707 732.534C514.058 730.76 510.511 728.987 514.949 729.167C520.621 730.76 527.715 726.862 529.488 726.151C531.262 725.44 528.246 721.362 525.941 720.179C523.637 718.997 519.558 716.572 520.441 714.448C521.323 712.323 523.457 714.799 524.87 717.112C526.293 719.417 533.207 718.706 534.62 719.948C536.043 721.19 540.121 717.283 542.425 714.807C544.73 712.323 548.277 707.362 553.418 704.526C558.558 701.69 557.847 699.557 557.145 696.901C556.434 694.245 560.34 691.049 564.239 689.096C568.137 687.142 571.513 685.018 577.716 685.018C583.919 685.018 581.263 680.939 585.341 678.635C589.419 676.33 593.146 664.806 594.388 661.611C595.631 658.424 595.451 653.634 595.451 650.618C595.451 647.603 595.631 647.603 597.755 648.494C599.88 649.376 598.818 646.189 600.771 644.767C602.725 643.344 600.771 641.571 603.076 640.688C605.381 639.806 606.443 634.485 609.459 632.532C612.475 630.579 611.584 626.149 611.052 622.782C610.521 619.415 607.326 617.641 604.138 617.461C600.943 617.282 597.396 614.806 594.92 611.524C592.435 608.243 585.521 611.79 582.865 611.524C580.209 611.258 579.318 609.125 577.193 610.899C575.068 612.672 573.466 610.367 572.584 607.532C571.693 604.696 568.326 606.118 565.49 603.89C562.654 601.663 562.294 603.633 559.989 603.813C557.684 603.993 556.793 603.813 555.028 603.813C553.264 603.813 551.302 599.384 551.661 596.008C552.552 592.641 548.294 591.399 548.294 591.399C548.294 591.399 546.521 587.852 545.099 583.242C543.676 578.633 539.067 580.586 536.231 577.922C533.395 575.266 525.77 576.859 523.105 576.679C520.449 576.499 517.785 574.555 517.074 571.719C516.363 568.883 512.816 566.749 510.691 566.467C508.566 566.184 508.566 565.867 508.566 563.562C508.566 561.258 506.081 561.609 504.488 560.906C502.894 560.195 502.363 560.375 501.832 558.422C501.301 556.468 499.527 556.828 497.222 555.766C494.918 554.703 494.566 556.297 494.207 557.89C493.855 559.484 491.011 559.844 489.066 558.242C487.113 556.648 486.05 556.82 484.988 556.999C483.925 557.179 480.027 558.242 479.487 556.108C478.956 553.984 476.472 553.093 472.573 552.381C468.675 551.67 469.737 551.139 469.737 550.077C469.737 549.014 467.081 548.303 464.597 550.077C462.112 551.85 460.698 552.381 459.456 552.356C458.214 552.33 456.971 555.037 455.027 552.913C453.073 550.788 455.909 555.397 451.617 556.108C447.324 556.819 445.585 559.655 445.585 559.655V564.976C445.585 564.976 446.253 564.625 445.585 571.719C444.917 578.813 442.792 586.618 438.885 589.805L434.987 592.992H434.978Z" fill="#40F5F9" fill-opacity="0.2"/>
    <path d="M425.047 502.912C425.047 502.912 431.079 499.716 433.203 501.138C435.328 502.56 438.087 500.787 445.575 505.396C453.063 510.006 464.055 514.975 459.095 515.326C454.134 515.678 453.063 515.326 450.227 515.326C447.391 515.326 448.257 513.176 447.211 512.131C443.896 508.789 443.133 509.106 440.649 508.318C438.164 507.53 435.328 504.505 434.977 506.639C434.626 508.763 425.047 502.912 425.047 502.912Z" fill="#40F5F9" fill-opacity="0.2"/>
    <path d="M463.344 517.811C463.344 517.811 466.18 522.42 463.344 522.42C460.508 522.42 457.672 524.905 457.672 524.905C457.672 524.905 465.828 525.616 467.953 524.905C470.078 524.194 471.851 526.241 475.398 525.222C478.945 524.202 484.266 521.966 480.008 521.666C475.75 521.358 469.624 519.233 469.624 519.233C469.624 519.233 465.468 517.459 463.335 517.811H463.344Z" fill="#40F5F9" fill-opacity="0.2"/>
    <g filter="url(#filter2_i_0_5)">
    <path d="M704.909 373.361C852.304 380.225 960.098 425.228 971.027 494.613C986.334 591.807 805.754 700.054 567.687 736.394C329.621 772.733 124.217 723.325 108.906 626.13C97.9731 556.713 186.955 481.665 325.434 431.204" stroke="#3456FF" stroke-width="2.76458" stroke-miterlimit="10" stroke-linecap="round"/>
    </g>
    <g filter="url(#filter3_i_0_5)">
    <path d="M731.522 398.383C839.263 410.45 915.005 447.939 923.56 502.374C937.087 588.443 777.547 684.288 567.222 716.449C356.896 748.61 175.428 704.906 161.902 618.837C153.346 564.393 214.041 506.046 313.041 462.362" stroke="#3456FF" stroke-width="1.21641" stroke-miterlimit="10" stroke-linecap="round"/>
    </g>
    <g filter="url(#filter4_i_0_5)">
    <path d="M750.266 434.477C807.852 449.241 845.946 475.49 851.344 510.03C862.425 580.868 731.781 659.749 559.552 686.202C387.323 712.655 238.728 676.703 227.655 605.865C222.249 571.286 250.609 534.788 301.098 503.407" stroke="#3456FF" stroke-width="2.76458" stroke-miterlimit="10" stroke-linecap="round"/>
    </g>
    <g filter="url(#filter5_i_0_5)">
    <path d="M765.817 479.717C783.592 490.884 794.717 504.698 797.23 520.683C806.329 578.62 698.837 643.142 557.135 664.835C415.432 686.527 293.186 657.133 284.086 599.184C281.745 584.165 287.208 568.712 299.071 553.67" stroke="#3456FF" stroke-width="1.17189" stroke-miterlimit="10" stroke-linecap="round"/>
    </g>
    <g filter="url(#filter6_d_0_5)">
    <path d="M338.843 692.427C340.37 692.427 341.607 691.206 341.607 689.7C341.607 688.194 340.37 686.973 338.843 686.973C337.316 686.973 336.078 688.194 336.078 689.7C336.078 691.206 337.316 692.427 338.843 692.427Z" fill="white"/>
    </g>
    <g filter="url(#filter7_d_0_5)">
    <path d="M186.097 710.153C187.242 710.153 188.17 709.237 188.17 708.108C188.17 706.978 187.242 706.062 186.097 706.062C184.952 706.062 184.023 706.978 184.023 708.108C184.023 709.237 184.952 710.153 186.097 710.153Z" fill="white"/>
    </g>
    <g filter="url(#filter8_d_0_5)">
    <path d="M195.085 541.075C195.849 541.075 196.468 540.464 196.468 539.711C196.468 538.958 195.849 538.348 195.085 538.348C194.322 538.348 193.703 538.958 193.703 539.711C193.703 540.464 194.322 541.075 195.085 541.075Z" fill="white"/>
    </g>
    <g filter="url(#filter9_d_0_5)">
    <path d="M920.789 538.348C921.552 538.348 922.171 537.738 922.171 536.985C922.171 536.232 921.552 535.621 920.789 535.621C920.025 535.621 919.406 536.232 919.406 536.985C919.406 537.738 920.025 538.348 920.789 538.348Z" fill="white"/>
    </g>
    <g filter="url(#filter10_d_0_5)">
    <path d="M228.257 603.797C229.021 603.797 229.64 603.187 229.64 602.434C229.64 601.681 229.021 601.07 228.257 601.07C227.494 601.07 226.875 601.681 226.875 602.434C226.875 603.187 227.494 603.797 228.257 603.797Z" fill="white"/>
    </g>
    <g filter="url(#filter11_d_0_5)">
    <path d="M763.203 628.342C763.966 628.342 764.585 627.732 764.585 626.979C764.585 626.226 763.966 625.615 763.203 625.615C762.439 625.615 761.82 626.226 761.82 626.979C761.82 627.732 762.439 628.342 763.203 628.342Z" fill="white"/>
    </g>
    <g filter="url(#filter12_d_0_5)">
    <path d="M792.234 410.176C792.997 410.176 793.616 409.566 793.616 408.813C793.616 408.06 792.997 407.449 792.234 407.449C791.47 407.449 790.852 408.06 790.852 408.813C790.852 409.566 791.47 410.176 792.234 410.176Z" fill="white"/>
    </g>
    <g filter="url(#filter13_d_0_5)">
    <path d="M824.382 263.674C825.146 263.674 825.765 263.064 825.765 262.311C825.765 261.558 825.146 260.947 824.382 260.947C823.619 260.947 823 261.558 823 262.311C823 263.064 823.619 263.674 824.382 263.674Z" fill="white"/>
    </g>
    <g filter="url(#filter14_d_0_5)">
    <path d="M439.749 673.338C440.513 673.338 441.132 672.728 441.132 671.975C441.132 671.222 440.513 670.611 439.749 670.611C438.986 670.611 438.367 671.222 438.367 671.975C438.367 672.728 438.986 673.338 439.749 673.338Z" fill="white"/>
    </g>
    <g filter="url(#filter15_d_0_5)">
    <path d="M710.679 374.725C711.443 374.725 712.061 374.115 712.061 373.362C712.061 372.609 711.443 371.998 710.679 371.998C709.916 371.998 709.297 372.609 709.297 373.362C709.297 374.115 709.916 374.725 710.679 374.725Z" fill="white"/>
    </g>
    <g filter="url(#filter16_d_0_5)">
    <path d="M522.686 723.788C524.213 723.788 525.451 722.567 525.451 721.061C525.451 719.555 524.213 718.334 522.686 718.334C521.16 718.334 519.922 719.555 519.922 721.061C519.922 722.567 521.16 723.788 522.686 723.788Z" fill="white"/>
    </g>
    <g filter="url(#filter17_d_0_5)">
    <path d="M875.171 407.448C876.698 407.448 877.935 406.227 877.935 404.721C877.935 403.215 876.698 401.994 875.171 401.994C873.644 401.994 872.406 403.215 872.406 404.721C872.406 406.227 873.644 407.448 875.171 407.448Z" fill="white"/>
    </g>
    <g filter="url(#filter18_d_0_5)">
    <path d="M796.382 539.712C797.909 539.712 799.146 538.491 799.146 536.985C799.146 535.479 797.909 534.258 796.382 534.258C794.855 534.258 793.617 535.479 793.617 536.985C793.617 538.491 794.855 539.712 796.382 539.712Z" fill="white"/>
    </g>
    <g filter="url(#filter19_d_0_5)">
    <path d="M110.765 598.345C112.291 598.345 113.529 597.124 113.529 595.618C113.529 594.112 112.291 592.891 110.765 592.891C109.238 592.891 108 594.112 108 595.618C108 597.124 109.238 598.345 110.765 598.345Z" fill="white"/>
    </g>
    <g filter="url(#filter20_d_0_5)">
    <path d="M879.319 632.433C880.846 632.433 882.084 631.212 882.084 629.706C882.084 628.199 880.846 626.979 879.319 626.979C877.792 626.979 876.555 628.199 876.555 629.706C876.555 631.212 877.792 632.433 879.319 632.433Z" fill="white"/>
    </g>
    <g filter="url(#filter21_d_0_5)">
    <path d="M262.819 460.626C264.346 460.626 265.584 459.405 265.584 457.899C265.584 456.393 264.346 455.172 262.819 455.172C261.292 455.172 260.055 456.393 260.055 457.899C260.055 459.405 261.292 460.626 262.819 460.626Z" fill="white"/>
    </g>
    <g opacity="0.9">
    <g filter="url(#filter22_d_0_5)">
    <path d="M352.059 346.825C344.847 347.487 339.557 353.804 340.245 360.935C340.933 368.065 347.337 373.309 354.549 372.647C361.762 371.985 367.051 365.668 366.363 358.538C365.675 351.407 359.271 346.163 352.059 346.825ZM352.431 350.686C354.817 350.467 356.935 352.202 357.163 354.56C357.39 356.919 355.641 359.008 353.255 359.227C350.87 359.446 348.752 357.711 348.524 355.353C348.297 352.995 350.046 350.905 352.431 350.686ZM354.221 369.272C351.841 369.49 349.578 368.833 347.76 367.569C347.318 367.261 347.032 366.777 346.981 366.245C346.75 363.854 348.524 361.76 350.943 361.538L355.969 361.076C358.389 360.854 360.524 362.589 360.755 364.981C360.806 365.513 360.62 366.04 360.243 366.423C358.699 367.996 356.601 369.053 354.221 369.272Z" fill="#F8F8FA"/>
    </g>
    <g filter="url(#filter23_d_0_5)">
    <path d="M403.285 282.064C396.074 282.725 390.784 289.042 391.472 296.173C392.159 303.304 398.564 308.547 405.776 307.885C412.988 307.223 418.277 300.906 417.589 293.776C416.902 286.645 410.498 281.402 403.285 282.064ZM403.658 285.924C406.044 285.705 408.162 287.44 408.389 289.798C408.617 292.157 406.868 294.246 404.481 294.465C402.096 294.684 399.978 292.95 399.751 290.591C399.523 288.233 401.273 286.143 403.658 285.924ZM405.447 304.51C403.067 304.728 400.805 304.072 398.987 302.807C398.544 302.5 398.259 302.015 398.208 301.483C397.977 299.092 399.75 296.998 402.17 296.776L407.196 296.315C409.616 296.093 411.751 297.828 411.981 300.219C412.033 300.751 411.846 301.278 411.469 301.661C409.925 303.234 407.828 304.291 405.447 304.51Z" fill="#F8F8FA"/>
    </g>
    <g filter="url(#filter24_d_0_5)">
    <path d="M433.887 368.782C426.676 369.444 421.386 375.761 422.073 382.892C422.761 390.022 429.165 395.266 436.377 394.604C443.59 393.942 448.879 387.625 448.191 380.495C447.503 373.364 441.1 368.12 433.887 368.782ZM434.259 372.643C436.646 372.424 438.764 374.159 438.991 376.517C439.219 378.876 437.469 380.965 435.083 381.184C432.698 381.403 430.58 379.668 430.352 377.31C430.125 374.952 431.874 372.862 434.259 372.643ZM436.049 391.229C433.669 391.447 431.407 390.79 429.589 389.526C429.146 389.218 428.861 388.734 428.809 388.202C428.579 385.811 430.352 383.717 432.771 383.495L437.797 383.033C440.217 382.811 442.352 384.546 442.583 386.938C442.634 387.47 442.448 387.997 442.071 388.38C440.527 389.953 438.429 391.01 436.049 391.229Z" fill="#F8F8FA"/>
    </g>
    <g filter="url(#filter25_d_0_5)">
    <path d="M509.481 257.228C502.269 257.89 496.979 264.206 497.667 271.337C498.355 278.468 504.759 283.711 511.971 283.049C519.184 282.387 524.472 276.071 523.785 268.94C523.097 261.809 516.693 256.566 509.481 257.228ZM509.853 261.088C512.239 260.869 514.357 262.604 514.585 264.962C514.812 267.321 513.063 269.41 510.677 269.629C508.292 269.848 506.174 268.114 505.946 265.755C505.719 263.397 507.468 261.307 509.853 261.088ZM511.643 279.674C509.263 279.892 507 279.236 505.182 277.971C504.739 277.664 504.454 277.179 504.403 276.648C504.172 274.256 505.946 272.162 508.365 271.94L513.391 271.479C515.811 271.257 517.946 272.992 518.177 275.383C518.228 275.915 518.041 276.442 517.665 276.825C516.121 278.398 514.023 279.456 511.643 279.674Z" fill="#F8F8FA"/>
    </g>
    <g filter="url(#filter26_d_0_5)">
    <path d="M542.668 338.409C535.457 339.071 530.167 345.388 530.855 352.519C531.542 359.649 537.947 364.893 545.159 364.231C552.371 363.569 557.66 357.252 556.972 350.122C556.285 342.991 549.881 337.747 542.668 338.409ZM543.041 342.27C545.427 342.051 547.545 343.786 547.772 346.144C548 348.503 546.251 350.592 543.864 350.811C541.479 351.03 539.361 349.295 539.134 346.937C538.906 344.579 540.655 342.489 543.041 342.27ZM544.83 360.856C542.45 361.074 540.188 360.417 538.37 359.153C537.927 358.845 537.642 358.361 537.591 357.829C537.36 355.438 539.133 353.344 541.552 353.122L546.578 352.66C548.999 352.438 551.133 354.173 551.364 356.565C551.415 357.097 551.229 357.624 550.852 358.007C549.308 359.58 547.211 360.637 544.83 360.856Z" fill="#F8F8FA"/>
    </g>
    <g filter="url(#filter27_d_0_5)">
    <path d="M596.832 278.823C589.621 279.485 584.331 285.802 585.019 292.933C585.706 300.063 592.111 305.307 599.323 304.645C606.535 303.983 611.824 297.666 611.136 290.536C610.449 283.405 604.045 278.161 596.832 278.823ZM597.205 282.684C599.591 282.465 601.709 284.2 601.936 286.558C602.164 288.917 600.415 291.006 598.028 291.225C595.643 291.444 593.525 289.709 593.298 287.351C593.07 284.993 594.82 282.903 597.205 282.684ZM598.994 301.27C596.614 301.488 594.352 300.831 592.534 299.567C592.091 299.259 591.806 298.775 591.755 298.243C591.524 295.852 593.297 293.758 595.717 293.536L600.743 293.074C603.163 292.852 605.298 294.587 605.528 296.979C605.579 297.511 605.393 298.038 605.016 298.421C603.472 299.994 601.375 301.051 598.994 301.27Z" fill="#F8F8FA"/>
    </g>
    </g>
    <g opacity="0.4">
    <mask id="mask0_0_5" style="mask-type:alpha" maskUnits="userSpaceOnUse" x="400" y="345" width="363" height="363">
    <circle cx="581.473" cy="526.473" r="180.634" transform="rotate(-64.0442 581.473 526.473)" fill="#D9D9D9"/>
    </mask>
    <g mask="url(#mask0_0_5)">
    <g opacity="0.5">
    <path d="M485.984 576.106C487.839 578.564 491.344 579.085 493.812 577.27C496.28 575.455 496.777 571.992 494.922 569.534C493.067 567.077 489.562 566.556 487.093 568.371C484.625 570.186 484.128 573.649 485.984 576.106Z" fill="white"/>
    <path d="M704.796 497.431C706.651 499.888 710.156 500.409 712.625 498.594C715.093 496.779 715.59 493.316 713.734 490.859C711.879 488.401 708.374 487.88 705.906 489.695C703.438 491.51 702.941 494.973 704.796 497.431Z" fill="white"/>
    <path d="M563.943 496.131C565.116 497.684 567.331 498.013 568.89 496.866C570.45 495.719 570.764 493.531 569.592 491.978C568.419 490.425 566.204 490.096 564.644 491.243C563.085 492.389 562.771 494.578 563.943 496.131Z" fill="white"/>
    <path d="M471.217 620.838C472.389 622.391 474.604 622.72 476.164 621.573C477.724 620.426 478.038 618.238 476.865 616.685C475.693 615.132 473.478 614.803 471.918 615.95C470.358 617.096 470.044 619.285 471.217 620.838Z" fill="white"/>
    <path d="M442.217 588.402C443.389 589.955 445.604 590.285 447.164 589.138C448.724 587.991 449.038 585.802 447.865 584.249C446.693 582.696 444.478 582.367 442.918 583.514C441.358 584.661 441.044 586.85 442.217 588.402Z" fill="white"/>
    <path d="M607.349 484.396C608.522 485.949 610.737 486.278 612.297 485.131C613.856 483.984 614.17 481.795 612.998 480.242C611.825 478.69 609.611 478.36 608.051 479.507C606.491 480.654 606.177 482.843 607.349 484.396Z" fill="white"/>
    <path d="M537.006 523.836C538.178 525.389 540.393 525.718 541.953 524.571C543.513 523.424 543.827 521.236 542.654 519.683C541.482 518.13 539.267 517.801 537.707 518.948C536.147 520.095 535.833 522.283 537.006 523.836Z" fill="white"/>
    <path d="M518.185 671.873C519.358 673.426 521.573 673.755 523.133 672.608C524.692 671.462 525.006 669.273 523.834 667.72C522.661 666.167 520.446 665.838 518.887 666.985C517.327 668.132 517.013 670.32 518.185 671.873Z" fill="white"/>
    <path d="M600.279 659.724C601.452 661.277 603.667 661.606 605.226 660.459C606.786 659.312 607.1 657.124 605.928 655.571C604.755 654.018 602.54 653.688 600.98 654.835C599.421 655.982 599.107 658.171 600.279 659.724Z" fill="white"/>
    <path d="M539.357 631.356C540.53 632.909 542.745 633.238 544.304 632.091C545.864 630.944 546.178 628.755 545.006 627.202C543.833 625.65 541.618 625.32 540.059 626.467C538.499 627.614 538.185 629.803 539.357 631.356Z" fill="white"/>
    <path d="M616.412 549.851C617.584 551.404 619.799 551.733 621.359 550.586C622.919 549.439 623.233 547.25 622.06 545.698C620.888 544.145 618.673 543.815 617.113 544.962C615.553 546.109 615.239 548.298 616.412 549.851Z" fill="white"/>
    <path d="M738.607 534.847C739.78 536.4 741.995 536.729 743.554 535.582C745.114 534.435 745.428 532.247 744.256 530.694C743.083 529.141 740.868 528.812 739.309 529.958C737.749 531.105 737.435 533.294 738.607 534.847Z" fill="white"/>
    <path d="M557.951 452.862C559.123 454.415 561.338 454.745 562.898 453.598C564.458 452.451 564.772 450.262 563.6 448.709C562.427 447.156 560.212 446.827 558.652 447.974C557.093 449.121 556.779 451.31 557.951 452.862Z" fill="white"/>
    <path d="M604.443 364.515C605.616 366.068 607.831 366.397 609.39 365.25C610.95 364.103 611.264 361.915 610.092 360.362C608.919 358.809 606.704 358.48 605.144 359.626C603.585 360.773 603.271 362.962 604.443 364.515Z" fill="white"/>
    <path d="M477.599 382.939C478.772 384.492 480.987 384.821 482.547 383.674C484.106 382.527 484.42 380.338 483.248 378.785C482.075 377.233 479.861 376.903 478.301 378.05C476.741 379.197 476.427 381.386 477.599 382.939Z" fill="white"/>
    <path d="M591.441 579.584C592.126 580.491 593.419 580.683 594.33 580.014C595.241 579.344 595.425 578.066 594.74 577.159C594.055 576.252 592.762 576.06 591.851 576.729C590.94 577.399 590.756 578.677 591.441 579.584Z" fill="white"/>
    <path d="M622.98 572.743C623.665 573.65 624.958 573.842 625.869 573.173C626.78 572.503 626.964 571.225 626.279 570.318C625.594 569.411 624.301 569.219 623.39 569.889C622.479 570.558 622.295 571.836 622.98 572.743Z" fill="white"/>
    <path d="M564.886 540.062C565.571 540.969 566.865 541.161 567.776 540.491C568.686 539.821 568.87 538.543 568.185 537.636C567.5 536.729 566.207 536.537 565.296 537.207C564.385 537.877 564.202 539.155 564.886 540.062Z" fill="white"/>
    <path d="M511.683 616.834C512.368 617.741 513.662 617.933 514.572 617.264C515.483 616.594 515.667 615.316 514.982 614.409C514.297 613.502 513.004 613.31 512.093 613.979C511.182 614.649 510.999 615.927 511.683 616.834Z" fill="white"/>
    <path d="M523.863 597.783C524.548 598.69 525.841 598.883 526.752 598.213C527.663 597.543 527.846 596.265 527.162 595.358C526.477 594.451 525.183 594.259 524.273 594.929C523.362 595.598 523.178 596.876 523.863 597.783Z" fill="white"/>
    <path d="M547.371 611.162C548.056 612.069 549.349 612.261 550.26 611.592C551.171 610.922 551.354 609.644 550.67 608.737C549.985 607.83 548.691 607.638 547.78 608.307C546.869 608.977 546.686 610.255 547.371 611.162Z" fill="white"/>
    <path d="M446.386 696.838C447.071 697.745 448.365 697.937 449.276 697.267C450.186 696.598 450.37 695.32 449.685 694.413C449 693.506 447.707 693.313 446.796 693.983C445.885 694.653 445.702 695.931 446.386 696.838Z" fill="white"/>
    <path d="M658.675 472.223C659.36 473.13 660.654 473.322 661.565 472.652C662.476 471.982 662.659 470.704 661.974 469.797C661.289 468.89 659.996 468.698 659.085 469.368C658.174 470.038 657.991 471.316 658.675 472.223Z" fill="white"/>
    <path d="M685.472 427.037C686.157 427.944 687.451 428.136 688.361 427.467C689.272 426.797 689.456 425.519 688.771 424.612C688.086 423.705 686.793 423.513 685.882 424.182C684.971 424.852 684.788 426.13 685.472 427.037Z" fill="white"/>
    <path d="M631.433 604.975C632.118 605.882 633.412 606.074 634.322 605.404C635.233 604.734 635.417 603.456 634.732 602.549C634.047 601.642 632.754 601.45 631.843 602.12C630.932 602.79 630.749 604.068 631.433 604.975Z" fill="white"/>
    <path d="M430.082 369.247C430.766 370.154 432.06 370.346 432.971 369.677C433.882 369.007 434.065 367.729 433.38 366.822C432.696 365.915 431.402 365.723 430.491 366.392C429.58 367.062 429.397 368.34 430.082 369.247Z" fill="white"/>
    <path d="M485.316 372.942C486.001 373.848 487.294 374.041 488.205 373.371C489.116 372.701 489.3 371.423 488.615 370.516C487.93 369.609 486.637 369.417 485.726 370.087C484.815 370.757 484.631 372.035 485.316 372.942Z" fill="white"/>
    <path d="M588.089 398.794C588.774 399.701 590.068 399.893 590.979 399.223C591.89 398.554 592.073 397.276 591.388 396.369C590.704 395.462 589.41 395.27 588.499 395.939C587.588 396.609 587.405 397.887 588.089 398.794Z" fill="white"/>
    <path d="M624.535 415.038C625.22 415.945 626.513 416.137 627.424 415.468C628.335 414.798 628.518 413.52 627.834 412.613C627.149 411.706 625.855 411.514 624.944 412.183C624.033 412.853 623.85 414.131 624.535 415.038Z" fill="white"/>
    <path d="M584.136 514.468C584.821 515.375 586.115 515.567 587.026 514.897C587.937 514.228 588.12 512.949 587.435 512.042C586.75 511.136 585.457 510.943 584.546 511.613C583.635 512.283 583.452 513.561 584.136 514.468Z" fill="white"/>
    <path d="M534.379 377.417C535.063 378.324 536.357 378.516 537.268 377.847C538.179 377.177 538.362 375.899 537.677 374.992C536.993 374.085 535.699 373.893 534.788 374.562C533.877 375.232 533.694 376.51 534.379 377.417Z" fill="white"/>
    <path d="M541.839 348.796C542.524 349.703 543.818 349.895 544.729 349.225C545.64 348.556 545.823 347.278 545.138 346.371C544.454 345.464 543.16 345.271 542.249 345.941C541.338 346.611 541.155 347.889 541.839 348.796Z" fill="white"/>
    <path d="M530.379 476.149C531.063 477.056 532.357 477.248 533.268 476.578C534.179 475.908 534.362 474.63 533.677 473.723C532.993 472.816 531.699 472.624 530.788 473.294C529.877 473.964 529.694 475.242 530.379 476.149Z" fill="white"/>
    <path d="M481.425 480.688C482.11 481.595 483.404 481.787 484.315 481.117C485.226 480.447 485.409 479.169 484.724 478.262C484.039 477.355 482.746 477.163 481.835 477.833C480.924 478.503 480.741 479.781 481.425 480.688Z" fill="white"/>
    <path d="M652.918 566.672C653.602 567.579 654.896 567.771 655.807 567.101C656.718 566.432 656.901 565.153 656.216 564.247C655.532 563.34 654.238 563.147 653.327 563.817C652.416 564.487 652.233 565.765 652.918 566.672Z" fill="white"/>
    <path d="M594.16 607.459C594.845 608.366 596.138 608.558 597.049 607.889C597.96 607.219 598.143 605.941 597.459 605.034C596.774 604.127 595.48 603.935 594.569 604.604C593.658 605.274 593.475 606.552 594.16 607.459Z" fill="white"/>
    <path d="M648.347 488.214C649.032 489.121 650.326 489.313 651.237 488.643C652.147 487.974 652.331 486.696 651.646 485.789C650.961 484.882 649.668 484.689 648.757 485.359C647.846 486.029 647.663 487.307 648.347 488.214Z" fill="white"/>
    <path d="M667.879 456.375C668.563 457.282 669.857 457.474 670.768 456.805C671.679 456.135 671.862 454.857 671.177 453.95C670.493 453.043 669.199 452.851 668.288 453.52C667.377 454.19 667.194 455.468 667.879 456.375Z" fill="white"/>
    <path d="M757.652 557.28C758.337 558.187 759.63 558.38 760.541 557.71C761.452 557.04 761.635 555.762 760.951 554.855C760.266 553.948 758.972 553.756 758.062 554.426C757.151 555.095 756.967 556.374 757.652 557.28Z" fill="white"/>
    <path d="M713.09 577.063C713.774 577.97 715.068 578.162 715.979 577.492C716.89 576.822 717.073 575.544 716.388 574.637C715.704 573.73 714.41 573.538 713.499 574.208C712.588 574.878 712.405 576.156 713.09 577.063Z" fill="white"/>
    <path d="M752.394 511.094C753.079 512.001 754.372 512.193 755.283 511.523C756.194 510.854 756.378 509.575 755.693 508.668C755.008 507.762 753.715 507.569 752.804 508.239C751.893 508.909 751.709 510.187 752.394 511.094Z" fill="white"/>
    <path d="M522.629 669.358L447.194 696.718L444.711 584.131L489.307 572.813L522.629 669.358Z" stroke="white" stroke-width="0.265176" stroke-miterlimit="10"/>
    <path d="M489.313 572.813L548.18 611.038L592.281 579.5L603.306 659.088L522.634 669.358L547.034 621.193L565.614 539.387L482.642 479.39L489.313 572.813Z" stroke="white" stroke-width="0.265176" stroke-miterlimit="10"/>
    <path d="M444.755 586.083L520.467 669.636" stroke="white" stroke-width="0.265176" stroke-miterlimit="10"/>
    <path d="M449.053 693.661L487.977 576.243" stroke="white" stroke-width="0.265176" stroke-miterlimit="10"/>
    <path d="M538.281 523.108L491.806 570.238L563.47 540.508L512.956 615.423L600.694 656.852L549.848 609.846L595.974 606.176" stroke="white" stroke-width="0.265176" stroke-miterlimit="10"/>
    <path d="M604.843 656.325L654.693 565.303L618.729 548.431L593.853 576.951L650.848 566.353" stroke="white" stroke-width="0.265176" stroke-miterlimit="10"/>
    <path d="M597.696 606.426L633.311 604.342L619.75 551.682L609.741 483.529L567.31 494.01L531.19 476.029L482.638 479.39" stroke="white" stroke-width="0.265176" stroke-miterlimit="10"/>
    <path d="M492.555 575.66L512.955 615.422L523.175 666.719" stroke="white" stroke-width="0.265176" stroke-miterlimit="10"/>
    <path d="M486.797 480.555L567.314 494.011L541.896 520.389" stroke="white" stroke-width="0.265176" stroke-miterlimit="10"/>
    <path d="M567.588 496L566.662 538.687L618.018 547.39L585.991 513.645L609.346 484.74" stroke="white" stroke-width="0.265176" stroke-miterlimit="10"/>
    <path d="M569.372 496.569C570.088 497.61 585.017 513.149 585.017 513.149L567.628 537.437" stroke="white" stroke-width="0.265176" stroke-miterlimit="10"/>
    <path d="M613.546 461.455L561.506 451.939L608.987 481.99C609.944 480.67 625.825 414.296 625.825 414.296L561.492 451.949L567.004 491.743" stroke="white" stroke-width="0.265176" stroke-miterlimit="10"/>
    <path d="M566.991 479.372C568.121 479.241 608.963 482.003 608.963 482.003" stroke="white" stroke-width="0.265176" stroke-miterlimit="10"/>
    <path d="M563.984 478.054L532.752 474.69L560.066 449.772L536.964 377.624L531.361 473.173L480.315 379.522L535.159 376.937L487.11 371.553L513.591 340.524L534.882 374.922L551.685 319.301L607.961 363.504L539.052 376.229L625.645 412.959L608.191 365.168" stroke="white" stroke-width="0.265176" stroke-miterlimit="10"/>
    <path d="M561.246 450.063L607.555 364.682" stroke="white" stroke-width="0.265176" stroke-miterlimit="10"/>
    <path d="M627.174 414.12L687.167 425.113L659.809 470.366L627.368 415.523L668.377 454.034L709.091 492.88L661.003 470.776L650.199 487.395L709.247 494.018L687.879 426.15" stroke="white" stroke-width="0.265176" stroke-miterlimit="10"/>
    <path d="M649.001 486.982L610.172 482.334L659.323 470.99L615.32 461.918" stroke="white" stroke-width="0.265176" stroke-miterlimit="10"/>
    <path d="M708.843 495.171C708.918 495.726 714.381 576.316 714.381 576.316L656.4 565.075L707.171 495.386L620.434 548.191L649.176 488.081" stroke="white" stroke-width="0.265176" stroke-miterlimit="10"/>
    <path d="M710.52 494.958C712.274 495.299 754.25 510.276 754.25 510.276L715.251 576.206L759.426 555.907L710.025 495.596" stroke="white" stroke-width="0.265176" stroke-miterlimit="10"/>
    <path d="M549.187 319.605L497.931 276.903C497.931 276.903 450.613 248.028 450.753 248.855C450.893 249.683 441.587 293.781 441.587 293.781L496.441 278.328L471.179 313.456L440.216 296.209L431.589 365.611L470.168 314.975L513.603 340.494L432.939 367.137L484.881 371.813L479.008 378.769L433.73 368.725" stroke="white" stroke-width="0.265176" stroke-miterlimit="10"/>
    <path d="M549.411 321.128L515.326 340.299L604.952 362.757" stroke="white" stroke-width="0.265176" stroke-miterlimit="10"/>
    <path d="M452.266 248.673L554.512 257.409L499.192 275.577L498.401 197.946L606.581 229.025L607.01 360.746L557.272 258.794L605.437 230.041L553.772 317.906" stroke="white" stroke-width="0.265176" stroke-miterlimit="10"/>
    </g>
    <path d="M1249.03 -745.686C1430.57 -1076.01 1657.95 -1271.72 1834.39 -1217.2C2081.54 -1140.82 2135.16 -602.309 1954.15 -14.3789C1773.14 573.551 1425.87 988.17 1178.71 911.805C1002.19 857.257 924.405 566.997 960.309 191.373" stroke="white" stroke-width="1.48437" stroke-miterlimit="10" stroke-linecap="round"/>
    <path d="M1334.2 -775.534C1484.48 -1010.44 1659.05 -1142.16 1798.05 -1099.21C2017.82 -1031.31 2065.47 -552.48 1904.49 -29.7342C1743.51 493.012 1434.83 861.728 1215.06 793.82C1076.04 750.863 1005.91 543.491 1013.86 264.553" stroke="white" stroke-width="1.48437" stroke-miterlimit="10" stroke-linecap="round"/>
    </g>
    </g>
    <defs>
    <filter id="filter0_d_0_5" x="58.1771" y="694.421" width="30.4104" height="30.3729" filterUnits="userSpaceOnUse" color-interpolation-filters="sRGB">
    <feFlood flood-opacity="0" result="BackgroundImageFix"/>
    <feColorMatrix in="SourceAlpha" type="matrix" values="0 0 0 0 0 0 0 0 0 0 0 0 0 0 0 0 0 0 127 0" result="hardAlpha"/>
    <feOffset/>
    <feGaussianBlur stdDeviation="6.91146"/>
    <feComposite in2="hardAlpha" operator="out"/>
    <feColorMatrix type="matrix" values="0 0 0 0 1 0 0 0 0 1 0 0 0 0 1 0 0 0 1 0"/>
    <feBlend mode="normal" in2="BackgroundImageFix" result="effect1_dropShadow_0_5"/>
    <feBlend mode="normal" in="SourceGraphic" in2="effect1_dropShadow_0_5" result="shape"/>
    </filter>
    <filter id="filter1_f_0_5" x="0.541626" y="0.541626" width="1078.19" height="1078.19" filterUnits="userSpaceOnUse" color-interpolation-filters="sRGB">
    <feFlood flood-opacity="0" result="BackgroundImageFix"/>
    <feBlend mode="normal" in="SourceGraphic" in2="BackgroundImageFix" result="shape"/>
    <feGaussianBlur stdDeviation="138.229" result="effect1_foregroundBlur_0_5"/>
    </filter>
    <filter id="filter2_i_0_5" x="106.617" y="371.979" width="866.698" height="383.266" filterUnits="userSpaceOnUse" color-interpolation-filters="sRGB">
    <feFlood flood-opacity="0" result="BackgroundImageFix"/>
    <feBlend mode="normal" in="SourceGraphic" in2="BackgroundImageFix" result="shape"/>
    <feColorMatrix in="SourceAlpha" type="matrix" values="0 0 0 0 0 0 0 0 0 0 0 0 0 0 0 0 0 0 127 0" result="hardAlpha"/>
    <feOffset dy="5.52917"/>
    <feGaussianBlur stdDeviation="2.76458"/>
    <feComposite in2="hardAlpha" operator="arithmetic" k2="-1" k3="1"/>
    <feColorMatrix type="matrix" values="0 0 0 0 0 0 0 0 0 0 0 0 0 0 0 0 0 0 0.25 0"/>
    <feBlend mode="normal" in2="shape" result="effect1_innerShadow_0_5"/>
    </filter>
    <filter id="filter3_i_0_5" x="160.493" y="397.775" width="764.476" height="335.381" filterUnits="userSpaceOnUse" color-interpolation-filters="sRGB">
    <feFlood flood-opacity="0" result="BackgroundImageFix"/>
    <feBlend mode="normal" in="SourceGraphic" in2="BackgroundImageFix" result="shape"/>
    <feColorMatrix in="SourceAlpha" type="matrix" values="0 0 0 0 0 0 0 0 0 0 0 0 0 0 0 0 0 0 127 0" result="hardAlpha"/>
    <feOffset dy="5.52917"/>
    <feGaussianBlur stdDeviation="2.76458"/>
    <feComposite in2="hardAlpha" operator="arithmetic" k2="-1" k3="1"/>
    <feColorMatrix type="matrix" values="0 0 0 0 0 0 0 0 0 0 0 0 0 0 0 0 0 0 0.25 0"/>
    <feBlend mode="normal" in2="shape" result="effect1_innerShadow_0_5"/>
    </filter>
    <filter id="filter4_i_0_5" x="225.617" y="433.094" width="627.765" height="268.712" filterUnits="userSpaceOnUse" color-interpolation-filters="sRGB">
    <feFlood flood-opacity="0" result="BackgroundImageFix"/>
    <feBlend mode="normal" in="SourceGraphic" in2="BackgroundImageFix" result="shape"/>
    <feColorMatrix in="SourceAlpha" type="matrix" values="0 0 0 0 0 0 0 0 0 0 0 0 0 0 0 0 0 0 127 0" result="hardAlpha"/>
    <feOffset dy="5.52917"/>
    <feGaussianBlur stdDeviation="2.76458"/>
    <feComposite in2="hardAlpha" operator="arithmetic" k2="-1" k3="1"/>
    <feColorMatrix type="matrix" values="0 0 0 0 0 0 0 0 0 0 0 0 0 0 0 0 0 0 0.25 0"/>
    <feBlend mode="normal" in2="shape" result="effect1_innerShadow_0_5"/>
    </filter>
    <filter id="filter5_i_0_5" x="282.969" y="479.131" width="515.385" height="198.959" filterUnits="userSpaceOnUse" color-interpolation-filters="sRGB">
    <feFlood flood-opacity="0" result="BackgroundImageFix"/>
    <feBlend mode="normal" in="SourceGraphic" in2="BackgroundImageFix" result="shape"/>
    <feColorMatrix in="SourceAlpha" type="matrix" values="0 0 0 0 0 0 0 0 0 0 0 0 0 0 0 0 0 0 127 0" result="hardAlpha"/>
    <feOffset dy="5.52917"/>
    <feGaussianBlur stdDeviation="2.76458"/>
    <feComposite in2="hardAlpha" operator="arithmetic" k2="-1" k3="1"/>
    <feColorMatrix type="matrix" values="0 0 0 0 0 0 0 0 0 0 0 0 0 0 0 0 0 0 0.25 0"/>
    <feBlend mode="normal" in2="shape" result="effect1_innerShadow_0_5"/>
    </filter>
    <filter id="filter6_d_0_5" x="322.255" y="673.15" width="33.175" height="33.1" filterUnits="userSpaceOnUse" color-interpolation-filters="sRGB">
    <feFlood flood-opacity="0" result="BackgroundImageFix"/>
    <feColorMatrix in="SourceAlpha" type="matrix" values="0 0 0 0 0 0 0 0 0 0 0 0 0 0 0 0 0 0 127 0" result="hardAlpha"/>
    <feOffset/>
    <feGaussianBlur stdDeviation="6.91146"/>
    <feComposite in2="hardAlpha" operator="out"/>
    <feColorMatrix type="matrix" values="0 0 0 0 1 0 0 0 0 1 0 0 0 0 1 0 0 0 1 0"/>
    <feBlend mode="normal" in2="BackgroundImageFix" result="effect1_dropShadow_0_5"/>
    <feBlend mode="normal" in="SourceGraphic" in2="effect1_dropShadow_0_5" result="shape"/>
    </filter>
    <filter id="filter7_d_0_5" x="170.201" y="692.24" width="31.7927" height="31.7364" filterUnits="userSpaceOnUse" color-interpolation-filters="sRGB">
    <feFlood flood-opacity="0" result="BackgroundImageFix"/>
    <feColorMatrix in="SourceAlpha" type="matrix" values="0 0 0 0 0 0 0 0 0 0 0 0 0 0 0 0 0 0 127 0" result="hardAlpha"/>
    <feOffset/>
    <feGaussianBlur stdDeviation="6.91146"/>
    <feComposite in2="hardAlpha" operator="out"/>
    <feColorMatrix type="matrix" values="0 0 0 0 1 0 0 0 0 1 0 0 0 0 1 0 0 0 1 0"/>
    <feBlend mode="normal" in2="BackgroundImageFix" result="effect1_dropShadow_0_5"/>
    <feBlend mode="normal" in="SourceGraphic" in2="effect1_dropShadow_0_5" result="shape"/>
    </filter>
    <filter id="filter8_d_0_5" x="179.88" y="524.525" width="30.4104" height="30.3729" filterUnits="userSpaceOnUse" color-interpolation-filters="sRGB">
    <feFlood flood-opacity="0" result="BackgroundImageFix"/>
    <feColorMatrix in="SourceAlpha" type="matrix" values="0 0 0 0 0 0 0 0 0 0 0 0 0 0 0 0 0 0 127 0" result="hardAlpha"/>
    <feOffset/>
    <feGaussianBlur stdDeviation="6.91146"/>
    <feComposite in2="hardAlpha" operator="out"/>
    <feColorMatrix type="matrix" values="0 0 0 0 1 0 0 0 0 1 0 0 0 0 1 0 0 0 1 0"/>
    <feBlend mode="normal" in2="BackgroundImageFix" result="effect1_dropShadow_0_5"/>
    <feBlend mode="normal" in="SourceGraphic" in2="effect1_dropShadow_0_5" result="shape"/>
    </filter>
    <filter id="filter9_d_0_5" x="905.583" y="521.798" width="30.4104" height="30.3729" filterUnits="userSpaceOnUse" color-interpolation-filters="sRGB">
    <feFlood flood-opacity="0" result="BackgroundImageFix"/>
    <feColorMatrix in="SourceAlpha" type="matrix" values="0 0 0 0 0 0 0 0 0 0 0 0 0 0 0 0 0 0 127 0" result="hardAlpha"/>
    <feOffset/>
    <feGaussianBlur stdDeviation="6.91146"/>
    <feComposite in2="hardAlpha" operator="out"/>
    <feColorMatrix type="matrix" values="0 0 0 0 1 0 0 0 0 1 0 0 0 0 1 0 0 0 1 0"/>
    <feBlend mode="normal" in2="BackgroundImageFix" result="effect1_dropShadow_0_5"/>
    <feBlend mode="normal" in="SourceGraphic" in2="effect1_dropShadow_0_5" result="shape"/>
    </filter>
    <filter id="filter10_d_0_5" x="213.052" y="587.247" width="30.4104" height="30.3729" filterUnits="userSpaceOnUse" color-interpolation-filters="sRGB">
    <feFlood flood-opacity="0" result="BackgroundImageFix"/>
    <feColorMatrix in="SourceAlpha" type="matrix" values="0 0 0 0 0 0 0 0 0 0 0 0 0 0 0 0 0 0 127 0" result="hardAlpha"/>
    <feOffset/>
    <feGaussianBlur stdDeviation="6.91146"/>
    <feComposite in2="hardAlpha" operator="out"/>
    <feColorMatrix type="matrix" values="0 0 0 0 1 0 0 0 0 1 0 0 0 0 1 0 0 0 1 0"/>
    <feBlend mode="normal" in2="BackgroundImageFix" result="effect1_dropShadow_0_5"/>
    <feBlend mode="normal" in="SourceGraphic" in2="effect1_dropShadow_0_5" result="shape"/>
    </filter>
    <filter id="filter11_d_0_5" x="747.997" y="611.792" width="30.4104" height="30.3729" filterUnits="userSpaceOnUse" color-interpolation-filters="sRGB">
    <feFlood flood-opacity="0" result="BackgroundImageFix"/>
    <feColorMatrix in="SourceAlpha" type="matrix" values="0 0 0 0 0 0 0 0 0 0 0 0 0 0 0 0 0 0 127 0" result="hardAlpha"/>
    <feOffset/>
    <feGaussianBlur stdDeviation="6.91146"/>
    <feComposite in2="hardAlpha" operator="out"/>
    <feColorMatrix type="matrix" values="0 0 0 0 1 0 0 0 0 1 0 0 0 0 1 0 0 0 1 0"/>
    <feBlend mode="normal" in2="BackgroundImageFix" result="effect1_dropShadow_0_5"/>
    <feBlend mode="normal" in="SourceGraphic" in2="effect1_dropShadow_0_5" result="shape"/>
    </filter>
    <filter id="filter12_d_0_5" x="777.029" y="393.626" width="30.4104" height="30.3729" filterUnits="userSpaceOnUse" color-interpolation-filters="sRGB">
    <feFlood flood-opacity="0" result="BackgroundImageFix"/>
    <feColorMatrix in="SourceAlpha" type="matrix" values="0 0 0 0 0 0 0 0 0 0 0 0 0 0 0 0 0 0 127 0" result="hardAlpha"/>
    <feOffset/>
    <feGaussianBlur stdDeviation="6.91146"/>
    <feComposite in2="hardAlpha" operator="out"/>
    <feColorMatrix type="matrix" values="0 0 0 0 1 0 0 0 0 1 0 0 0 0 1 0 0 0 1 0"/>
    <feBlend mode="normal" in2="BackgroundImageFix" result="effect1_dropShadow_0_5"/>
    <feBlend mode="normal" in="SourceGraphic" in2="effect1_dropShadow_0_5" result="shape"/>
    </filter>
    <filter id="filter13_d_0_5" x="809.177" y="247.124" width="30.4104" height="30.3729" filterUnits="userSpaceOnUse" color-interpolation-filters="sRGB">
    <feFlood flood-opacity="0" result="BackgroundImageFix"/>
    <feColorMatrix in="SourceAlpha" type="matrix" values="0 0 0 0 0 0 0 0 0 0 0 0 0 0 0 0 0 0 127 0" result="hardAlpha"/>
    <feOffset/>
    <feGaussianBlur stdDeviation="6.91146"/>
    <feComposite in2="hardAlpha" operator="out"/>
    <feColorMatrix type="matrix" values="0 0 0 0 1 0 0 0 0 1 0 0 0 0 1 0 0 0 1 0"/>
    <feBlend mode="normal" in2="BackgroundImageFix" result="effect1_dropShadow_0_5"/>
    <feBlend mode="normal" in="SourceGraphic" in2="effect1_dropShadow_0_5" result="shape"/>
    </filter>
    <filter id="filter14_d_0_5" x="424.544" y="656.788" width="30.4104" height="30.3729" filterUnits="userSpaceOnUse" color-interpolation-filters="sRGB">
    <feFlood flood-opacity="0" result="BackgroundImageFix"/>
    <feColorMatrix in="SourceAlpha" type="matrix" values="0 0 0 0 0 0 0 0 0 0 0 0 0 0 0 0 0 0 127 0" result="hardAlpha"/>
    <feOffset/>
    <feGaussianBlur stdDeviation="6.91146"/>
    <feComposite in2="hardAlpha" operator="out"/>
    <feColorMatrix type="matrix" values="0 0 0 0 1 0 0 0 0 1 0 0 0 0 1 0 0 0 1 0"/>
    <feBlend mode="normal" in2="BackgroundImageFix" result="effect1_dropShadow_0_5"/>
    <feBlend mode="normal" in="SourceGraphic" in2="effect1_dropShadow_0_5" result="shape"/>
    </filter>
    <filter id="filter15_d_0_5" x="695.474" y="358.175" width="30.4104" height="30.3729" filterUnits="userSpaceOnUse" color-interpolation-filters="sRGB">
    <feFlood flood-opacity="0" result="BackgroundImageFix"/>
    <feColorMatrix in="SourceAlpha" type="matrix" values="0 0 0 0 0 0 0 0 0 0 0 0 0 0 0 0 0 0 127 0" result="hardAlpha"/>
    <feOffset/>
    <feGaussianBlur stdDeviation="6.91146"/>
    <feComposite in2="hardAlpha" operator="out"/>
    <feColorMatrix type="matrix" values="0 0 0 0 1 0 0 0 0 1 0 0 0 0 1 0 0 0 1 0"/>
    <feBlend mode="normal" in2="BackgroundImageFix" result="effect1_dropShadow_0_5"/>
    <feBlend mode="normal" in="SourceGraphic" in2="effect1_dropShadow_0_5" result="shape"/>
    </filter>
    <filter id="filter16_d_0_5" x="506.099" y="704.511" width="33.175" height="33.1" filterUnits="userSpaceOnUse" color-interpolation-filters="sRGB">
    <feFlood flood-opacity="0" result="BackgroundImageFix"/>
    <feColorMatrix in="SourceAlpha" type="matrix" values="0 0 0 0 0 0 0 0 0 0 0 0 0 0 0 0 0 0 127 0" result="hardAlpha"/>
    <feOffset/>
    <feGaussianBlur stdDeviation="6.91146"/>
    <feComposite in2="hardAlpha" operator="out"/>
    <feColorMatrix type="matrix" values="0 0 0 0 1 0 0 0 0 1 0 0 0 0 1 0 0 0 1 0"/>
    <feBlend mode="normal" in2="BackgroundImageFix" result="effect1_dropShadow_0_5"/>
    <feBlend mode="normal" in="SourceGraphic" in2="effect1_dropShadow_0_5" result="shape"/>
    </filter>
    <filter id="filter17_d_0_5" x="858.583" y="388.171" width="33.175" height="33.1" filterUnits="userSpaceOnUse" color-interpolation-filters="sRGB">
    <feFlood flood-opacity="0" result="BackgroundImageFix"/>
    <feColorMatrix in="SourceAlpha" type="matrix" values="0 0 0 0 0 0 0 0 0 0 0 0 0 0 0 0 0 0 127 0" result="hardAlpha"/>
    <feOffset/>
    <feGaussianBlur stdDeviation="6.91146"/>
    <feComposite in2="hardAlpha" operator="out"/>
    <feColorMatrix type="matrix" values="0 0 0 0 1 0 0 0 0 1 0 0 0 0 1 0 0 0 1 0"/>
    <feBlend mode="normal" in2="BackgroundImageFix" result="effect1_dropShadow_0_5"/>
    <feBlend mode="normal" in="SourceGraphic" in2="effect1_dropShadow_0_5" result="shape"/>
    </filter>
    <filter id="filter18_d_0_5" x="779.794" y="520.435" width="33.175" height="33.1" filterUnits="userSpaceOnUse" color-interpolation-filters="sRGB">
    <feFlood flood-opacity="0" result="BackgroundImageFix"/>
    <feColorMatrix in="SourceAlpha" type="matrix" values="0 0 0 0 0 0 0 0 0 0 0 0 0 0 0 0 0 0 127 0" result="hardAlpha"/>
    <feOffset/>
    <feGaussianBlur stdDeviation="6.91146"/>
    <feComposite in2="hardAlpha" operator="out"/>
    <feColorMatrix type="matrix" values="0 0 0 0 1 0 0 0 0 1 0 0 0 0 1 0 0 0 1 0"/>
    <feBlend mode="normal" in2="BackgroundImageFix" result="effect1_dropShadow_0_5"/>
    <feBlend mode="normal" in="SourceGraphic" in2="effect1_dropShadow_0_5" result="shape"/>
    </filter>
    <filter id="filter19_d_0_5" x="94.1771" y="579.068" width="33.175" height="33.1" filterUnits="userSpaceOnUse" color-interpolation-filters="sRGB">
    <feFlood flood-opacity="0" result="BackgroundImageFix"/>
    <feColorMatrix in="SourceAlpha" type="matrix" values="0 0 0 0 0 0 0 0 0 0 0 0 0 0 0 0 0 0 127 0" result="hardAlpha"/>
    <feOffset/>
    <feGaussianBlur stdDeviation="6.91146"/>
    <feComposite in2="hardAlpha" operator="out"/>
    <feColorMatrix type="matrix" values="0 0 0 0 1 0 0 0 0 1 0 0 0 0 1 0 0 0 1 0"/>
    <feBlend mode="normal" in2="BackgroundImageFix" result="effect1_dropShadow_0_5"/>
    <feBlend mode="normal" in="SourceGraphic" in2="effect1_dropShadow_0_5" result="shape"/>
    </filter>
    <filter id="filter20_d_0_5" x="862.732" y="613.156" width="33.175" height="33.1" filterUnits="userSpaceOnUse" color-interpolation-filters="sRGB">
    <feFlood flood-opacity="0" result="BackgroundImageFix"/>
    <feColorMatrix in="SourceAlpha" type="matrix" values="0 0 0 0 0 0 0 0 0 0 0 0 0 0 0 0 0 0 127 0" result="hardAlpha"/>
    <feOffset/>
    <feGaussianBlur stdDeviation="6.91146"/>
    <feComposite in2="hardAlpha" operator="out"/>
    <feColorMatrix type="matrix" values="0 0 0 0 1 0 0 0 0 1 0 0 0 0 1 0 0 0 1 0"/>
    <feBlend mode="normal" in2="BackgroundImageFix" result="effect1_dropShadow_0_5"/>
    <feBlend mode="normal" in="SourceGraphic" in2="effect1_dropShadow_0_5" result="shape"/>
    </filter>
    <filter id="filter21_d_0_5" x="246.232" y="441.349" width="33.175" height="33.1" filterUnits="userSpaceOnUse" color-interpolation-filters="sRGB">
    <feFlood flood-opacity="0" result="BackgroundImageFix"/>
    <feColorMatrix in="SourceAlpha" type="matrix" values="0 0 0 0 0 0 0 0 0 0 0 0 0 0 0 0 0 0 127 0" result="hardAlpha"/>
    <feOffset/>
    <feGaussianBlur stdDeviation="6.91146"/>
    <feComposite in2="hardAlpha" operator="out"/>
    <feColorMatrix type="matrix" values="0 0 0 0 1 0 0 0 0 1 0 0 0 0 1 0 0 0 1 0"/>
    <feBlend mode="normal" in2="BackgroundImageFix" result="effect1_dropShadow_0_5"/>
    <feBlend mode="normal" in="SourceGraphic" in2="effect1_dropShadow_0_5" result="shape"/>
    </filter>
    <filter id="filter22_d_0_5" x="331.431" y="338.015" width="43.7464" height="43.4429" filterUnits="userSpaceOnUse" color-interpolation-filters="sRGB">
    <feFlood flood-opacity="0" result="BackgroundImageFix"/>
    <feColorMatrix in="SourceAlpha" type="matrix" values="0 0 0 0 0 0 0 0 0 0 0 0 0 0 0 0 0 0 127 0" result="hardAlpha"/>
    <feOffset/>
    <feGaussianBlur stdDeviation="4.37711"/>
    <feComposite in2="hardAlpha" operator="out"/>
    <feColorMatrix type="matrix" values="0 0 0 0 1 0 0 0 0 1 0 0 0 0 1 0 0 0 0.4 0"/>
    <feBlend mode="normal" in2="BackgroundImageFix" result="effect1_dropShadow_0_5"/>
    <feBlend mode="normal" in="SourceGraphic" in2="effect1_dropShadow_0_5" result="shape"/>
    </filter>
    <filter id="filter23_d_0_5" x="382.657" y="273.253" width="43.7464" height="43.4429" filterUnits="userSpaceOnUse" color-interpolation-filters="sRGB">
    <feFlood flood-opacity="0" result="BackgroundImageFix"/>
    <feColorMatrix in="SourceAlpha" type="matrix" values="0 0 0 0 0 0 0 0 0 0 0 0 0 0 0 0 0 0 127 0" result="hardAlpha"/>
    <feOffset/>
    <feGaussianBlur stdDeviation="4.37711"/>
    <feComposite in2="hardAlpha" operator="out"/>
    <feColorMatrix type="matrix" values="0 0 0 0 1 0 0 0 0 1 0 0 0 0 1 0 0 0 0.4 0"/>
    <feBlend mode="normal" in2="BackgroundImageFix" result="effect1_dropShadow_0_5"/>
    <feBlend mode="normal" in="SourceGraphic" in2="effect1_dropShadow_0_5" result="shape"/>
    </filter>
    <filter id="filter24_d_0_5" x="413.259" y="359.972" width="43.7464" height="43.4429" filterUnits="userSpaceOnUse" color-interpolation-filters="sRGB">
    <feFlood flood-opacity="0" result="BackgroundImageFix"/>
    <feColorMatrix in="SourceAlpha" type="matrix" values="0 0 0 0 0 0 0 0 0 0 0 0 0 0 0 0 0 0 127 0" result="hardAlpha"/>
    <feOffset/>
    <feGaussianBlur stdDeviation="4.37711"/>
    <feComposite in2="hardAlpha" operator="out"/>
    <feColorMatrix type="matrix" values="0 0 0 0 1 0 0 0 0 1 0 0 0 0 1 0 0 0 0.4 0"/>
    <feBlend mode="normal" in2="BackgroundImageFix" result="effect1_dropShadow_0_5"/>
    <feBlend mode="normal" in="SourceGraphic" in2="effect1_dropShadow_0_5" result="shape"/>
    </filter>
    <filter id="filter25_d_0_5" x="488.853" y="248.417" width="43.7464" height="43.4429" filterUnits="userSpaceOnUse" color-interpolation-filters="sRGB">
    <feFlood flood-opacity="0" result="BackgroundImageFix"/>
    <feColorMatrix in="SourceAlpha" type="matrix" values="0 0 0 0 0 0 0 0 0 0 0 0 0 0 0 0 0 0 127 0" result="hardAlpha"/>
    <feOffset/>
    <feGaussianBlur stdDeviation="4.37711"/>
    <feComposite in2="hardAlpha" operator="out"/>
    <feColorMatrix type="matrix" values="0 0 0 0 1 0 0 0 0 1 0 0 0 0 1 0 0 0 0.4 0"/>
    <feBlend mode="normal" in2="BackgroundImageFix" result="effect1_dropShadow_0_5"/>
    <feBlend mode="normal" in="SourceGraphic" in2="effect1_dropShadow_0_5" result="shape"/>
    </filter>
    <filter id="filter26_d_0_5" x="522.04" y="329.599" width="43.7464" height="43.4429" filterUnits="userSpaceOnUse" color-interpolation-filters="sRGB">
    <feFlood flood-opacity="0" result="BackgroundImageFix"/>
    <feColorMatrix in="SourceAlpha" type="matrix" values="0 0 0 0 0 0 0 0 0 0 0 0 0 0 0 0 0 0 127 0" result="hardAlpha"/>
    <feOffset/>
    <feGaussianBlur stdDeviation="4.37711"/>
    <feComposite in2="hardAlpha" operator="out"/>
    <feColorMatrix type="matrix" values="0 0 0 0 1 0 0 0 0 1 0 0 0 0 1 0 0 0 0.4 0"/>
    <feBlend mode="normal" in2="BackgroundImageFix" result="effect1_dropShadow_0_5"/>
    <feBlend mode="normal" in="SourceGraphic" in2="effect1_dropShadow_0_5" result="shape"/>
    </filter>
    <filter id="filter27_d_0_5" x="576.204" y="270.013" width="43.7464" height="43.4429" filterUnits="userSpaceOnUse" color-interpolation-filters="sRGB">
    <feFlood flood-opacity="0" result="BackgroundImageFix"/>
    <feColorMatrix in="SourceAlpha" type="matrix" values="0 0 0 0 0 0 0 0 0 0 0 0 0 0 0 0 0 0 127 0" result="hardAlpha"/>
    <feOffset/>
    <feGaussianBlur stdDeviation="4.37711"/>
    <feComposite in2="hardAlpha" operator="out"/>
    <feColorMatrix type="matrix" values="0 0 0 0 1 0 0 0 0 1 0 0 0 0 1 0 0 0 0.4 0"/>
    <feBlend mode="normal" in2="BackgroundImageFix" result="effect1_dropShadow_0_5"/>
    <feBlend mode="normal" in="SourceGraphic" in2="effect1_dropShadow_0_5" result="shape"/>
    </filter>
    <linearGradient id="paint0_linear_0_5" x1="285.436" y1="289.429" x2="764.811" y2="777.677" gradientUnits="userSpaceOnUse">
    <stop stop-color="#DECFFA"/>
    <stop offset="0.03" stop-color="#C9C0FB"/>
    <stop offset="0.12" stop-color="#949BFC"/>
    <stop offset="0.2" stop-color="#6B7DFD"/>
    <stop offset="0.27" stop-color="#4D68FE"/>
    <stop offset="0.34" stop-color="#3B5BFF"/>
    <stop offset="0.38" stop-color="#3456FF"/>
    <stop offset="0.44" stop-color="#3050EE"/>
    <stop offset="0.56" stop-color="#273FC0"/>
    <stop offset="0.73" stop-color="#182577"/>
    <stop offset="0.9" stop-color="#070928"/>
    </linearGradient>
    </defs>
    </svg>