<svg width="179" height="95" viewBox="0 0 179 95" fill="none" xmlns="http://www.w3.org/2000/svg">
<path d="M131.026 66.3653L123.824 86H119.042L111.841 66.3653H116.061L121.461 81.9774L126.834 66.3653H131.026ZM137.325 66.3653V86H133.387V66.3653H137.325ZM147.995 86.1969C146.626 86.1969 145.389 85.9625 144.282 85.4937C143.194 85.0248 142.332 84.3497 141.694 83.4683C141.057 82.5869 140.728 81.5461 140.71 80.3459H144.929C144.985 81.1523 145.267 81.7899 145.773 82.2587C146.298 82.7275 147.011 82.962 147.911 82.962C148.83 82.962 149.552 82.7463 150.077 82.315C150.602 81.8649 150.865 81.2835 150.865 80.5709C150.865 79.9896 150.686 79.5113 150.33 79.1363C149.974 78.7612 149.524 78.4705 148.98 78.2643C148.455 78.0392 147.723 77.7954 146.786 77.5329C145.511 77.1578 144.47 76.7921 143.663 76.4358C142.876 76.0607 142.191 75.5075 141.61 74.7761C141.047 74.026 140.766 73.0321 140.766 71.7944C140.766 70.6316 141.057 69.619 141.638 68.7563C142.219 67.8937 143.035 67.2373 144.085 66.7872C145.135 66.3184 146.336 66.084 147.686 66.084C149.711 66.084 151.352 66.5809 152.609 67.5748C153.884 68.55 154.587 69.919 154.718 71.6818H150.386C150.349 71.0067 150.058 70.4535 149.514 70.0222C148.989 69.5721 148.286 69.347 147.405 69.347C146.636 69.347 146.017 69.5439 145.548 69.9378C145.098 70.3316 144.873 70.9036 144.873 71.6537C144.873 72.1788 145.042 72.6195 145.379 72.9758C145.736 73.3134 146.167 73.5947 146.673 73.8197C147.198 74.026 147.93 74.2698 148.867 74.5511C150.143 74.9262 151.183 75.3012 151.99 75.6763C152.796 76.0514 153.49 76.614 154.071 77.3641C154.653 78.1142 154.943 79.0988 154.943 80.3177C154.943 81.3679 154.672 82.3431 154.128 83.2433C153.584 84.1434 152.787 84.8654 151.737 85.4093C150.686 85.9344 149.439 86.1969 147.995 86.1969ZM170.397 82.2587H162.577L161.283 86H157.148L164.209 66.3371H168.794L175.855 86H171.691L170.397 82.2587ZM169.328 79.1082L166.487 70.8942L163.646 79.1082H169.328Z" fill="#FFFDFD"/>
<path d="M100.01 90.05H10.62C6.97 90.05 4 87.08 4 83.43V10.62C4 6.97 6.97 4 10.62 4H137.21C140.86 4 143.83 6.97 143.83 10.62V47.83C143.83 48.93 144.73 49.83 145.83 49.83C146.93 49.83 147.83 48.93 147.83 47.83V10.62C147.83 4.77 143.07 0 137.21 0H10.62C4.76 0 0 4.76 0 10.62V83.43C0 89.28 4.76 94.05 10.62 94.05H100.01C101.11 94.05 102.01 93.15 102.01 92.05C102.01 90.95 101.11 90.05 100.01 90.05Z" fill="#3456FF"/>
<path d="M110.44 41.5498C113.15 43.4698 116.39 44.5198 119.74 44.5198C128.61 44.5198 135.83 37.2998 135.83 28.4298C135.83 19.5598 128.61 12.3398 119.74 12.3398C116.42 12.3398 113.54 13.3498 110.77 15.4998C108.04 13.4698 104.71 12.3398 101.16 12.3398C92.2903 12.3398 85.0703 19.5598 85.0703 28.4298C85.0703 37.2998 92.2903 44.5198 101.16 44.5198C104.52 44.5198 107.76 43.4398 110.44 41.5498ZM131.84 28.4198C131.84 35.0898 126.41 40.5098 119.75 40.5098C117.53 40.5098 115.36 39.8998 113.49 38.7598C114.04 38.0998 114.55 37.4098 115 36.6598C116.48 34.1798 117.27 31.3198 117.27 28.4198C117.27 25.5198 116.46 22.5798 114.93 20.0598C114.55 19.4398 114.14 18.8598 113.7 18.3098C115.61 16.9398 117.49 16.3298 119.75 16.3298C126.42 16.3298 131.84 21.7598 131.84 28.4198ZM89.0703 28.4198C89.0703 21.7498 94.5003 16.3298 101.16 16.3298C105.42 16.3298 109.28 18.4998 111.5 22.1498C112.65 24.0398 113.25 26.2098 113.25 28.4298C113.25 30.6498 112.66 32.7598 111.55 34.6198C109.37 38.2598 105.39 40.5198 101.16 40.5198C94.4903 40.5198 89.0703 35.0898 89.0703 28.4298V28.4198Z" fill="#3456FF"/>
<path d="M106.446 35.13C106.666 35.13 106.896 35.09 107.116 35.01C108.156 34.64 108.706 33.5 108.336 32.46C107.876 31.17 107.646 29.81 107.646 28.42C107.646 26.95 107.906 25.51 108.426 24.15C108.816 23.12 108.296 21.96 107.266 21.57C106.236 21.18 105.076 21.7 104.686 22.73C103.996 24.55 103.656 26.46 103.656 28.42C103.656 30.27 103.966 32.08 104.576 33.8C104.866 34.62 105.636 35.13 106.456 35.13H106.446Z" fill="#3456FF"/>
<path d="M46.2809 61.4598C49.3709 61.4598 51.8909 58.9498 51.8909 55.8498V34.1398C51.8909 31.0498 49.3809 28.5298 46.2809 28.5298H14.5709C11.4809 28.5298 8.96094 31.0398 8.96094 34.1398V55.8498C8.96094 58.9398 11.4709 61.4598 14.5709 61.4598H46.2809ZM46.2809 57.4598H38.7409V51.7298H47.8909V55.8498C47.8909 56.7398 47.1709 57.4598 46.2809 57.4598ZM34.7409 57.4598H26.7609V51.7298H34.7409V57.4598ZM47.8909 47.7298H38.7409V44.9298C38.7409 43.7598 39.6909 42.8098 40.8609 42.8098H47.8909V47.7298ZM47.8909 34.1498V38.8198H40.8609C37.4809 38.8198 34.7409 41.5698 34.7409 44.9398V47.7398H26.7609V32.5498H46.2809C47.1709 32.5498 47.8909 33.2698 47.8909 34.1598V34.1498ZM12.9709 42.8098H22.7609V47.7298H12.9709V42.8098ZM14.5809 32.5398H22.7709V38.8098H12.9709V34.1398C12.9709 33.2498 13.6909 32.5298 14.5809 32.5298V32.5398ZM12.9709 55.8498V51.7298H22.7609V57.4598H14.5709C13.6809 57.4598 12.9609 56.7398 12.9609 55.8498H12.9709Z" fill="#3456FF"/>
<path d="M26.4766 77.9902H99.0466C100.147 77.9902 101.047 77.0902 101.047 75.9902C101.047 74.8902 100.147 73.9902 99.0466 73.9902H26.4766C25.3766 73.9902 24.4766 74.8902 24.4766 75.9902C24.4766 77.0902 25.3766 77.9902 26.4766 77.9902Z" fill="#3456FF"/>
</svg>
