<svg width="277" height="886" viewBox="0 0 277 886" fill="none" xmlns="http://www.w3.org/2000/svg">
<g opacity="0.5">
<mask id="mask0_156_4238" style="mask-type:alpha" maskUnits="userSpaceOnUse" x="-532" y="77" width="731" height="731">
<circle cx="-166.485" cy="442.512" r="365.073" transform="rotate(13.9924 -166.485 442.512)" fill="#D9D9D9"/>
</mask>
<g mask="url(#mask0_156_4238)">
<g opacity="0.5">
<path d="M133.045 419.379C130.472 422.343 130.758 426.862 133.683 429.472C136.609 432.081 141.066 431.794 143.639 428.829C146.212 425.865 145.926 421.346 143.001 418.737C140.076 416.127 135.618 416.414 133.045 419.379Z" fill="white"/>
<path d="M43.0301 176.08C40.4572 179.045 40.7429 183.563 43.6683 186.173C46.5937 188.783 51.051 188.495 53.624 185.531C56.1969 182.567 55.9112 178.048 52.9858 175.438C50.0604 172.828 45.6031 173.116 43.0301 176.08Z" fill="white"/>
<path d="M195.237 292.617C192.664 295.581 192.949 300.1 195.875 302.71C198.8 305.32 203.258 305.032 205.831 302.068C208.403 299.103 208.118 294.585 205.192 291.975C202.267 289.365 197.81 289.653 195.237 292.617Z" fill="white"/>
<path d="M43.7502 605.647C42.2476 607.378 42.4145 610.017 44.1229 611.541C45.8314 613.065 48.4344 612.898 49.937 611.166C51.4396 609.435 51.2727 606.796 49.5643 605.272C47.8559 603.748 45.2528 603.916 43.7502 605.647Z" fill="white"/>
<path d="M50.0022 76.3929C48.4996 78.1241 48.6664 80.763 50.3749 82.2871C52.0833 83.8112 54.6864 83.6433 56.189 81.9121C57.6916 80.1809 57.5247 77.542 55.8163 76.0179C54.1078 74.4938 51.5048 74.6617 50.0022 76.3929Z" fill="white"/>
<path d="M172.438 131.952C170.935 133.683 171.102 136.322 172.81 137.846C174.519 139.37 177.122 139.202 178.625 137.471C180.127 135.74 179.96 133.101 178.252 131.577C176.543 130.052 173.94 130.22 172.438 131.952Z" fill="white"/>
<path d="M66.0451 187.19C64.5425 188.922 64.7094 191.561 66.4178 193.085C68.1263 194.609 70.7293 194.441 72.2319 192.71C73.7345 190.978 73.5677 188.339 71.8592 186.815C70.1508 185.291 67.5477 185.459 66.0451 187.19Z" fill="white"/>
<path d="M58.3991 401.264C56.8965 402.995 57.0634 405.634 58.7718 407.158C60.4803 408.683 63.0833 408.515 64.5859 406.783C66.0885 405.052 65.9217 402.413 64.2132 400.889C62.5048 399.365 59.9017 399.533 58.3991 401.264Z" fill="white"/>
<path d="M41.7063 480.109C40.2037 481.84 40.3705 484.479 42.079 486.003C43.7874 487.527 46.3905 487.359 47.8931 485.628C49.3957 483.897 49.2288 481.258 47.5204 479.734C45.8119 478.21 43.2089 478.378 41.7063 480.109Z" fill="white"/>
<path d="M77.9372 286.122C76.4346 287.853 76.6015 290.492 78.3099 292.016C80.0184 293.54 82.6214 293.372 84.124 291.641C85.6266 289.91 85.4598 287.271 83.7513 285.747C82.0429 284.222 79.4398 284.39 77.9372 286.122Z" fill="white"/>
<path d="M137.644 288.994C136.142 290.725 136.309 293.364 138.017 294.888C139.725 296.412 142.328 296.244 143.831 294.513C145.334 292.782 145.167 290.143 143.458 288.619C141.75 287.095 139.147 287.263 137.644 288.994Z" fill="white"/>
<path d="M138.555 226.687C137.053 228.418 137.22 231.057 138.928 232.581C140.637 234.105 143.24 233.937 144.742 232.206C146.245 230.475 146.078 227.836 144.369 226.312C142.661 224.788 140.058 224.956 138.555 226.687Z" fill="white"/>
<path d="M-347.812 506.477L-328.641 576.073L-230.318 527.379L-99.8808 479.282L-138.525 399.689L-118.261 320.763L-145.423 226.104" stroke="white" stroke-width="0.535938" stroke-miterlimit="10"/>
<path d="M-54.6553 477.632L-57.8486 370.726L-97.1586 477.139C-94.1466 478.485 43.7181 482.345 43.7181 482.345L-57.874 370.703L-134.175 398.13" stroke="white" stroke-width="0.535938" stroke-miterlimit="10"/>
<path d="M-108.402 386.472L-114.957 323.285L-54.1757 366.979L78.6207 291.318L-112.548 319.903L50.9276 180.033L79.2165 287.462L69.5456 190.167L142.05 229.674L83.0795 286.077L200.086 296.229L136.529 425.917L82.26 294.87L46.2827 481.435L133.339 427.063" stroke="white" stroke-width="0.535938" stroke-miterlimit="10"/>
<path d="M-54.2513 369.444L134.031 425.612" stroke="white" stroke-width="0.535938" stroke-miterlimit="10"/>
<path d="M44.6339 484.95L48.269 608.205L-52.7124 572.869L41.9441 485.918L-16.8186 583.039L-76.369 679.715L-53.0161 575.401L-90.4217 560.927L-78.5507 680.496L46.5221 610.044" stroke="white" stroke-width="0.535938" stroke-miterlimit="10"/>
<path d="M198.431 291.415L261.144 172.28C261.144 172.28 298.202 66.677 296.626 67.2975C295.049 67.918 203.981 67.8167 203.981 67.8167L257.7 169.924L177.611 134.529L198.603 66.1125L57.823 77.8597L174.182 133.161L142.115 229.686L55.3768 81.163L68.0912 185.866L51.865 177.136L52.5746 83.3868" stroke="white" stroke-width="0.535938" stroke-miterlimit="10"/>
<path d="M256.704 173.899C254.142 173.594 142.093 229.715 142.093 229.715L216.01 249.196" stroke="white" stroke-width="0.535938" stroke-miterlimit="10"/>
<path d="M195.515 292.486L143.228 233.012L136.733 419.653" stroke="white" stroke-width="0.535938" stroke-miterlimit="10"/>
<path d="M206.157 296.481L323.578 276.13L207.672 246.969" stroke="white" stroke-width="0.535938" stroke-miterlimit="10"/>
<path d="M297.627 70.221L323.578 276.132L264.298 174.23L417.359 140.433L401.672 367.36L141.578 422.896L322.008 282.168L399.18 365.518L203.727 299.785" stroke="white" stroke-width="0.535938" stroke-miterlimit="10"/>
</g>
<path d="M2599.19 1233.7C3328.62 1455.73 3811.44 1824.32 3778.28 2196.02C3731.82 2716.7 2690.4 3046.35 1452.18 2932.34C213.956 2818.33 -752.088 2303.42 -705.655 1782.75C-672.478 1410.88 -131.813 1136.47 625.577 1051.55" stroke="white" stroke-width="3" stroke-miterlimit="10" stroke-linecap="round"/>
<path d="M2694.16 1389.81C3221.84 1589.6 3555.9 1880.28 3529.79 2173.1C3488.49 2636.09 2562.49 2929.17 1461.53 2827.71C360.569 2726.25 -498.457 2268.66 -457.162 1805.66C-431.036 1512.8 -50.9189 1287.96 503.608 1187.87" stroke="white" stroke-width="3" stroke-miterlimit="10" stroke-linecap="round"/>
</g>
</g>
</svg>
