<svg width="498" height="945" viewBox="0 0 498 945" fill="none" xmlns="http://www.w3.org/2000/svg">
<g opacity="0.5">
<mask id="mask0_156_3921" style="mask-type:alpha" maskUnits="userSpaceOnUse" x="-340" y="107" width="731" height="731">
<circle cx="25.3783" cy="472.375" r="365.073" transform="rotate(-111.197 25.3783 472.375)" fill="#D9D9D9"/>
</mask>
<g mask="url(#mask0_156_3921)">
<g opacity="0.5">
<path d="M168.128 274.67C174.308 275.294 179.891 270.804 180.599 264.641C181.306 258.478 176.87 252.975 170.69 252.351C164.51 251.727 158.927 256.217 158.219 262.38C157.512 268.543 161.949 274.046 168.128 274.67Z" fill="white"/>
<path d="M29.7589 791.413C33.6643 791.808 37.1926 788.97 37.6395 785.075C38.0865 781.181 35.2829 777.704 31.3775 777.309C27.4721 776.915 23.9438 779.752 23.4969 783.647C23.0499 787.542 25.8535 791.019 29.7589 791.413Z" fill="white"/>
<path d="M15.0343 401.506C18.9397 401.9 22.468 399.063 22.9149 395.168C23.3619 391.273 20.5582 387.796 16.6529 387.402C12.7475 387.007 9.21921 389.845 8.77226 393.739C8.3253 397.634 11.1289 401.111 15.0343 401.506Z" fill="white"/>
<path d="M169.681 791.852C173.587 792.247 177.115 789.409 177.562 785.514C178.009 781.62 175.205 778.143 171.3 777.748C167.394 777.354 163.866 780.191 163.419 784.086C162.972 787.981 165.776 791.458 169.681 791.852Z" fill="white"/>
<path d="M264.466 653.185C268.371 653.579 271.9 650.742 272.347 646.847C272.794 642.952 269.99 639.475 266.085 639.081C262.179 638.686 258.651 641.524 258.204 645.419C257.757 649.313 260.561 652.79 264.466 653.185Z" fill="white"/>
<path d="M138.876 704.661C142.781 705.056 146.31 702.218 146.757 698.323C147.204 694.429 144.4 690.951 140.495 690.557C136.589 690.163 133.061 693 132.614 696.895C132.167 700.79 134.971 704.267 138.876 704.661Z" fill="white"/>
<path d="M124.223 478.083C128.129 478.477 131.657 475.64 132.104 471.745C132.551 467.85 129.747 464.373 125.842 463.979C121.936 463.584 118.408 466.422 117.961 470.317C117.514 474.211 120.318 477.689 124.223 478.083Z" fill="white"/>
<path d="M269.855 275.919C273.76 276.313 277.288 273.476 277.735 269.581C278.182 265.686 275.379 262.209 271.473 261.815C267.568 261.42 264.04 264.258 263.593 268.153C263.146 272.047 265.949 275.524 269.855 275.919Z" fill="white"/>
<path d="M133.884 556.071C136.165 556.301 138.225 554.644 138.486 552.369C138.747 550.095 137.11 548.064 134.829 547.834C132.549 547.603 130.488 549.261 130.227 551.535C129.966 553.81 131.603 555.84 133.884 556.071Z" fill="white"/>
<path d="M167.089 499.807C169.37 500.037 171.43 498.38 171.691 496.105C171.952 493.831 170.315 491.8 168.034 491.57C165.754 491.34 163.693 492.997 163.432 495.271C163.171 497.546 164.808 499.576 167.089 499.807Z" fill="white"/>
<path d="M38.9969 541.157C41.2776 541.387 43.3381 539.73 43.5992 537.456C43.8602 535.181 42.2229 533.15 39.9421 532.92C37.6614 532.69 35.6009 534.347 35.3399 536.621C35.0789 538.896 36.7161 540.927 38.9969 541.157Z" fill="white"/>
<path d="M79.4026 725.801C81.6834 726.032 83.7439 724.374 84.0049 722.1C84.266 719.825 82.6286 717.795 80.3479 717.564C78.0671 717.334 76.0067 718.991 75.7456 721.266C75.4846 723.54 77.1219 725.571 79.4026 725.801Z" fill="white"/>
<path d="M67.9715 681.501C70.2522 681.731 72.3128 680.074 72.5738 677.799C72.8348 675.525 71.1975 673.494 68.9167 673.264C66.636 673.034 64.5755 674.691 64.3145 676.965C64.0535 679.24 65.6907 681.27 67.9715 681.501Z" fill="white"/>
<path d="M120.036 664.978C122.317 665.208 124.378 663.551 124.639 661.277C124.9 659.002 123.262 656.972 120.982 656.741C118.701 656.511 116.64 658.168 116.379 660.443C116.118 662.717 117.756 664.748 120.036 664.978Z" fill="white"/>
<path d="M67.5272 308.514C69.808 308.745 71.8684 307.087 72.1294 304.813C72.3905 302.538 70.7532 300.508 68.4725 300.277C66.1917 300.047 64.1312 301.704 63.8702 303.979C63.6091 306.253 65.2465 308.284 67.5272 308.514Z" fill="white"/>
<path d="M37.5463 206.548C39.827 206.779 41.8875 205.121 42.1485 202.847C42.4095 200.572 40.7722 198.542 38.4915 198.311C36.2108 198.081 34.1502 199.738 33.8892 202.013C33.6282 204.287 35.2655 206.318 37.5463 206.548Z" fill="white"/>
<path d="M226.331 531.588C228.612 531.818 230.673 530.161 230.934 527.887C231.195 525.612 229.557 523.582 227.277 523.351C224.996 523.121 222.935 524.778 222.674 527.053C222.413 529.327 224.051 531.358 226.331 531.588Z" fill="white"/>
<path d="M27.6039 477.356C29.8846 477.587 31.9452 475.929 32.2062 473.655C32.4672 471.38 30.8299 469.35 28.5491 469.119C26.2684 468.889 24.2078 470.546 23.9468 472.821C23.6858 475.095 25.3231 477.126 27.6039 477.356Z" fill="white"/>
<path d="M199.223 446.987C201.503 447.217 203.564 445.56 203.825 443.285C204.086 441.011 202.449 438.98 200.168 438.75C197.887 438.519 195.826 440.177 195.565 442.451C195.304 444.726 196.942 446.756 199.223 446.987Z" fill="white"/>
<path d="M178.816 590.376C181.097 590.607 183.157 588.95 183.419 586.675C183.68 584.401 182.042 582.37 179.762 582.14C177.481 581.909 175.42 583.566 175.159 585.841C174.898 588.115 176.536 590.146 178.816 590.376Z" fill="white"/>
<path d="M76.9813 345.854C79.2621 346.084 81.3225 344.427 81.5835 342.152C81.8446 339.878 80.2073 337.847 77.9266 337.617C75.6458 337.386 73.5853 339.044 73.3243 341.318C73.0632 343.593 74.7006 345.623 76.9813 345.854Z" fill="white"/>
<path d="M56.7411 273.046C59.0218 273.276 61.0823 271.619 61.3433 269.345C61.6043 267.07 59.9671 265.04 57.6863 264.809C55.4056 264.579 53.345 266.236 53.084 268.511C52.823 270.785 54.4603 272.816 56.7411 273.046Z" fill="white"/>
<path d="M329.167 278.485C331.448 278.716 333.508 277.058 333.769 274.784C334.03 272.509 332.393 270.479 330.112 270.248C327.831 270.018 325.771 271.675 325.51 273.95C325.249 276.224 326.886 278.255 329.167 278.485Z" fill="white"/>
<path d="M297.204 371.899C299.485 372.129 301.545 370.472 301.806 368.198C302.067 365.923 300.43 363.893 298.149 363.662C295.868 363.432 293.808 365.089 293.547 367.364C293.286 369.638 294.923 371.669 297.204 371.899Z" fill="white"/>
<path d="M253.682 222.763C255.963 222.993 258.024 221.336 258.285 219.062C258.546 216.787 256.908 214.756 254.628 214.526C252.347 214.296 250.286 215.953 250.025 218.227C249.764 220.502 251.402 222.533 253.682 222.763Z" fill="white"/>
<path d="M172.076 781.782L108.921 931.48L-60.8932 780.294L-16.3785 698.476L172.076 781.782Z" stroke="white" stroke-width="0.535938" stroke-miterlimit="10"/>
<path d="M-16.3814 698.478L120.957 663.611L134.907 554.714L267.678 647.816L172.073 781.784L134.392 679.281L38.997 539.149L-163.622 579.876L-16.3814 698.478Z" stroke="white" stroke-width="0.535938" stroke-miterlimit="10"/>
<path d="M-57.9597 782.924L169.507 785.386" stroke="white" stroke-width="0.535938" stroke-miterlimit="10"/>
<path d="M106.953 924.514L-13.1387 705.174" stroke="white" stroke-width="0.535938" stroke-miterlimit="10"/>
<path d="M-22.5966 557.357L-16.7629 691.228L37.7107 543.873L79.0659 721.966L260.787 648.618L121.487 659.489L179.408 585.92" stroke="white" stroke-width="0.535938" stroke-miterlimit="10"/>
<path d="M265.712 641.726L199.638 442.463L125.313 472.68L133.303 548.866L195.91 449.62" stroke="white" stroke-width="0.535938" stroke-miterlimit="10"/>
<path d="M182.149 583.703L227.979 527.928L131.522 475.635L17.0457 396.753L-25.7317 474.203L-101.911 503.125L-163.619 579.874" stroke="white" stroke-width="0.535938" stroke-miterlimit="10"/>
<path d="M-7.71387 697.572L79.069 721.963L168.922 777.344" stroke="white" stroke-width="0.535938" stroke-miterlimit="10"/>
<path d="M-22.4209 476.539L39.3999 536.634L122.789 472.314L28.931 473.473L18.2818 399.016" stroke="white" stroke-width="0.535938" stroke-miterlimit="10"/>
<path d="M-19.126 474.669C-16.6046 475.038 26.865 474.235 26.865 474.235L38.8824 533.477" stroke="white" stroke-width="0.535938" stroke-miterlimit="10"/>
<path d="M-10.3647 360.743L-95.8938 424.961L13.7259 395.763C13.0903 392.526 -63.2035 277.631 -63.2035 277.631L-95.8977 424.995L-29.5125 471.546" stroke="white" stroke-width="0.535938" stroke-miterlimit="10"/>
<path d="M-47.8125 454.547C-46.4545 452.687 13.7158 395.815 13.7158 395.815" stroke="white" stroke-width="0.535938" stroke-miterlimit="10"/>
<path d="M-61.6026 275.381L37.0323 201.381L66.3475 304.272L-59.2614 277.022L53.974 269.077L167.301 262.031L68.5925 303.06L78.3192 341.972L169.196 263.364L39.5424 201.749" stroke="white" stroke-width="0.535938" stroke-miterlimit="10"/>
<path d="M76.0618 343.183L15.8684 394.471L66.6002 305.851L-7.23651 358.74" stroke="white" stroke-width="0.535938" stroke-miterlimit="10"/>
<path d="M170.337 265.56C171.258 266.212 297.875 368.954 297.875 368.954L201.637 439.624L168.359 268.339L127.29 469.827L77.9174 344.445" stroke="white" stroke-width="0.535938" stroke-miterlimit="10"/>
<path d="M172.328 262.771C175.24 260.634 255.021 218.881 255.021 218.881L298.91 367.507L329.572 273.961L172.589 264.384" stroke="white" stroke-width="0.535938" stroke-miterlimit="10"/>
</g>
<path d="M-921.826 -2243.82C-1160.73 -2967.9 -1137.74 -3574.9 -814.858 -3762C-362.568 -4024.09 506.992 -3362.96 1127.38 -2285.32C1747.78 -1207.68 1883.68 -121.451 1431.4 140.659C1108.37 327.847 572.537 44.1228 66.6661 -525.917" stroke="white" stroke-width="3" stroke-miterlimit="10" stroke-linecap="round"/>
<path d="M-848.983 -2411.4C-989.793 -2957.78 -944.752 -3398.31 -690.389 -3545.71C-288.211 -3778.78 484.941 -3190.9 1036.49 -2232.67C1588.04 -1274.44 1709.11 -308.694 1306.93 -75.6288C1052.53 71.7942 649.722 -109.287 248.363 -504.797" stroke="white" stroke-width="3" stroke-miterlimit="10" stroke-linecap="round"/>
</g>
</g>
</svg>
