<svg width="502" height="1031" viewBox="0 0 502 1031" fill="none" xmlns="http://www.w3.org/2000/svg">
<g opacity="0.5">
<mask id="mask0_156_3627" style="mask-type:alpha" maskUnits="userSpaceOnUse" x="-379" y="150" width="731" height="731">
<circle cx="-13.5382" cy="515.46" r="365.073" transform="rotate(-131.75 -13.5382 515.46)" fill="#D9D9D9"/>
</mask>
<g mask="url(#mask0_156_3627)">
<g opacity="0.5">
<path d="M21.4993 710.819C27.5488 709.296 31.1852 703.218 29.6214 697.242C28.0576 691.267 21.8858 687.658 15.8363 689.18C9.78688 690.703 6.15052 696.781 7.71432 702.757C9.27811 708.732 15.4499 712.341 21.4993 710.819Z" fill="white"/>
<path d="M38.2884 244.968C44.3379 243.445 47.9742 237.367 46.4104 231.392C44.8466 225.417 38.6749 221.807 32.6254 223.33C26.5759 224.853 22.9396 230.931 24.5034 236.906C26.0672 242.881 32.2389 246.491 38.2884 244.968Z" fill="white"/>
<path d="M94.8993 772.88C98.7222 771.918 101.02 768.077 100.032 764.301C99.0437 760.525 95.1435 758.244 91.3205 759.206C87.4976 760.168 85.1996 764.009 86.1878 767.785C87.176 771.562 91.0763 773.843 94.8993 772.88Z" fill="white"/>
<path d="M11.6336 801.324C15.4566 800.361 17.7546 796.52 16.7664 792.744C15.7781 788.968 11.8779 786.687 8.0549 787.649C4.23194 788.612 1.93394 792.453 2.92218 796.229C3.91042 800.005 7.81068 802.286 11.6336 801.324Z" fill="white"/>
<path d="M226.915 725.659C230.738 724.696 233.036 720.855 232.048 717.079C231.059 713.303 227.159 711.022 223.336 711.984C219.513 712.946 217.215 716.788 218.203 720.564C219.192 724.34 223.092 726.621 226.915 725.659Z" fill="white"/>
<path d="M266.056 564.374C269.878 563.412 272.176 559.571 271.188 555.795C270.2 552.019 266.3 549.738 262.477 550.7C258.654 551.662 256.356 555.503 257.344 559.28C258.332 563.056 262.233 565.337 266.056 564.374Z" fill="white"/>
<path d="M166.329 655.019C170.152 654.057 172.45 650.215 171.462 646.439C170.473 642.663 166.573 640.382 162.75 641.345C158.927 642.307 156.629 646.148 157.617 649.924C158.606 653.7 162.506 655.981 166.329 655.019Z" fill="white"/>
<path d="M70.5321 449.18C74.355 448.218 76.653 444.377 75.6648 440.601C74.6765 436.824 70.7763 434.543 66.9533 435.506C63.1304 436.468 60.8324 440.309 61.8206 444.085C62.8089 447.861 66.7091 450.142 70.5321 449.18Z" fill="white"/>
<path d="M134.61 211.503C138.433 210.541 140.731 206.7 139.743 202.924C138.755 199.148 134.854 196.867 131.031 197.829C127.208 198.791 124.911 202.632 125.899 206.408C126.887 210.185 130.787 212.466 134.61 211.503Z" fill="white"/>
<path d="M107.859 518.458C110.092 517.896 111.434 515.652 110.857 513.447C110.279 511.242 108.002 509.91 105.769 510.472C103.536 511.034 102.194 513.277 102.772 515.482C103.349 517.687 105.626 519.02 107.859 518.458Z" fill="white"/>
<path d="M118.781 454.804C121.013 454.242 122.356 451.999 121.778 449.794C121.201 447.589 118.924 446.256 116.691 446.818C114.458 447.38 113.116 449.624 113.693 451.829C114.271 454.034 116.548 455.366 118.781 454.804Z" fill="white"/>
<path d="M13.0387 536.877C15.2713 536.315 16.6134 534.071 16.0362 531.866C15.4591 529.661 13.1813 528.329 10.9487 528.891C8.7161 529.453 7.37412 531.696 7.95125 533.901C8.52838 536.106 10.8061 537.439 13.0387 536.877Z" fill="white"/>
<path d="M117.937 694.927C120.17 694.365 121.512 692.122 120.935 689.917C120.358 687.712 118.08 686.379 115.847 686.941C113.615 687.503 112.273 689.747 112.85 691.952C113.427 694.157 115.705 695.489 117.937 694.927Z" fill="white"/>
<path d="M91.1324 657.598C93.3651 657.036 94.7071 654.793 94.13 652.588C93.5528 650.383 91.2751 649.05 89.0425 649.612C86.8098 650.174 85.4679 652.418 86.045 654.623C86.6221 656.828 88.8998 658.16 91.1324 657.598Z" fill="white"/>
<path d="M134.218 624.506C136.451 623.944 137.793 621.701 137.216 619.496C136.639 617.291 134.361 615.959 132.128 616.521C129.896 617.083 128.554 619.326 129.131 621.531C129.708 623.736 131.986 625.068 134.218 624.506Z" fill="white"/>
<path d="M219.797 877.853C222.029 877.291 223.371 875.048 222.794 872.843C222.217 870.637 219.939 869.305 217.707 869.867C215.474 870.429 214.132 872.672 214.709 874.878C215.286 877.083 217.564 878.415 219.797 877.853Z" fill="white"/>
<path d="M186.117 464.211C188.349 463.649 189.692 461.405 189.114 459.2C188.537 456.995 186.26 455.663 184.027 456.225C181.794 456.787 180.452 459.03 181.029 461.235C181.606 463.44 183.884 464.772 186.117 464.211Z" fill="white"/>
<path d="M129.953 394.72C132.185 394.158 133.527 391.915 132.95 389.71C132.373 387.505 130.095 386.172 127.863 386.734C125.63 387.296 124.288 389.54 124.865 391.745C125.442 393.95 127.72 395.282 129.953 394.72Z" fill="white"/>
<path d="M162.609 535.084C164.842 534.522 166.184 532.278 165.607 530.073C165.029 527.868 162.752 526.536 160.519 527.098C158.286 527.66 156.944 529.903 157.522 532.108C158.099 534.313 160.376 535.646 162.609 535.084Z" fill="white"/>
<path d="M191.429 193.702C193.662 193.14 195.004 190.896 194.427 188.691C193.85 186.486 191.572 185.154 189.339 185.716C187.107 186.278 185.765 188.521 186.342 190.726C186.919 192.932 189.197 194.264 191.429 193.702Z" fill="white"/>
<path d="M195.117 291.5C197.349 290.938 198.691 288.694 198.114 286.489C197.537 284.284 195.259 282.952 193.027 283.514C190.794 284.076 189.452 286.319 190.029 288.524C190.606 290.729 192.884 292.062 195.117 291.5Z" fill="white"/>
<path d="M100.133 167.547C102.365 166.985 103.707 164.742 103.13 162.537C102.553 160.332 100.275 159 98.0425 159.562C95.8099 160.124 94.4679 162.367 95.045 164.572C95.6221 166.777 97.8999 168.109 100.133 167.547Z" fill="white"/>
<path d="M225.523 715.478L220.182 876.263L5.44681 793.389L17.7871 702.108L225.523 715.478Z" stroke="white" stroke-width="0.535938" stroke-miterlimit="10"/>
<path d="M17.7857 702.107L134.588 622.918L108.327 516.845L267.135 558.283L225.522 715.477L152.92 632.926L12.3136 535.007L-163.886 641.868L17.7857 702.107Z" stroke="white" stroke-width="0.535938" stroke-miterlimit="10"/>
<path d="M9.16824 794.832L224.412 719.7" stroke="white" stroke-width="0.535938" stroke-miterlimit="10"/>
<path d="M215.809 870.452L23.2656 707.238" stroke="white" stroke-width="0.535938" stroke-miterlimit="10"/>
<path d="M-39.1368 572.913L14.8058 695.49L12.8139 539.839L116.233 691.473L260.934 561.373L133.599 618.902L161.557 530.733" stroke="white" stroke-width="0.535938" stroke-miterlimit="10"/>
<path d="M263.082 553.288L128.708 390.37L69.6028 443.784L104.702 511.953L127.784 398.298" stroke="white" stroke-width="0.535938" stroke-miterlimit="10"/>
<path d="M163.337 527.742L186.341 460.246L76.5212 444.419L-59.9008 409.987L-72.1844 496.612L-133.505 549.453L-163.882 641.868" stroke="white" stroke-width="0.535938" stroke-miterlimit="10"/>
<path d="M25.625 698.316L116.231 691.473L220.945 712.42" stroke="white" stroke-width="0.535938" stroke-miterlimit="10"/>
<path d="M-68.2192 497.654L11.7847 532.529L67.0902 444.298L-20.9374 477.323L-57.9169 411.668" stroke="white" stroke-width="0.535938" stroke-miterlimit="10"/>
<path d="M-65.7885 494.794C-63.279 494.279 -22.6062 478.736 -22.6062 478.736L10.1571 529.769" stroke="white" stroke-width="0.535938" stroke-miterlimit="10"/>
<path d="M-177.94 323.827L-111.771 221.399L-46.9115 307.158L-175.14 324.556L-71.308 278.622L32.9356 233.493L-45.2343 305.267L-21.9872 338.162L35.2043 234.088L-109.272 220.887" stroke="white" stroke-width="0.535938" stroke-miterlimit="10"/>
<path d="M37.079 235.737C38.1828 236.03 194.68 288.532 194.68 288.532L129.564 387.045L36.2203 238.996L70.4339 440.454L-21.4657 340.595" stroke="white" stroke-width="0.535938" stroke-miterlimit="10"/>
<path d="M37.9477 232.462C39.9184 229.482 99.9899 163.477 99.9899 163.477L195.134 286.831L190.175 189.352L38.7776 233.874" stroke="white" stroke-width="0.535938" stroke-miterlimit="10"/>
</g>
<path d="M-1900.22 -1727.43C-2387.38 -2319.85 -2585.37 -2892.46 -2348.82 -3176.46C-2017.45 -3574.27 -958.769 -3255.08 15.8317 -2463.53C990.433 -1671.98 1511.59 -707.535 1180.23 -309.706C943.565 -25.5821 335.951 -107.198 -347.041 -465.42" stroke="white" stroke-width="3" stroke-miterlimit="10" stroke-linecap="round"/>
<path d="M-1892.22 -1908.15C-2222.63 -2368.61 -2339.61 -2793.84 -2153.25 -3017.58C-1858.6 -3371.33 -917.283 -3087.48 -50.7696 -2383.61C815.744 -1679.73 1279.32 -822.341 984.667 -468.59C798.281 -244.826 353.17 -276.215 -168.176 -507.615" stroke="white" stroke-width="3" stroke-miterlimit="10" stroke-linecap="round"/>
</g>
</g>
</svg>
