<svg width="309" height="595" viewBox="0 0 309 595" fill="none" xmlns="http://www.w3.org/2000/svg">
<g opacity="0.5">
<mask id="mask0_156_4002" style="mask-type:alpha" maskUnits="userSpaceOnUse" x="29" y="29" width="537" height="537">
<circle cx="297.487" cy="297.487" r="267.67" transform="rotate(-83.1984 297.487 297.487)" fill="#D9D9D9"/>
</mask>
<g mask="url(#mask0_156_4002)">
<g opacity="0.5">
<path d="M189.56 435.723C193.346 438.255 198.506 437.269 201.085 433.523C203.664 429.777 202.686 424.688 198.9 422.156C195.114 419.625 189.954 420.61 187.375 424.357C184.796 428.103 185.774 433.192 189.56 435.723Z" fill="white"/>
<path d="M260.077 285.693C262.47 287.293 265.73 286.67 267.36 284.303C268.99 281.935 268.372 278.719 265.979 277.12C263.587 275.52 260.326 276.143 258.696 278.51C257.066 280.878 257.684 284.094 260.077 285.693Z" fill="white"/>
<path d="M190.509 505.536C192.901 507.135 196.162 506.513 197.792 504.145C199.422 501.778 198.804 498.562 196.411 496.962C194.019 495.363 190.758 495.985 189.128 498.353C187.498 500.72 188.116 503.936 190.509 505.536Z" fill="white"/>
<path d="M134.219 474.332C136.611 475.931 139.872 475.309 141.502 472.941C143.132 470.574 142.514 467.358 140.121 465.758C137.729 464.159 134.468 464.781 132.838 467.149C131.208 469.516 131.826 472.732 134.219 474.332Z" fill="white"/>
<path d="M235.744 337.634C238.137 339.233 241.397 338.611 243.027 336.243C244.657 333.876 244.039 330.66 241.646 329.06C239.254 327.461 235.993 328.083 234.363 330.451C232.733 332.818 233.351 336.034 235.744 337.634Z" fill="white"/>
<path d="M280.944 553.981C283.337 555.58 286.598 554.958 288.227 552.59C289.857 550.223 289.239 547.007 286.847 545.407C284.454 543.807 281.193 544.43 279.563 546.798C277.933 549.165 278.552 552.381 280.944 553.981Z" fill="white"/>
<path d="M291.009 486.932C293.401 488.532 296.662 487.909 298.292 485.542C299.922 483.174 299.304 479.958 296.911 478.358C294.519 476.759 291.258 477.381 289.628 479.749C287.998 482.117 288.616 485.333 291.009 486.932Z" fill="white"/>
<path d="M230.771 228.08C233.164 229.68 236.425 229.057 238.055 226.69C239.685 224.322 239.066 221.106 236.674 219.506C234.281 217.907 231.02 218.529 229.391 220.897C227.761 223.264 228.379 226.48 230.771 228.08Z" fill="white"/>
<path d="M253.175 81.7229C255.567 83.3225 258.828 82.6999 260.458 80.3324C262.088 77.9648 261.47 74.7488 259.077 73.1492C256.685 71.5496 253.424 72.1722 251.794 74.5398C250.164 76.9073 250.782 80.1233 253.175 81.7229Z" fill="white"/>
<path d="M84.4471 169.533C86.8396 171.132 90.1005 170.51 91.7304 168.142C93.3603 165.775 92.7421 162.559 90.3496 160.959C87.9571 159.359 84.6963 159.982 83.0663 162.35C81.4364 164.717 82.0546 167.933 84.4471 169.533Z" fill="white"/>
<path d="M155.253 48.1172C157.645 49.7168 160.906 49.0942 162.536 46.7266C164.166 44.3591 163.548 41.1431 161.155 39.5435C158.763 37.9439 155.502 38.5665 153.872 40.934C152.242 43.3016 152.86 46.5176 155.253 48.1172Z" fill="white"/>
<path d="M282.629 346.703C284.026 347.637 285.93 347.274 286.882 345.891C287.834 344.509 287.473 342.63 286.076 341.696C284.679 340.762 282.774 341.126 281.822 342.508C280.87 343.891 281.231 345.769 282.629 346.703Z" fill="white"/>
<path d="M245.235 480.146C246.632 481.081 248.537 480.717 249.489 479.334C250.441 477.952 250.079 476.074 248.682 475.139C247.285 474.205 245.381 474.569 244.429 475.951C243.477 477.334 243.838 479.212 245.235 480.146Z" fill="white"/>
<path d="M253.083 447.532C254.48 448.467 256.384 448.103 257.336 446.72C258.288 445.338 257.927 443.46 256.53 442.525C255.133 441.591 253.228 441.955 252.276 443.337C251.325 444.72 251.686 446.598 253.083 447.532Z" fill="white"/>
<path d="M292.475 454.757C293.873 455.691 295.777 455.328 296.729 453.945C297.681 452.562 297.32 450.684 295.923 449.75C294.525 448.816 292.621 449.179 291.669 450.562C290.717 451.945 291.078 453.823 292.475 454.757Z" fill="white"/>
<path d="M40.4725 79.4467C41.8697 80.3809 43.7741 80.0173 44.7259 78.6347C45.6778 77.252 45.3168 75.3739 43.9196 74.4397C42.5223 73.5056 40.618 73.8691 39.6661 75.2518C38.7142 76.6344 39.0753 78.5126 40.4725 79.4467Z" fill="white"/>
<path d="M90.4217 151.771C91.819 152.705 93.7233 152.342 94.6752 150.959C95.627 149.576 95.266 147.698 93.8688 146.764C92.4715 145.83 90.5672 146.193 89.6153 147.576C88.6635 148.959 89.0245 150.837 90.4217 151.771Z" fill="white"/>
<path d="M246.84 137.686C248.237 138.62 250.141 138.256 251.093 136.873C252.045 135.491 251.684 133.613 250.287 132.678C248.89 131.744 246.985 132.108 246.033 133.491C245.081 134.873 245.442 136.751 246.84 137.686Z" fill="white"/>
<path d="M305.73 142.593C307.128 143.527 309.032 143.163 309.984 141.781C310.936 140.398 310.575 138.52 309.177 137.586C307.78 136.652 305.876 137.015 304.924 138.398C303.972 139.78 304.333 141.659 305.73 142.593Z" fill="white"/>
<path d="M297.219 301.478C298.616 302.412 300.52 302.049 301.472 300.666C302.424 299.284 302.063 297.405 300.666 296.471C299.268 295.537 297.364 295.901 296.412 297.283C295.46 298.666 295.821 300.544 297.219 301.478Z" fill="white"/>
<path d="M161.29 134.041C162.687 134.975 164.591 134.612 165.543 133.229C166.495 131.846 166.134 129.968 164.737 129.034C163.34 128.1 161.435 128.463 160.484 129.846C159.532 131.229 159.893 133.107 161.29 134.041Z" fill="white"/>
<path d="M157.905 90.3435C159.302 91.2776 161.207 90.9141 162.159 89.5314C163.11 88.1488 162.749 86.2706 161.352 85.3365C159.955 84.4023 158.051 84.7659 157.099 86.1485C156.147 87.5312 156.508 89.4093 157.905 90.3435Z" fill="white"/>
<path d="M112.498 95.3991C113.895 96.3333 115.799 95.9697 116.751 94.5871C117.703 93.2044 117.342 91.3263 115.945 90.3921C114.548 89.458 112.643 89.8215 111.692 91.2042C110.74 92.5868 111.101 94.465 112.498 95.3991Z" fill="white"/>
<path d="M203.421 274.146C204.818 275.08 206.722 274.717 207.674 273.334C208.626 271.951 208.265 270.073 206.868 269.139C205.471 268.205 203.566 268.568 202.614 269.951C201.662 271.334 202.024 273.212 203.421 274.146Z" fill="white"/>
<path d="M137.06 304.437C138.458 305.371 140.362 305.007 141.314 303.625C142.266 302.242 141.905 300.364 140.507 299.43C139.11 298.496 137.206 298.859 136.254 300.242C135.302 301.624 135.663 303.503 137.06 304.437Z" fill="white"/>
<path d="M285.956 548.286L193.544 623.46L135.648 467.135L192.627 429.49L285.956 548.286Z" stroke="white" stroke-width="0.392948" stroke-miterlimit="10"/>
<path d="M192.628 429.489L293.54 454.188L340.054 388.492L393.961 494.465L285.956 548.286L296.844 468.957L283.32 345.403L138.13 302.028L192.628 429.489Z" stroke="white" stroke-width="0.392948" stroke-miterlimit="10"/>
<path d="M136.646 469.846L283.057 549.734" stroke="white" stroke-width="0.392948" stroke-miterlimit="10"/>
<path d="M194.671 618.273L192.423 434.94" stroke="white" stroke-width="0.392948" stroke-miterlimit="10"/>
<path d="M237.178 335.99L194.876 424.664L280.861 348.019L246.334 477.547L389.224 492.612L295.302 451.703L358.121 424.011" stroke="white" stroke-width="0.392948" stroke-miterlimit="10"/>
<path d="M394.782 489.846L420.593 338.104L362.075 332.084L341.025 384.155L415.716 341.454" stroke="white" stroke-width="0.392948" stroke-miterlimit="10"/>
<path d="M360.656 423.521L409.523 403.188L365.078 336.133L318.12 245.664L263.768 281.08L204.495 273.582L138.13 302.028" stroke="white" stroke-width="0.392948" stroke-miterlimit="10"/>
<path d="M198.552 431.886L246.338 477.547L285.445 544.328" stroke="white" stroke-width="0.392948" stroke-miterlimit="10"/>
<path d="M144.511 301.626L263.768 281.08L240.924 330.419" stroke="white" stroke-width="0.392948" stroke-miterlimit="10"/>
<path d="M265.114 283.731L284.451 343.914L360.575 330.977L299.414 299.421L318.148 247.554" stroke="white" stroke-width="0.392948" stroke-miterlimit="10"/>
<path d="M267.886 283.654C269.391 284.76 297.809 299.203 297.809 299.203L285.198 341.692" stroke="white" stroke-width="0.392948" stroke-miterlimit="10"/>
<path d="M312.772 212.916L235.298 225.051L316.314 243.88C317.017 241.565 307.172 140.924 307.172 140.924L235.284 225.071L262.238 278.058" stroke="white" stroke-width="0.392948" stroke-miterlimit="10"/>
<path d="M256.242 260.754C257.762 260.017 316.29 243.91 316.29 243.91" stroke="white" stroke-width="0.392948" stroke-miterlimit="10"/>
<path d="M251.394 260.38L206.032 270.947L232.238 222.723L165.013 133.066L203.351 269.505L86.6021 163.425L162.152 132.987L92.2645 148.951L114.35 92.5837L160.791 130.304L157.437 44.2582L257.609 78.589L167.262 130.093L306.277 139.142L258.736 80.8045" stroke="white" stroke-width="0.392948" stroke-miterlimit="10"/>
<path d="M234.036 222.551L257.614 80.4336" stroke="white" stroke-width="0.392948" stroke-miterlimit="10"/>
<path d="M308.979 140.019L398.304 126.063L381.867 202.763L309.93 141.887L385.971 175.719L461.762 210.165L383.738 202.751L376.641 231.29L462.53 211.681L399.803 127.165" stroke="white" stroke-width="0.392948" stroke-miterlimit="10"/>
<path d="M374.765 231.297L318.143 243.781L381.489 203.872L315.484 212.697" stroke="white" stroke-width="0.392948" stroke-miterlimit="10"/>
<path d="M154.088 45.9037L61.67 11.2183C61.67 11.2183 -18.5499 -6.047 -17.9539 -4.9574C-17.3578 -3.8678 -9.07363 62.3874 -9.07363 62.3874L60.2722 13.9396L41.8752 75.4473L-9.81979 66.4558L11.6459 167.786L41.1949 78.0674L114.353 92.5346L14.2733 169.262L89.2709 150.404L84.4091 163.008L16.1481 171.096" stroke="white" stroke-width="0.392948" stroke-miterlimit="10"/>
<path d="M63.2491 14.2999C63.2624 16.1918 114.37 92.5485 114.37 92.5485L121.758 36.9913" stroke="white" stroke-width="0.392948" stroke-miterlimit="10"/>
<path d="M155.13 47.9263L116.665 91.4196L253.03 79.0152" stroke="white" stroke-width="0.392948" stroke-miterlimit="10"/>
<path d="M157.061 39.8191L131.481 -43.7288L120.906 43.2606" stroke="white" stroke-width="0.392948" stroke-miterlimit="10"/>
<path d="M-15.9234 -5.95316L131.481 -43.7288L62.7944 8.74542L24.1624 -99.4942L190.676 -108.909L254.945 75.1944L136.016 -43.1409L189.565 -106.928L159.686 41.2838" stroke="white" stroke-width="0.392948" stroke-miterlimit="10"/>
</g>
</g>
</g>
</svg>
