<svg width="652" height="895" viewBox="0 0 652 895" fill="none" xmlns="http://www.w3.org/2000/svg">
<g opacity="0.5">
<mask id="mask0_156_3318" style="mask-type:alpha" maskUnits="userSpaceOnUse" x="81" y="81" width="732" height="732">
<circle cx="447.122" cy="447.121" r="365.073" transform="rotate(105 447.122 447.121)" fill="#D9D9D9"/>
</mask>
<g mask="url(#mask0_156_3318)">
<g opacity="0.5">
<path d="M619.697 281.5C615.079 277.347 607.921 277.673 603.711 282.229C599.501 286.785 599.831 293.845 604.45 297.998C609.068 302.152 616.226 301.825 620.436 297.269C624.647 292.714 624.316 285.653 619.697 281.5Z" fill="white"/>
<path d="M215.166 522.363C210.548 518.21 203.39 518.537 199.18 523.092C194.969 527.648 195.3 534.708 199.919 538.862C204.537 543.015 211.694 542.689 215.905 538.133C220.115 533.577 219.785 526.517 215.166 522.363Z" fill="white"/>
<path d="M495.335 470.319C492.417 467.694 487.893 467.9 485.233 470.779C482.572 473.658 482.781 478.12 485.7 480.745C488.618 483.369 493.141 483.163 495.802 480.284C498.463 477.405 498.254 472.943 495.335 470.319Z" fill="white"/>
<path d="M631.999 187.073C629.081 184.448 624.558 184.654 621.897 187.533C619.236 190.412 619.445 194.874 622.364 197.499C625.282 200.123 629.805 199.917 632.466 197.038C635.127 194.159 634.918 189.697 631.999 187.073Z" fill="white"/>
<path d="M413.616 510.42C410.698 507.796 406.175 508.002 403.514 510.881C400.853 513.76 401.062 518.222 403.981 520.846C406.9 523.471 411.423 523.265 414.083 520.386C416.744 517.507 416.535 513.045 413.616 510.42Z" fill="white"/>
<path d="M538.281 404.934C535.362 402.309 530.839 402.515 528.178 405.394C525.517 408.273 525.726 412.735 528.645 415.36C531.564 417.984 536.087 417.778 538.747 414.899C541.408 412.02 541.199 407.558 538.281 404.934Z" fill="white"/>
<path d="M519.343 104.085C516.424 101.461 511.901 101.667 509.241 104.546C506.58 107.425 506.789 111.887 509.707 114.511C512.626 117.136 517.149 116.93 519.81 114.051C522.471 111.172 522.262 106.71 519.343 104.085Z" fill="white"/>
<path d="M360.96 160.012C358.042 157.387 353.518 157.594 350.858 160.473C348.197 163.352 348.406 167.813 351.325 170.438C354.243 173.063 358.766 172.856 361.427 169.977C364.088 167.098 363.879 162.637 360.96 160.012Z" fill="white"/>
<path d="M492.71 192.64C489.792 190.015 485.268 190.221 482.608 193.101C479.947 195.98 480.156 200.441 483.075 203.066C485.993 205.691 490.516 205.484 493.177 202.605C495.838 199.726 495.629 195.265 492.71 192.64Z" fill="white"/>
<path d="M370.726 384.14C367.807 381.515 363.284 381.721 360.623 384.601C357.963 387.48 358.172 391.941 361.09 394.566C364.009 397.191 368.532 396.984 371.193 394.105C373.854 391.226 373.645 386.765 370.726 384.14Z" fill="white"/>
<path d="M133.812 461.279C130.893 458.655 126.37 458.861 123.709 461.74C121.048 464.619 121.258 469.081 124.176 471.705C127.095 474.33 131.618 474.124 134.279 471.245C136.94 468.366 136.73 463.904 133.812 461.279Z" fill="white"/>
<path d="M523.687 553.793C520.768 551.169 516.245 551.375 513.584 554.254C510.923 557.133 511.133 561.595 514.051 564.219C516.97 566.844 521.493 566.638 524.154 563.759C526.815 560.88 526.605 556.418 523.687 553.793Z" fill="white"/>
<path d="M464.984 747.011C462.065 744.386 457.542 744.593 454.881 747.472C452.22 750.351 452.429 754.812 455.348 757.437C458.267 760.062 462.79 759.856 465.451 756.976C468.111 754.097 467.902 749.636 464.984 747.011Z" fill="white"/>
<path d="M590.632 811.422C587.713 808.797 583.19 809.004 580.53 811.883C577.869 814.762 578.078 819.223 580.997 821.848C583.915 824.473 588.438 824.267 591.099 821.388C593.76 818.509 593.551 814.047 590.632 811.422Z" fill="white"/>
<path d="M408.986 315.499C407.282 313.966 404.64 314.087 403.086 315.768C401.532 317.449 401.655 320.055 403.359 321.588C405.064 323.121 407.705 323 409.259 321.319C410.813 319.638 410.691 317.032 408.986 315.499Z" fill="white"/>
<path d="M348.963 341.294C347.258 339.761 344.617 339.882 343.063 341.563C341.509 343.244 341.631 345.85 343.336 347.383C345.04 348.916 347.682 348.795 349.235 347.114C350.789 345.432 350.667 342.827 348.963 341.294Z" fill="white"/>
<path d="M476.752 383.571C475.047 382.038 472.406 382.159 470.852 383.84C469.298 385.522 469.42 388.127 471.125 389.66C472.829 391.193 475.471 391.072 477.025 389.391C478.578 387.71 478.456 385.104 476.752 383.571Z" fill="white"/>
<path d="M553.189 210.703C551.485 209.17 548.843 209.291 547.289 210.972C545.736 212.654 545.858 215.259 547.562 216.792C549.267 218.325 551.908 218.204 553.462 216.523C555.016 214.842 554.894 212.236 553.189 210.703Z" fill="white"/>
<path d="M536.252 253.204C534.547 251.671 531.906 251.792 530.352 253.473C528.798 255.155 528.92 257.76 530.625 259.293C532.329 260.826 534.971 260.705 536.525 259.024C538.078 257.343 537.956 254.737 536.252 253.204Z" fill="white"/>
<path d="M484.478 235.79C482.774 234.257 480.132 234.378 478.578 236.059C477.025 237.74 477.147 240.346 478.851 241.879C480.556 243.412 483.197 243.291 484.751 241.61C486.305 239.929 486.183 237.323 484.478 235.79Z" fill="white"/>
<path d="M316.338 554.463C314.633 552.93 311.992 553.051 310.438 554.732C308.884 556.413 309.006 559.019 310.711 560.552C312.415 562.085 315.057 561.964 316.61 560.283C318.164 558.601 318.042 555.996 316.338 554.463Z" fill="white"/>
<path d="M280.314 654.454C278.61 652.921 275.968 653.042 274.414 654.723C272.861 656.404 272.983 659.01 274.687 660.543C276.392 662.076 279.033 661.955 280.587 660.274C282.141 658.592 282.019 655.987 280.314 654.454Z" fill="white"/>
<path d="M319.924 280.66C318.219 279.127 315.578 279.248 314.024 280.929C312.47 282.611 312.592 285.216 314.297 286.749C316.001 288.282 318.642 288.161 320.196 286.48C321.75 284.799 321.628 282.193 319.924 280.66Z" fill="white"/>
<path d="M484.408 672.695C482.704 671.163 480.062 671.283 478.508 672.964C476.954 674.646 477.076 677.251 478.781 678.784C480.485 680.317 483.127 680.197 484.681 678.515C486.235 676.834 486.113 674.228 484.408 672.695Z" fill="white"/>
<path d="M405.869 654.618C404.165 653.085 401.523 653.206 399.969 654.887C398.415 656.569 398.537 659.174 400.242 660.707C401.946 662.24 404.588 662.119 406.142 660.438C407.696 658.757 407.574 656.151 405.869 654.618Z" fill="white"/>
<path d="M448.267 441.786C446.563 440.253 443.921 440.374 442.368 442.055C440.814 443.737 440.936 446.342 442.64 447.875C444.345 449.408 446.986 449.287 448.54 447.606C450.094 445.925 449.972 443.319 448.267 441.786Z" fill="white"/>
<path d="M599.189 694.255C597.485 692.722 594.843 692.843 593.289 694.524C591.736 696.205 591.858 698.811 593.562 700.344C595.267 701.877 597.908 701.756 599.462 700.075C601.016 698.393 600.894 695.788 599.189 694.255Z" fill="white"/>
<path d="M595.267 753.902C593.563 752.37 590.922 752.49 589.368 754.171C587.814 755.853 587.936 758.458 589.64 759.991C591.345 761.524 593.986 761.404 595.54 759.722C597.094 758.041 596.972 755.435 595.267 753.902Z" fill="white"/>
<path d="M657.549 755.909C655.844 754.376 653.203 754.497 651.649 756.178C650.095 757.86 650.217 760.465 651.922 761.998C653.626 763.531 656.268 763.41 657.821 761.729C659.375 760.048 659.253 757.442 657.549 755.909Z" fill="white"/>
<path d="M569.572 496.927C567.868 495.394 565.226 495.514 563.672 497.196C562.118 498.877 562.24 501.483 563.945 503.016C565.649 504.548 568.291 504.428 569.845 502.747C571.399 501.065 571.277 498.46 569.572 496.927Z" fill="white"/>
<path d="M291.838 364.942C290.133 363.409 287.492 363.53 285.938 365.211C284.384 366.893 284.506 369.498 286.211 371.031C287.915 372.564 290.557 372.444 292.11 370.762C293.664 369.081 293.542 366.475 291.838 364.942Z" fill="white"/>
<path d="M392.986 261.279C391.282 259.747 388.64 259.867 387.086 261.548C385.532 263.23 385.655 265.835 387.359 267.368C389.064 268.901 391.705 268.781 393.259 267.099C394.813 265.418 394.691 262.812 392.986 261.279Z" fill="white"/>
<path d="M330.76 518.747C329.055 517.214 326.414 517.335 324.86 519.016C323.306 520.698 323.428 523.303 325.132 524.836C326.837 526.369 329.478 526.248 331.032 524.567C332.586 522.886 332.464 520.28 330.76 518.747Z" fill="white"/>
<path d="M304.096 589.455C302.391 587.922 299.75 588.043 298.196 589.724C296.642 591.405 296.764 594.011 298.468 595.544C300.173 597.077 302.814 596.956 304.368 595.275C305.922 593.593 305.8 590.988 304.096 589.455Z" fill="white"/>
<path d="M87.4628 424.181C85.7583 422.648 83.1168 422.768 81.5629 424.45C80.009 426.131 80.1311 428.737 81.8356 430.27C83.5401 431.802 86.1816 431.682 87.7355 430.001C89.2894 428.319 89.1673 425.714 87.4628 424.181Z" fill="white"/>
<path d="M168.424 367.673C166.719 366.14 164.078 366.261 162.524 367.942C160.97 369.623 161.092 372.229 162.797 373.762C164.501 375.295 167.142 375.174 168.696 373.493C170.25 371.811 170.128 369.206 168.424 367.673Z" fill="white"/>
<path d="M115.471 513.726C113.766 512.194 111.125 512.314 109.571 513.995C108.017 515.677 108.139 518.282 109.843 519.815C111.548 521.348 114.189 521.228 115.743 519.546C117.297 517.865 117.175 515.259 115.471 513.726Z" fill="white"/>
<path d="M511.463 110.798L650.835 27.2901L698.588 249.582L614.347 289.319L511.463 110.798Z" stroke="white" stroke-width="0.535938" stroke-miterlimit="10"/>
<path d="M614.35 289.319L482.927 236.35L407.359 315.99L355.198 162.448L511.466 110.798L481.34 215.77L475.566 385.192L663.13 471.985L614.35 289.319Z" stroke="white" stroke-width="0.535938" stroke-miterlimit="10"/>
<path d="M697.774 245.727L515.665 109.407" stroke="white" stroke-width="0.535938" stroke-miterlimit="10"/>
<path d="M648.309 34.0738L615.688 282.001" stroke="white" stroke-width="0.535938" stroke-miterlimit="10"/>
<path d="M536.025 406.873L610.377 295.395L479.394 382.139L551.196 213.997L361.232 165.87L480.066 239.363L389.877 264.527" stroke="white" stroke-width="0.535938" stroke-miterlimit="10"/>
<path d="M353.188 168.523L288.831 368.347L366.656 387.856L405.201 321.657L296.067 364.774" stroke="white" stroke-width="0.535938" stroke-miterlimit="10"/>
<path d="M386.355 264.697L316.433 282.641L363.39 381.805L409.186 513.068L489.447 475.829L568.003 497.478L663.125 471.985" stroke="white" stroke-width="0.535938" stroke-miterlimit="10"/>
<path d="M606.82 284.932L551.192 213.998L511.387 116.241" stroke="white" stroke-width="0.535938" stroke-miterlimit="10"/>
<path d="M654.435 471.287L489.447 475.829L529.881 413.666" stroke="white" stroke-width="0.535938" stroke-miterlimit="10"/>
<path d="M488.154 471.989L473.756 386.984L368.476 389.642L444.903 444.137L409.525 510.511" stroke="white" stroke-width="0.535938" stroke-miterlimit="10"/>
<path d="M484.391 471.552C482.574 469.765 447.02 444.742 447.02 444.742L472.309 389.836" stroke="white" stroke-width="0.535938" stroke-miterlimit="10"/>
<path d="M410.04 558.315L516.986 557.002L411.281 515.827C409.882 518.815 403.598 656.59 403.598 656.59L517.009 556.977L490.929 480.206" stroke="white" stroke-width="0.535938" stroke-miterlimit="10"/>
<path d="M495.658 504.731C493.463 505.43 411.32 515.791 411.32 515.791" stroke="white" stroke-width="0.535938" stroke-miterlimit="10"/>
<path d="M502.132 506.18L565.423 500.737L520.668 560.741L593.981 694.847L568.763 503.206L705.736 669.115L597.827 695.511L695.277 687.552L654.5 759.35L599.143 699.397L586.936 816.207L458.385 750.38L590.366 698.423L404.463 659.171L457.295 747.17" stroke="white" stroke-width="0.535938" stroke-miterlimit="10"/>
<path d="M518.204 560.622L458.734 747.888" stroke="white" stroke-width="0.535938" stroke-miterlimit="10"/>
<path d="M400.977 657.46L277.677 658.928L314.784 558.583L400.056 654.754L303.984 594.293L208.37 533.051L312.257 558.235L327.387 521.09L207.628 530.856L275.869 657.148" stroke="white" stroke-width="0.535938" stroke-miterlimit="10"/>
<path d="M329.924 521.445L408.789 515.604L315.513 557.159L406.333 558.084" stroke="white" stroke-width="0.535938" stroke-miterlimit="10"/>
<path d="M208.004 528.41C207.646 527.34 166.143 369.653 166.143 369.653L285.541 369.458L211.241 527.336L363.375 388.991L329.172 519.331" stroke="white" stroke-width="0.535938" stroke-miterlimit="10"/>
<path d="M204.75 529.485C201.138 529.49 112.098 516.069 112.098 516.069L164.453 370.209L84.4642 427.592L205.492 528.029" stroke="white" stroke-width="0.535938" stroke-miterlimit="10"/>
<path d="M591.778 814.637L709.792 879.435C709.792 879.435 814.726 918.345 814.134 916.758C813.541 915.171 815.244 824.119 815.244 824.119L712.208 876.034L749.006 796.579L817.042 818.772L807.773 677.807L750.433 793.175L654.487 759.416L804.513 675.303L699.602 686.174L708.617 670.104L802.339 672.462" stroke="white" stroke-width="0.535938" stroke-miterlimit="10"/>
<path d="M708.251 874.968C708.601 872.411 654.459 759.393 654.459 759.393L633.681 832.956" stroke="white" stroke-width="0.535938" stroke-miterlimit="10"/>
<path d="M590.758 811.703L651.143 760.47L464.644 750.694" stroke="white" stroke-width="0.535938" stroke-miterlimit="10"/>
<path d="M586.577 822.273L604.859 940.033L636.054 824.659" stroke="white" stroke-width="0.535938" stroke-miterlimit="10"/>
<path d="M811.193 917.708L604.857 940.034L707.787 882.555L738.886 1036.19L512.27 1016.51L461.317 755.481L598.85 938.358L514.155 1014.05L583.316 819.785" stroke="white" stroke-width="0.535938" stroke-miterlimit="10"/>
</g>
<path d="M-392.583 3198.45C-627.405 3923.87 -1004.43 4400.13 -1375.49 4360.44C-1895.27 4304.83 -2206.55 3257.78 -2070.79 2021.75C-1935.02 785.722 -1403.2 -171.117 -883.424 -115.535C-512.194 -75.8231 -247.34 469.584 -175.753 1228.35" stroke="white" stroke-width="3" stroke-miterlimit="10" stroke-linecap="round"/>
<path d="M-550.333 3290.67C-759.375 3814.75 -1055.88 4143.65 -1348.2 4112.39C-1810.4 4062.95 -2087.14 3131.95 -1966.34 2032.94C-1845.53 933.932 -1372.9 83.0852 -910.708 132.516C-618.345 163.788 -400.226 547.801 -309.908 1104" stroke="white" stroke-width="3" stroke-miterlimit="10" stroke-linecap="round"/>
</g>
</g>
</svg>
