<svg width="457" height="812" viewBox="0 0 457 812" fill="none" xmlns="http://www.w3.org/2000/svg">
<g opacity="0.5">
<mask id="mask0_156_3448" style="mask-type:alpha" maskUnits="userSpaceOnUse" x="-315" y="40" width="731" height="731">
<circle cx="50.8211" cy="405.821" r="365.073" transform="rotate(-83.1837 50.8211 405.821)" fill="#D9D9D9"/>
</mask>
<g mask="url(#mask0_156_3448)">
<g opacity="0.5">
<path d="M267.034 268.651C272.205 272.114 279.242 270.786 282.752 265.685C286.263 260.585 284.916 253.643 279.745 250.18C274.575 246.718 267.537 248.046 264.027 253.146C260.517 258.247 261.863 265.189 267.034 268.651Z" fill="white"/>
<path d="M-2.76464 359.506C0.503071 361.694 4.9503 360.855 7.16852 357.631C9.38675 354.408 8.53598 350.021 5.26827 347.833C2.00056 345.645 -2.44666 346.484 -4.66489 349.707C-6.88312 352.931 -6.03234 357.318 -2.76464 359.506Z" fill="white"/>
<path d="M72.3369 308.338C75.6046 310.526 80.0519 309.687 82.2701 306.463C84.4883 303.24 83.6375 298.853 80.3698 296.665C77.1021 294.477 72.6549 295.316 70.4367 298.539C68.2184 301.763 69.0692 306.15 72.3369 308.338Z" fill="white"/>
<path d="M26.3213 725.381C29.589 727.569 34.0362 726.73 36.2545 723.506C38.4727 720.283 37.6219 715.896 34.3542 713.708C31.0865 711.52 26.6393 712.359 24.421 715.582C22.2028 718.806 23.0536 723.193 26.3213 725.381Z" fill="white"/>
<path d="M175.017 647.785C178.284 649.973 182.732 649.134 184.95 645.91C187.168 642.687 186.317 638.3 183.05 636.112C179.782 633.924 175.335 634.763 173.116 637.987C170.898 641.21 171.749 645.597 175.017 647.785Z" fill="white"/>
<path d="M39.8994 633.989C43.1671 636.177 47.6144 635.338 49.8326 632.115C52.0508 628.891 51.2 624.504 47.9323 622.316C44.6646 620.128 40.2174 620.967 37.9992 624.191C35.7809 627.414 36.6317 631.801 39.8994 633.989Z" fill="white"/>
<path d="M133.009 427.31C136.277 429.498 140.724 428.659 142.942 425.436C145.16 422.212 144.309 417.826 141.042 415.637C137.774 413.449 133.327 414.289 131.109 417.512C128.89 420.735 129.741 425.122 133.009 427.31Z" fill="white"/>
<path d="M356.384 317.689C359.652 319.877 364.099 319.038 366.317 315.815C368.535 312.591 367.684 308.205 364.417 306.016C361.149 303.828 356.702 304.667 354.484 307.891C352.265 311.114 353.116 315.501 356.384 317.689Z" fill="white"/>
<path d="M-12.6474 81.3689C-9.37974 83.557 -4.93251 82.7178 -2.71429 79.4944C-0.496064 76.2711 -1.34684 71.8842 -4.61454 69.6961C-7.88225 67.508 -12.3295 68.3472 -14.5477 71.5705C-16.7659 74.7939 -15.9152 79.1808 -12.6474 81.3689Z" fill="white"/>
<path d="M105.045 500.625C106.954 501.902 109.551 501.412 110.846 499.53C112.142 497.648 111.645 495.086 109.737 493.808C107.828 492.53 105.231 493.02 103.936 494.902C102.64 496.785 103.137 499.347 105.045 500.625Z" fill="white"/>
<path d="M160.733 466.664C162.641 467.942 165.238 467.451 166.534 465.569C167.829 463.687 167.332 461.125 165.424 459.847C163.516 458.569 160.919 459.059 159.623 460.941C158.328 462.824 158.825 465.386 160.733 466.664Z" fill="white"/>
<path d="M28.1469 442.76C30.0552 444.038 32.6524 443.548 33.9479 441.666C35.2433 439.783 34.7465 437.221 32.8381 435.943C30.9298 434.666 28.3326 435.156 27.0372 437.038C25.7417 438.921 26.2386 441.482 28.1469 442.76Z" fill="white"/>
<path d="M41.8189 590.122C43.7272 591.4 46.3244 590.909 47.6198 589.027C48.9153 587.145 48.4184 584.583 46.5101 583.305C44.6017 582.027 42.0045 582.517 40.7091 584.399C39.4136 586.282 39.9105 588.844 41.8189 590.122Z" fill="white"/>
<path d="M162.264 251.085C164.173 252.362 166.77 251.872 168.065 249.99C169.361 248.107 168.864 245.546 166.955 244.268C165.047 242.99 162.45 243.48 161.154 245.362C159.859 247.245 160.356 249.807 162.264 251.085Z" fill="white"/>
<path d="M183.491 147.052C185.399 148.33 187.996 147.84 189.292 145.958C190.587 144.075 190.09 141.513 188.182 140.235C186.274 138.958 183.676 139.448 182.381 141.33C181.086 143.213 181.582 145.774 183.491 147.052Z" fill="white"/>
<path d="M198.225 522.602C200.133 523.88 202.731 523.39 204.026 521.507C205.322 519.625 204.825 517.063 202.916 515.785C201.008 514.507 198.411 514.997 197.115 516.88C195.82 518.762 196.317 521.324 198.225 522.602Z" fill="white"/>
<path d="M59.1938 164.521C61.1022 165.799 63.6993 165.309 64.9948 163.426C66.2902 161.544 65.7934 158.982 63.885 157.704C61.9767 156.426 59.3795 156.916 58.0841 158.799C56.7886 160.681 57.2855 163.243 59.1938 164.521Z" fill="white"/>
<path d="M47.9439 381.138C49.8522 382.416 52.4494 381.926 53.7448 380.044C55.0403 378.161 54.5434 375.599 52.6351 374.321C50.7267 373.043 48.1295 373.534 46.8341 375.416C45.5386 377.298 46.0355 379.86 47.9439 381.138Z" fill="white"/>
<path d="M213.866 435.235C215.774 436.513 218.371 436.023 219.667 434.14C220.962 432.258 220.465 429.696 218.557 428.418C216.649 427.14 214.051 427.63 212.756 429.513C211.461 431.395 211.957 433.957 213.866 435.235Z" fill="white"/>
<path d="M128.709 552.046C130.618 553.323 133.215 552.833 134.51 550.951C135.806 549.068 135.309 546.506 133.401 545.229C131.492 543.951 128.895 544.441 127.6 546.323C126.304 548.206 126.801 550.768 128.709 552.046Z" fill="white"/>
<path d="M153.139 288.462C155.048 289.739 157.645 289.249 158.94 287.367C160.236 285.484 159.739 282.922 157.83 281.645C155.922 280.367 153.325 280.857 152.029 282.739C150.734 284.622 151.231 287.184 153.139 288.462Z" fill="white"/>
<path d="M169.334 214.729C171.243 216.007 173.84 215.517 175.135 213.634C176.431 211.752 175.934 209.19 174.026 207.912C172.117 206.634 169.52 207.124 168.225 209.007C166.929 210.889 167.426 213.451 169.334 214.729Z" fill="white"/>
<path d="M407.616 347.902C409.524 349.18 412.121 348.69 413.417 346.807C414.712 344.925 414.215 342.363 412.307 341.085C410.399 339.807 407.801 340.297 406.506 342.18C405.211 344.062 405.707 346.624 407.616 347.902Z" fill="white"/>
<path d="M335.631 415.203C337.54 416.481 340.137 415.99 341.432 414.108C342.728 412.226 342.231 409.664 340.323 408.386C338.414 407.108 335.817 407.598 334.522 409.48C333.226 411.363 333.723 413.925 335.631 415.203Z" fill="white"/>
<path d="M366.967 263.201C368.876 264.479 371.473 263.989 372.768 262.106C374.064 260.224 373.567 257.662 371.659 256.384C369.75 255.106 367.153 255.596 365.858 257.479C364.562 259.361 365.059 261.923 366.967 263.201Z" fill="white"/>
<path d="M33.1507 717.631L-92.7507 819.859L-172.096 606.536L-94.4466 555.374L33.1507 717.631Z" stroke="white" stroke-width="0.535938" stroke-miterlimit="10"/>
<path d="M-94.4492 555.373L43.2786 589.349L106.585 499.909L180.372 644.564L33.1481 717.63L47.8202 609.497L29.0865 440.989L-169.092 381.417L-94.4492 555.373Z" stroke="white" stroke-width="0.535938" stroke-miterlimit="10"/>
<path d="M-170.728 610.236L29.1988 719.597" stroke="white" stroke-width="0.535938" stroke-miterlimit="10"/>
<path d="M-91.2305 812.788L-94.7188 562.805" stroke="white" stroke-width="0.535938" stroke-miterlimit="10"/>
<path d="M-33.8805 428.019L-91.3883 548.802L25.7428 444.549L-21.0642 621.061L173.91 642.024L45.6809 585.966L131.32 548.394" stroke="white" stroke-width="0.535938" stroke-miterlimit="10"/>
<path d="M181.485 638.269L216.351 431.443L136.503 423.061L107.904 493.999L209.705 435.997" stroke="white" stroke-width="0.535938" stroke-miterlimit="10"/>
<path d="M134.772 547.732L201.393 520.152L140.605 428.591L76.3327 305.096L2.2635 353.225L-78.6174 342.828L-169.092 381.417" stroke="white" stroke-width="0.535938" stroke-miterlimit="10"/>
<path d="M-86.3672 558.66L-21.0688 621.06L32.437 712.232" stroke="white" stroke-width="0.535938" stroke-miterlimit="10"/>
<path d="M-160.387 380.889L2.26513 353.226L-28.7871 420.434" stroke="white" stroke-width="0.535938" stroke-miterlimit="10"/>
<path d="M4.10142 356.845L30.6203 438.963L134.444 421.548L50.9314 378.34L76.3706 307.674" stroke="white" stroke-width="0.535938" stroke-miterlimit="10"/>
<path d="M7.89028 356.748C9.94656 358.261 48.7494 378.038 48.7494 378.038L31.6413 435.935" stroke="white" stroke-width="0.535938" stroke-miterlimit="10"/>
<path d="M68.9609 260.429L-36.7067 276.746L73.864 302.659C74.8174 299.505 61.1562 162.25 61.1562 162.25L-36.7259 276.774L0.167748 349.101" stroke="white" stroke-width="0.535938" stroke-miterlimit="10"/>
<path d="M-8.05017 325.489C-5.97889 324.489 73.8329 302.7 73.8329 302.7" stroke="white" stroke-width="0.535938" stroke-miterlimit="10"/>
<path d="M-14.6673 324.965L-76.5293 339.239L-40.8884 273.562L-132.807 151.116L-80.1906 337.264L-239.711 192.277L-136.71 150.999L-232.019 172.56L-202.018 95.7671L-138.573 147.336L-143.347 30.002L-6.60617 77.1087L-129.746 147.068L59.9289 159.817L-5.06413 80.1329" stroke="white" stroke-width="0.535938" stroke-miterlimit="10"/>
<path d="M-38.4345 273.334L-6.59375 79.6248" stroke="white" stroke-width="0.535938" stroke-miterlimit="10"/>
<path d="M63.6186 161.021L185.451 142.256L163.202 246.789L64.9203 163.571L168.739 209.926L272.217 257.118L165.754 246.779L156.138 285.67L273.269 259.187L187.497 143.763" stroke="white" stroke-width="0.535938" stroke-miterlimit="10"/>
<path d="M153.582 285.674L76.3636 302.529L162.693 248.299L72.6647 260.137" stroke="white" stroke-width="0.535938" stroke-miterlimit="10"/>
<path d="M273.26 261.659C273.769 262.668 337.604 412.922 337.604 412.922L219.45 429.88L270.21 263.177L139.59 421.476L154.636 287.661" stroke="white" stroke-width="0.535938" stroke-miterlimit="10"/>
<path d="M276.321 260.138C279.896 259.626 369.966 260.408 369.966 260.408L339.193 412.134L410.086 344.104L275.797 261.684" stroke="white" stroke-width="0.535938" stroke-miterlimit="10"/>
<path d="M-379.974 -38.9742L-178.961 -90.046L-272.548 -18.6998L-325.501 -166.4L-98.3528 -178.745L-10.2499 72.4723L-172.773 -89.2311L-99.8641 -176.047L-140.287 25.9532" stroke="white" stroke-width="0.535938" stroke-miterlimit="10"/>
</g>
<path d="M482.429 -2465.52C610.178 -3216.52 914.637 -3740.87 1287.65 -3753.69C1810.15 -3771.64 2269.36 -2778.95 2313.35 -1536.45C2357.33 -293.946 1969.01 727.825 1446.5 745.794C1073.32 758.613 732.457 255.95 552.105 -485.037" stroke="white" stroke-width="3" stroke-miterlimit="10" stroke-linecap="round"/>
<path d="M625.264 -2578.95C756.549 -3127.05 1002.57 -3494.23 1296.43 -3504.34C1761.05 -3520.31 2169.33 -2637.64 2208.35 -1532.86C2247.37 -428.082 1902.33 480.465 1437.71 496.437C1143.81 506.536 872.498 157.061 702.836 -380.794" stroke="white" stroke-width="3" stroke-miterlimit="10" stroke-linecap="round"/>
</g>
</g>
</svg>
