<svg width="554" height="612" viewBox="0 0 554 612" fill="none" xmlns="http://www.w3.org/2000/svg">
<g opacity="0.5">
<mask id="mask0_156_4083" style="mask-type:alpha" maskUnits="userSpaceOnUse" x="-91" y="108" width="536" height="537">
<circle cx="177.165" cy="376.542" r="267.67" transform="rotate(-51.4252 177.165 376.542)" fill="#D9D9D9"/>
</mask>
<g mask="url(#mask0_156_4083)">
<g opacity="0.5">
<path d="M12.6223 437.231C14.508 441.377 19.4134 443.256 23.5788 441.429C27.7442 439.602 29.5922 434.761 27.7064 430.615C25.8207 426.47 20.9153 424.591 16.7499 426.417C12.5845 428.244 10.7365 433.086 12.6223 437.231Z" fill="white"/>
<path d="M355.103 393.996C356.989 398.142 361.894 400.021 366.06 398.194C370.225 396.367 372.073 391.526 370.187 387.381C368.302 383.235 363.396 381.356 359.231 383.183C355.065 385.009 353.217 389.851 355.103 393.996Z" fill="white"/>
<path d="M151.571 346.816C152.763 349.436 155.863 350.623 158.495 349.469C161.127 348.314 162.295 345.255 161.104 342.635C159.912 340.016 156.812 338.828 154.18 339.982C151.547 341.137 150.379 344.196 151.571 346.816Z" fill="white"/>
<path d="M218.245 343.831C219.437 346.45 222.537 347.638 225.169 346.484C227.801 345.329 228.969 342.269 227.777 339.65C226.586 337.03 223.486 335.842 220.853 336.997C218.221 338.151 217.053 341.211 218.245 343.831Z" fill="white"/>
<path d="M103.535 378.16C104.727 380.78 107.827 381.967 110.459 380.813C113.091 379.658 114.259 376.599 113.067 373.979C111.876 371.359 108.776 370.172 106.143 371.326C103.511 372.481 102.343 375.54 103.535 378.16Z" fill="white"/>
<path d="M28.0423 585.886C29.234 588.505 32.334 589.693 34.9663 588.539C37.5986 587.384 38.7665 584.325 37.5748 581.705C36.3831 579.085 33.2831 577.898 30.6508 579.052C28.0184 580.207 26.8506 583.266 28.0423 585.886Z" fill="white"/>
<path d="M150.871 594.744C152.063 597.364 155.163 598.552 157.795 597.397C160.428 596.243 161.596 593.183 160.404 590.563C159.212 587.944 156.112 586.756 153.48 587.91C150.848 589.065 149.68 592.125 150.871 594.744Z" fill="white"/>
<path d="M71.9036 534.184C73.0953 536.804 76.1953 537.992 78.8276 536.837C81.4599 535.683 82.6278 532.623 81.4361 530.004C80.2444 527.384 77.1444 526.196 74.5121 527.351C71.8798 528.505 70.7119 531.565 71.9036 534.184Z" fill="white"/>
<path d="M210.033 441.266C211.225 443.886 214.325 445.074 216.957 443.919C219.589 442.765 220.757 439.705 219.565 437.086C218.374 434.466 215.274 433.278 212.641 434.433C210.009 435.587 208.841 438.647 210.033 441.266Z" fill="white"/>
<path d="M391.865 458.903C393.057 461.523 396.157 462.711 398.789 461.556C401.421 460.402 402.589 457.342 401.398 454.723C400.206 452.103 397.106 450.915 394.474 452.07C391.841 453.224 390.673 456.284 391.865 458.903Z" fill="white"/>
<path d="M156.994 282.406C158.186 285.026 161.286 286.213 163.918 285.059C166.551 283.904 167.719 280.845 166.527 278.225C165.335 275.606 162.235 274.418 159.603 275.572C156.971 276.727 155.803 279.786 156.994 282.406Z" fill="white"/>
<path d="M253.105 169.778C254.297 172.398 257.397 173.586 260.029 172.431C262.662 171.277 263.829 168.217 262.638 165.598C261.446 162.978 258.346 161.79 255.714 162.945C253.081 164.099 251.914 167.159 253.105 169.778Z" fill="white"/>
<path d="M63.4271 155.584C64.6188 158.204 67.7187 159.392 70.3511 158.237C72.9834 157.083 74.1512 154.023 72.9595 151.403C71.7678 148.784 68.6678 147.596 66.0355 148.751C63.4032 149.905 62.2354 152.965 63.4271 155.584Z" fill="white"/>
<path d="M164.196 476.175C164.892 477.705 166.702 478.399 168.239 477.724C169.777 477.05 170.459 475.263 169.763 473.733C169.067 472.204 167.256 471.51 165.719 472.184C164.182 472.858 163.5 474.645 164.196 476.175Z" fill="white"/>
<path d="M212.093 476.44C212.789 477.97 214.599 478.664 216.136 477.99C217.673 477.315 218.355 475.528 217.66 473.999C216.964 472.469 215.153 471.775 213.616 472.449C212.079 473.124 211.397 474.91 212.093 476.44Z" fill="white"/>
<path d="M138.618 410.558C139.314 412.088 141.124 412.782 142.662 412.107C144.199 411.433 144.881 409.646 144.185 408.117C143.489 406.587 141.679 405.893 140.141 406.567C138.604 407.241 137.922 409.028 138.618 410.558Z" fill="white"/>
<path d="M36.5633 504.313C37.2592 505.843 39.0697 506.537 40.6069 505.863C42.1442 505.189 42.8262 503.402 42.1302 501.872C41.4343 500.342 39.6239 499.648 38.0867 500.323C36.5494 500.997 35.8673 502.784 36.5633 504.313Z" fill="white"/>
<path d="M60.4075 480.719C61.1035 482.249 62.9139 482.943 64.4511 482.269C65.9884 481.594 66.6704 479.808 65.9745 478.278C65.2785 476.748 63.4682 476.054 61.9309 476.728C60.3936 477.403 59.7116 479.189 60.4075 480.719Z" fill="white"/>
<path d="M90.0926 507.604C90.7886 509.133 92.599 509.827 94.1362 509.153C95.6735 508.479 96.3555 506.692 95.6596 505.162C94.9636 503.632 93.1532 502.938 91.6159 503.613C90.0787 504.287 89.3967 506.074 90.0926 507.604Z" fill="white"/>
<path d="M296.53 342.758C297.226 344.288 299.036 344.982 300.573 344.308C302.11 343.633 302.793 341.847 302.097 340.317C301.401 338.787 299.59 338.093 298.053 338.767C296.516 339.442 295.834 341.228 296.53 342.758Z" fill="white"/>
<path d="M350.06 286.128C350.756 287.658 352.567 288.351 354.104 287.677C355.641 287.003 356.323 285.216 355.627 283.686C354.931 282.156 353.121 281.463 351.584 282.137C350.046 282.811 349.364 284.598 350.06 286.128Z" fill="white"/>
<path d="M213.828 525.702C214.524 527.232 216.334 527.926 217.872 527.252C219.409 526.577 220.091 524.79 219.395 523.261C218.699 521.731 216.889 521.037 215.351 521.711C213.814 522.385 213.132 524.172 213.828 525.702Z" fill="white"/>
<path d="M-0.909838 120.53C-0.213885 122.06 1.59649 122.754 3.13377 122.08C4.67104 121.405 5.35306 119.619 4.65711 118.089C3.96116 116.559 2.15077 115.865 0.613499 116.539C-0.923773 117.214 -1.60579 119 -0.909838 120.53Z" fill="white"/>
<path d="M77.8587 143.63C78.5547 145.16 80.365 145.854 81.9023 145.18C83.4396 144.505 84.1216 142.719 83.4257 141.189C82.7297 139.659 80.9193 138.965 79.3821 139.639C77.8448 140.314 77.1628 142.1 77.8587 143.63Z" fill="white"/>
<path d="M218.252 214.019C218.948 215.548 220.759 216.242 222.296 215.568C223.833 214.894 224.515 213.107 223.819 211.577C223.123 210.047 221.313 209.353 219.776 210.028C218.238 210.702 217.556 212.489 218.252 214.019Z" fill="white"/>
<path d="M265.734 249.2C266.43 250.73 268.24 251.423 269.777 250.749C271.315 250.075 271.997 248.288 271.301 246.758C270.605 245.228 268.794 244.535 267.257 245.209C265.72 245.883 265.038 247.67 265.734 249.2Z" fill="white"/>
<path d="M174.835 379.793C175.531 381.322 177.341 382.016 178.878 381.342C180.416 380.668 181.098 378.881 180.402 377.351C179.706 375.821 177.895 375.127 176.358 375.802C174.821 376.476 174.139 378.263 174.835 379.793Z" fill="white"/>
<path d="M147.442 165.874C148.138 167.403 149.949 168.097 151.486 167.423C153.023 166.749 153.705 164.962 153.009 163.432C152.313 161.902 150.503 161.208 148.966 161.883C147.428 162.557 146.746 164.344 147.442 165.874Z" fill="white"/>
<path d="M167.574 126.942C168.269 128.472 170.08 129.165 171.617 128.491C173.154 127.817 173.836 126.03 173.141 124.5C172.445 122.97 170.634 122.277 169.097 122.951C167.56 123.625 166.878 125.412 167.574 126.942Z" fill="white"/>
<path d="M126.309 107.331C127.005 108.861 128.816 109.554 130.353 108.88C131.89 108.206 132.572 106.419 131.876 104.889C131.18 103.359 129.37 102.666 127.833 103.34C126.295 104.014 125.613 105.801 126.309 107.331Z" fill="white"/>
<path d="M109.486 307.166C110.182 308.696 111.992 309.39 113.529 308.716C115.067 308.041 115.749 306.255 115.053 304.725C114.357 303.195 112.546 302.501 111.009 303.175C109.472 303.85 108.79 305.636 109.486 307.166Z" fill="white"/>
<path d="M37.1204 297.975C37.8164 299.505 39.6267 300.199 41.164 299.525C42.7013 298.85 43.3833 297.064 42.6874 295.534C41.9914 294.004 40.181 293.31 38.6437 293.984C37.1065 294.659 36.4245 296.445 37.1204 297.975Z" fill="white"/>
<path d="M257.417 477.301C258.113 478.831 259.924 479.524 261.461 478.85C262.998 478.176 263.68 476.389 262.984 474.859C262.288 473.329 260.478 472.636 258.941 473.31C257.403 473.984 256.721 475.771 257.417 477.301Z" fill="white"/>
<path d="M159.05 517.303C159.746 518.833 161.556 519.527 163.093 518.853C164.63 518.178 165.313 516.392 164.617 514.862C163.921 513.332 162.11 512.638 160.573 513.312C159.036 513.987 158.354 515.773 159.05 517.303Z" fill="white"/>
<path d="M276.361 362.528C277.057 364.058 278.867 364.752 280.404 364.077C281.942 363.403 282.624 361.616 281.928 360.087C281.232 358.557 279.421 357.863 277.884 358.537C276.347 359.211 275.665 360.998 276.361 362.528Z" fill="white"/>
<path d="M315.021 322.835C315.717 324.365 317.528 325.059 319.065 324.384C320.602 323.71 321.284 321.923 320.588 320.393C319.892 318.864 318.082 318.17 316.545 318.844C315.007 319.518 314.325 321.305 315.021 322.835Z" fill="white"/>
<path d="M412.133 497.425C412.829 498.954 414.639 499.648 416.176 498.974C417.714 498.3 418.396 496.513 417.7 494.983C417.004 493.453 415.193 492.759 413.656 493.434C412.119 494.108 411.437 495.895 412.133 497.425Z" fill="white"/>
<path d="M341.154 511.656C341.85 513.186 343.66 513.88 345.198 513.206C346.735 512.532 347.417 510.745 346.721 509.215C346.025 507.685 344.215 506.991 342.677 507.666C341.14 508.34 340.458 510.127 341.154 511.656Z" fill="white"/>
<path d="M419.569 429.036C420.265 430.566 422.075 431.259 423.612 430.585C425.15 429.911 425.832 428.124 425.136 426.594C424.44 425.064 422.629 424.371 421.092 425.045C419.555 425.719 418.873 427.506 419.569 429.036Z" fill="white"/>
<path d="M35.301 583.683L-82.8448 598.932L-49.7506 435.547L18.5125 433.547L35.301 583.683Z" stroke="white" stroke-width="0.392948" stroke-miterlimit="10"/>
<path d="M18.5139 433.547L91.2974 507.681L165.433 476.322L155.461 594.799L35.3024 583.684L86.3296 521.977L139.891 409.817L39.2983 296.491L18.5139 433.547Z" stroke="white" stroke-width="0.392948" stroke-miterlimit="10"/>
<path d="M-50.3294 438.378L32.0742 583.388" stroke="white" stroke-width="0.392948" stroke-miterlimit="10"/>
<path d="M-79.1549 595.115L15.4688 438.073" stroke="white" stroke-width="0.392948" stroke-miterlimit="10"/>
<path d="M105.62 377.518L22.9652 430.629L136.423 410.746L38.8657 502.683L152.409 590.729L94.1034 506.495L162.09 516.032" stroke="white" stroke-width="0.392948" stroke-miterlimit="10"/>
<path d="M158.59 591.304L260.434 475.894L213.857 439.962L168.542 473.146L254.524 476.173" stroke="white" stroke-width="0.392948" stroke-miterlimit="10"/>
<path d="M164.504 516.949L216.754 525.395L214.278 444.986L221.994 343.348L157.139 344.837L110.696 307.253L39.2986 296.491" stroke="white" stroke-width="0.392948" stroke-miterlimit="10"/>
<path d="M22.2876 438.704L38.8697 502.684L36.9522 580.05" stroke="white" stroke-width="0.392948" stroke-miterlimit="10"/>
<path d="M44.934 299.509L157.139 344.838L111.738 374.755" stroke="white" stroke-width="0.392948" stroke-miterlimit="10"/>
<path d="M156.887 347.8L141.636 409.146L213.164 438.232L177.784 379.2L221.022 344.97" stroke="white" stroke-width="0.392948" stroke-miterlimit="10"/>
<path d="M159.284 349.194C159.981 350.928 176.535 378.169 176.535 378.169L143.441 407.65" stroke="white" stroke-width="0.392948" stroke-miterlimit="10"/>
<path d="M234.69 312.693L162.437 282.214L221.397 340.881C223.214 339.283 267.838 248.54 267.838 248.54L162.414 282.224L157.428 341.462" stroke="white" stroke-width="0.392948" stroke-miterlimit="10"/>
<path d="M161.443 323.595C163.123 323.769 221.362 340.894 221.362 340.894" stroke="white" stroke-width="0.392948" stroke-miterlimit="10"/>
<path d="M157.519 320.724L113.391 305.822L161.062 278.624L151.12 167.005L111.871 303.184L68.4751 151.526L148.731 165.431L80.91 142.203L129.366 105.912L148.986 162.434L191.443 87.5167L258.526 169.449L154.598 165.662L268.016 246.554L258.317 171.926" stroke="white" stroke-width="0.392948" stroke-miterlimit="10"/>
<path d="M162.681 279.425L257.559 171.02" stroke="white" stroke-width="0.392948" stroke-miterlimit="10"/>
<path d="M269.851 248.722L353.139 283.893L298.778 340.443L269.676 250.811L316.507 319.613L362.801 388.806L300.374 341.418L279.314 361.943L362.657 390.499L353.832 285.618" stroke="white" stroke-width="0.392948" stroke-miterlimit="10"/>
<path d="M277.714 360.961L223.005 341.76L297.872 341.187L237.112 313.934" stroke="white" stroke-width="0.392948" stroke-miterlimit="10"/>
<path d="M361.693 392.035C361.62 392.859 343.27 510.996 343.27 510.996L262.977 476.114L359.202 391.808L216.4 440.165L277.605 362.605" stroke="white" stroke-width="0.392948" stroke-miterlimit="10"/>
<path d="M364.197 392.268C366.626 393.324 422.526 428.453 422.526 428.453L344.571 511.119L415.151 496.013L363.272 393.029" stroke="white" stroke-width="0.392948" stroke-miterlimit="10"/>
<path d="M187.729 87.1523L127.425 9.00163C127.425 9.00163 68.3182 -47.9167 68.2512 -46.6766C68.1842 -45.4364 40.3397 15.2519 40.3397 15.2519L124.804 10.5791L76.7765 53.1821L37.5631 18.3177L2.45584 115.765L74.8186 55.0513L129.396 105.873L3.91221 118.404L77.6005 141.862L66.8302 150.018L4.54018 120.95" stroke="white" stroke-width="0.392948" stroke-miterlimit="10"/>
<path d="M187.55 89.4206L131.947 106.142L254.408 167.4" stroke="white" stroke-width="0.392948" stroke-miterlimit="10"/>
<path d="M70.5013 -46.4542L215.707 -0.951789L129.683 7.49111L153.835 -104.87L300.352 -25.1945L258.048 165.16L219.252 1.93571L298.364 -24.095L194.921 86.1724" stroke="white" stroke-width="0.392948" stroke-miterlimit="10"/>
</g>
<path d="M1548.25 -1226.13C1918.77 -1644.75 2311.79 -1854.24 2549.51 -1718.76C2882.49 -1528.98 2784.64 -734.069 2330.95 56.7341C1877.26 847.537 1239.3 1334.59 906.304 1144.82C668.481 1009.27 650.433 565.09 824.826 34.204" stroke="white" stroke-width="2.19959" stroke-miterlimit="10" stroke-linecap="round"/>
<path d="M1681.3 -1241.84C1975.46 -1532.73 2271.16 -1666.8 2458.43 -1560.07C2754.53 -1391.32 2667.5 -684.527 2264.04 18.5859C1860.59 721.699 1293.48 1154.88 997.376 986.125C810.077 879.378 776.108 557.359 878.514 157.105" stroke="white" stroke-width="2.19959" stroke-miterlimit="10" stroke-linecap="round"/>
</g>
</g>
</svg>
