<svg width="514" height="1027" viewBox="0 0 514 1027" fill="none" xmlns="http://www.w3.org/2000/svg">
<g opacity="0.5">
<mask id="mask0_156_3840" style="mask-type:alpha" maskUnits="userSpaceOnUse" x="149" y="148" width="731" height="731">
<circle cx="514.472" cy="513.475" r="365.073" transform="rotate(50.9867 514.472 513.475)" fill="#D9D9D9"/>
</mask>
<g mask="url(#mask0_156_3840)">
<g opacity="0.5">
<path d="M481.865 276.516C475.79 277.813 471.849 283.796 473.061 289.88C474.273 295.964 480.181 299.844 486.255 298.548C492.33 297.251 496.271 291.268 495.059 285.184C493.846 279.1 487.939 275.22 481.865 276.516Z" fill="white"/>
<path d="M439.058 745.375C432.984 746.671 429.042 752.654 430.254 758.738C431.467 764.822 437.374 768.703 443.448 767.406C449.523 766.11 453.464 760.127 452.252 754.043C451.04 747.959 445.133 744.078 439.058 745.375Z" fill="white"/>
<path d="M412.687 211.076C408.848 211.896 406.357 215.677 407.123 219.522C407.89 223.366 411.623 225.819 415.461 224.999C419.3 224.18 421.791 220.399 421.025 216.554C420.259 212.71 416.526 210.257 412.687 211.076Z" fill="white"/>
<path d="M496.717 185.684C492.878 186.503 490.388 190.284 491.154 194.129C491.92 197.974 495.653 200.426 499.492 199.607C503.33 198.788 505.821 195.007 505.055 191.162C504.289 187.317 500.556 184.865 496.717 185.684Z" fill="white"/>
<path d="M279.341 253.469C275.503 254.289 273.012 258.07 273.778 261.915C274.544 265.759 278.277 268.212 282.116 267.392C285.954 266.573 288.445 262.792 287.679 258.947C286.913 255.103 283.18 252.65 279.341 253.469Z" fill="white"/>
<path d="M231.529 414.488C227.69 415.307 225.199 419.088 225.965 422.933C226.731 426.778 230.464 429.23 234.303 428.411C238.142 427.591 240.633 423.81 239.867 419.966C239.101 416.121 235.368 413.668 231.529 414.488Z" fill="white"/>
<path d="M335.346 327.054C331.507 327.873 329.017 331.654 329.783 335.499C330.549 339.344 334.282 341.796 338.121 340.977C341.959 340.158 344.45 336.377 343.684 332.532C342.918 328.687 339.185 326.235 335.346 327.054Z" fill="white"/>
<path d="M418.622 538.283C414.783 539.102 412.292 542.883 413.058 546.728C413.824 550.573 417.557 553.025 421.396 552.206C425.235 551.387 427.726 547.606 426.959 543.761C426.193 539.916 422.46 537.464 418.622 538.283Z" fill="white"/>
<path d="M341.829 775.31C337.99 776.129 335.499 779.91 336.265 783.755C337.031 787.6 340.764 790.052 344.603 789.233C348.442 788.413 350.933 784.632 350.167 780.788C349.4 776.943 345.667 774.491 341.829 775.31Z" fill="white"/>
<path d="M385.562 466.991C383.32 467.47 381.865 469.678 382.313 471.923C382.76 474.169 384.94 475.601 387.182 475.122C389.424 474.644 390.879 472.436 390.431 470.19C389.984 467.945 387.804 466.513 385.562 466.991Z" fill="white"/>
<path d="M371.164 530.716C368.922 531.195 367.468 533.403 367.915 535.648C368.363 537.894 370.543 539.326 372.785 538.848C375.026 538.369 376.481 536.161 376.034 533.916C375.586 531.67 373.406 530.238 371.164 530.716Z" fill="white"/>
<path d="M480.462 452.158C478.22 452.636 476.766 454.844 477.213 457.09C477.66 459.335 479.841 460.767 482.082 460.289C484.324 459.81 485.779 457.602 485.331 455.357C484.884 453.111 482.704 451.679 480.462 452.158Z" fill="white"/>
<path d="M385.499 288.731C383.257 289.21 381.803 291.418 382.25 293.663C382.698 295.908 384.878 297.341 387.12 296.862C389.361 296.384 390.816 294.175 390.369 291.93C389.921 289.685 387.741 288.253 385.499 288.731Z" fill="white"/>
<path d="M409.937 327.41C407.695 327.888 406.24 330.096 406.688 332.342C407.135 334.587 409.315 336.019 411.557 335.541C413.799 335.062 415.254 332.854 414.806 330.609C414.359 328.363 412.179 326.931 409.937 327.41Z" fill="white"/>
<path d="M365.424 359.07C363.182 359.548 361.727 361.756 362.175 364.002C362.622 366.247 364.802 367.679 367.044 367.201C369.286 366.722 370.741 364.514 370.293 362.269C369.846 360.023 367.666 358.591 365.424 359.07Z" fill="white"/>
<path d="M305.039 518.585C302.797 519.064 301.343 521.272 301.79 523.517C302.238 525.763 304.418 527.195 306.66 526.716C308.901 526.238 310.356 524.03 309.909 521.784C309.461 519.539 307.281 518.107 305.039 518.585Z" fill="white"/>
<path d="M510.829 509.413C508.587 509.891 507.133 512.099 507.58 514.345C508.028 516.59 510.208 518.022 512.45 517.544C514.691 517.065 516.146 514.857 515.699 512.612C515.251 510.367 513.071 508.934 510.829 509.413Z" fill="white"/>
<path d="M356.733 590.835C354.491 591.314 353.036 593.522 353.484 595.767C353.931 598.012 356.111 599.445 358.353 598.966C360.595 598.488 362.049 596.279 361.602 594.034C361.155 591.789 358.974 590.357 356.733 590.835Z" fill="white"/>
<path d="M332.288 448.078C330.046 448.557 328.592 450.765 329.039 453.01C329.487 455.256 331.667 456.688 333.909 456.209C336.15 455.731 337.605 453.523 337.158 451.277C336.71 449.032 334.53 447.6 332.288 448.078Z" fill="white"/>
<path d="M504.055 649.717C501.813 650.195 500.358 652.403 500.806 654.649C501.253 656.894 503.433 658.326 505.675 657.848C507.917 657.369 509.372 655.161 508.924 652.916C508.477 650.67 506.297 649.238 504.055 649.717Z" fill="white"/>
<path d="M284.575 791.014C282.334 791.493 280.879 793.701 281.326 795.946C281.774 798.191 283.954 799.624 286.196 799.145C288.438 798.667 289.892 796.459 289.445 794.213C288.997 791.968 286.817 790.536 284.575 791.014Z" fill="white"/>
<path d="M286.424 692.3C284.182 692.779 282.728 694.987 283.175 697.232C283.622 699.478 285.802 700.91 288.044 700.431C290.286 699.953 291.741 697.745 291.293 695.499C290.846 693.254 288.666 691.822 286.424 692.3Z" fill="white"/>
<path d="M373.489 820.968C371.248 821.447 369.793 823.655 370.24 825.9C370.688 828.146 372.868 829.578 375.11 829.099C377.352 828.621 378.806 826.413 378.359 824.168C377.911 821.922 375.731 820.49 373.489 820.968Z" fill="white"/>
<path d="M280.143 263.789L294.467 101.948L502.395 193.926L485.048 285.44L280.143 263.789Z" stroke="white" stroke-width="0.535938" stroke-miterlimit="10"/>
<path d="M485.05 285.438L364.966 360.654L385.003 468.596L230.114 420.582L280.145 263.787L347.38 349.846L481.076 454.069L661.517 353.301L485.05 285.438Z" stroke="white" stroke-width="0.535938" stroke-miterlimit="10"/>
<path d="M498.797 192.32L281.486 259.573" stroke="white" stroke-width="0.535938" stroke-miterlimit="10"/>
<path d="M298.471 107.978L479.914 280.055" stroke="white" stroke-width="0.535938" stroke-miterlimit="10"/>
<path d="M534.145 417.889L487.631 292.223L480.855 449.179L386.993 292.28L236.429 417.71L365.722 364.739L333.089 452.502" stroke="white" stroke-width="0.535938" stroke-miterlimit="10"/>
<path d="M233.849 425.778L357.721 595.269L419.237 543.76L388.32 473.673L359.081 587.314" stroke="white" stroke-width="0.535938" stroke-miterlimit="10"/>
<path d="M331.158 455.452L304.591 522.574L412.422 542.847L545.543 582.92L562.572 496.096L626.249 445.253L661.515 353.305" stroke="white" stroke-width="0.535938" stroke-miterlimit="10"/>
<path d="M477.075 288.952L386.992 292.283L284.503 267.05" stroke="white" stroke-width="0.535938" stroke-miterlimit="10"/>
<path d="M558.705 494.885L481.462 456.587L421.752 543.337L510.754 513.516L543.673 581.144" stroke="white" stroke-width="0.535938" stroke-miterlimit="10"/>
<path d="M556.14 497.673C553.627 498.094 512.488 512.159 512.488 512.159L482.92 459.434" stroke="white" stroke-width="0.535938" stroke-miterlimit="10"/>
<path d="M657.555 674.408L586.292 775.038L526.901 686.051L654.824 673.563L549.45 715.772L443.714 757.154L525.135 687.891L503.969 653.822L441.501 756.465L583.79 775.456" stroke="white" stroke-width="0.535938" stroke-miterlimit="10"/>
<path d="M505.747 651.978L547.361 584.732L526.177 684.625L580.291 611.681" stroke="white" stroke-width="0.535938" stroke-miterlimit="10"/>
<path d="M439.743 754.723C438.666 754.384 286.686 695.309 286.686 695.309L356.687 598.583L440.776 751.472L418.227 547.081L503.594 651.344" stroke="white" stroke-width="0.535938" stroke-miterlimit="10"/>
<path d="M438.701 757.987C436.582 760.913 373.402 825.074 373.402 825.074L286.143 697.004L285.574 795.445L437.958 756.532" stroke="white" stroke-width="0.535938" stroke-miterlimit="10"/>
</g>
<path d="M2247.31 2809.6C2696.3 3425.86 2860.13 4010.78 2609.98 4287.7C2259.57 4675.61 1229.43 4312.24 309.07 3476.09C-611.289 2639.95 -1073.02 1647.4 -722.629 1259.47C-472.362 982.427 124.583 1088.6 780.605 1476.52" stroke="white" stroke-width="3" stroke-miterlimit="10" stroke-linecap="round"/>
<path d="M2229.23 2991.43C2530.46 3468.53 2622.37 3901.71 2425.3 4119.87C2113.72 4464.81 1197.78 4141.68 379.497 3398.16C-438.784 2654.63 -849.531 1772.25 -537.949 1427.31C-340.853 1209.11 98.0376 1258.27 601.161 1512.01" stroke="white" stroke-width="3" stroke-miterlimit="10" stroke-linecap="round"/>
</g>
</g>
</svg>
