<svg width="606" height="895" viewBox="0 0 606 895" fill="none" xmlns="http://www.w3.org/2000/svg">
<g opacity="0.4">
<mask id="mask0_156_2994" style="mask-type:alpha" maskUnits="userSpaceOnUse" x="81" y="81" width="732" height="732">
<circle cx="447.121" cy="447.12" r="365.073" transform="rotate(165 447.121 447.12)" fill="#D9D9D9"/>
</mask>
<g mask="url(#mask0_156_2994)">
<g opacity="0.5">
<path d="M265.977 283.865C267.265 277.789 263.404 271.754 257.353 270.385C251.302 269.017 245.353 272.833 244.066 278.91C242.778 284.986 246.639 291.021 252.69 292.39C258.741 293.758 264.69 289.942 265.977 283.865Z" fill="white"/>
<path d="M451.133 500.471C451.947 496.631 449.506 492.817 445.683 491.952C441.859 491.088 438.1 493.5 437.286 497.34C436.472 501.18 438.912 504.994 442.736 505.858C446.56 506.723 450.319 504.311 451.133 500.471Z" fill="white"/>
<path d="M375.547 449.755C376.361 445.915 373.92 442.101 370.097 441.236C366.273 440.371 362.514 442.783 361.7 446.623C360.886 450.463 363.326 454.277 367.15 455.142C370.974 456.007 374.733 453.595 375.547 449.755Z" fill="white"/>
<path d="M529.234 504.973C530.048 501.133 527.608 497.319 523.784 496.454C519.96 495.59 516.201 498.002 515.387 501.842C514.574 505.682 517.014 509.495 520.838 510.36C524.661 511.225 528.421 508.813 529.234 504.973Z" fill="white"/>
<path d="M463.461 349.471C464.275 345.631 461.835 341.817 458.011 340.952C454.187 340.087 450.428 342.499 449.614 346.339C448.8 350.179 451.24 353.993 455.064 354.858C458.888 355.723 462.647 353.311 463.461 349.471Z" fill="white"/>
<path d="M278.203 182.864C279.017 179.024 276.577 175.21 272.753 174.346C268.929 173.481 265.17 175.893 264.356 179.733C263.542 183.573 265.983 187.387 269.806 188.251C273.63 189.116 277.389 186.704 278.203 182.864Z" fill="white"/>
<path d="M393.023 566.765C393.837 562.925 391.397 559.111 387.573 558.246C383.75 557.382 379.99 559.794 379.176 563.634C378.363 567.474 380.803 571.287 384.627 572.152C388.45 573.017 392.21 570.605 393.023 566.765Z" fill="white"/>
<path d="M196.336 612.533C197.15 608.693 194.71 604.879 190.886 604.014C187.062 603.149 183.303 605.561 182.489 609.401C181.675 613.241 184.115 617.055 187.939 617.92C191.763 618.785 195.522 616.373 196.336 612.533Z" fill="white"/>
<path d="M393 781.717C393.814 777.877 391.374 774.063 387.55 773.199C383.726 772.334 379.967 774.746 379.153 778.586C378.339 782.426 380.779 786.24 384.603 787.104C388.427 787.969 392.186 785.557 393 781.717Z" fill="white"/>
<path d="M203.375 753.554C204.189 749.714 201.749 745.9 197.925 745.035C194.101 744.17 190.342 746.582 189.528 750.422C188.714 754.262 191.154 758.076 194.978 758.941C198.802 759.806 202.561 757.394 203.375 753.554Z" fill="white"/>
<path d="M542.041 348.286C542.516 346.043 541.091 343.816 538.858 343.311C536.625 342.806 534.429 344.215 533.954 346.457C533.479 348.7 534.904 350.927 537.137 351.432C539.37 351.937 541.566 350.529 542.041 348.286Z" fill="white"/>
<path d="M489.689 309.202C490.164 306.959 488.739 304.732 486.506 304.227C484.273 303.722 482.078 305.131 481.603 307.373C481.127 309.616 482.552 311.843 484.786 312.348C487.019 312.853 489.214 311.445 489.689 309.202Z" fill="white"/>
<path d="M516.971 441.007C517.446 438.765 516.021 436.537 513.788 436.032C511.555 435.527 509.359 436.936 508.884 439.178C508.409 441.421 509.834 443.648 512.067 444.153C514.3 444.658 516.495 443.25 516.971 441.007Z" fill="white"/>
<path d="M288.767 387.529C289.243 385.287 287.818 383.059 285.584 382.554C283.351 382.049 281.156 383.458 280.681 385.7C280.206 387.943 281.631 390.17 283.864 390.675C286.097 391.18 288.292 389.772 288.767 387.529Z" fill="white"/>
<path d="M184.158 406.328C184.633 404.085 183.208 401.858 180.975 401.353C178.742 400.848 176.547 402.256 176.071 404.499C175.596 406.742 177.021 408.969 179.254 409.474C181.487 409.979 183.683 408.57 184.158 406.328Z" fill="white"/>
<path d="M527.681 253.735C528.157 251.493 526.732 249.265 524.499 248.76C522.265 248.255 520.07 249.664 519.595 251.906C519.12 254.149 520.545 256.376 522.778 256.881C525.011 257.386 527.206 255.978 527.681 253.735Z" fill="white"/>
<path d="M367.478 783.151C367.954 780.909 366.528 778.681 364.295 778.176C362.062 777.671 359.867 779.08 359.392 781.322C358.916 783.565 360.341 785.792 362.575 786.297C364.808 786.802 367.003 785.394 367.478 783.151Z" fill="white"/>
<path d="M126.424 765.142C126.899 762.899 125.474 760.672 123.241 760.167C121.008 759.662 118.812 761.071 118.337 763.313C117.862 765.556 119.287 767.783 121.52 768.288C123.753 768.793 125.948 767.384 126.424 765.142Z" fill="white"/>
<path d="M270.408 592.202C270.883 589.96 269.458 587.733 267.225 587.228C264.992 586.723 262.797 588.131 262.321 590.374C261.846 592.616 263.271 594.844 265.504 595.349C267.737 595.854 269.933 594.445 270.408 592.202Z" fill="white"/>
<path d="M246.791 515.143C247.266 512.901 245.841 510.673 243.608 510.168C241.375 509.663 239.179 511.072 238.704 513.315C238.229 515.557 239.654 517.784 241.887 518.289C244.12 518.794 246.316 517.386 246.791 515.143Z" fill="white"/>
<path d="M452.306 445.445C452.782 443.202 451.357 440.975 449.124 440.47C446.89 439.965 444.695 441.373 444.22 443.616C443.745 445.858 445.17 448.086 447.403 448.591C449.636 449.096 451.831 447.687 452.306 445.445Z" fill="white"/>
<path d="M309.127 702.385C309.602 700.143 308.177 697.915 305.944 697.41C303.711 696.905 301.515 698.314 301.04 700.556C300.565 702.799 301.99 705.026 304.223 705.531C306.456 706.036 308.652 704.628 309.127 702.385Z" fill="white"/>
<path d="M255.51 728.808C255.985 726.565 254.56 724.338 252.327 723.833C250.094 723.328 247.898 724.737 247.423 726.979C246.948 729.222 248.373 731.449 250.606 731.954C252.839 732.459 255.034 731.05 255.51 728.808Z" fill="white"/>
<path d="M284.908 783.747C285.383 781.505 283.958 779.278 281.725 778.772C279.492 778.267 277.297 779.676 276.821 781.919C276.346 784.161 277.771 786.388 280.004 786.893C282.237 787.399 284.433 785.99 284.908 783.747Z" fill="white"/>
<path d="M465.213 578.067C465.688 575.825 464.263 573.597 462.03 573.092C459.797 572.587 457.601 573.996 457.126 576.238C456.651 578.481 458.076 580.708 460.309 581.213C462.542 581.718 464.737 580.31 465.213 578.067Z" fill="white"/>
<path d="M537.181 646.757C537.657 644.515 536.232 642.287 533.999 641.782C531.766 641.277 529.57 642.686 529.095 644.928C528.62 647.171 530.045 649.398 532.278 649.903C534.511 650.408 536.706 649 537.181 646.757Z" fill="white"/>
<path d="M440.642 271.555C441.118 269.312 439.693 267.085 437.459 266.58C435.226 266.075 433.031 267.483 432.556 269.726C432.081 271.968 433.506 274.196 435.739 274.701C437.972 275.206 440.167 273.797 440.642 271.555Z" fill="white"/>
<path d="M580.994 307.318C581.469 305.076 580.044 302.848 577.811 302.343C575.578 301.838 573.383 303.247 572.907 305.489C572.432 307.732 573.857 309.959 576.09 310.464C578.323 310.969 580.519 309.561 580.994 307.318Z" fill="white"/>
<path d="M326.908 382.165C327.383 379.922 325.958 377.695 323.725 377.19C321.492 376.685 319.297 378.093 318.821 380.336C318.346 382.579 319.771 384.806 322.004 385.311C324.237 385.816 326.433 384.407 326.908 382.165Z" fill="white"/>
<path d="M252.338 394.423C252.813 392.18 251.388 389.953 249.155 389.448C246.922 388.943 244.726 390.351 244.251 392.594C243.776 394.836 245.201 397.064 247.434 397.569C249.667 398.074 251.862 396.665 252.338 394.423Z" fill="white"/>
<path d="M287.158 124.176C287.633 121.933 286.208 119.706 283.975 119.201C281.742 118.696 279.547 120.104 279.071 122.347C278.596 124.589 280.021 126.817 282.254 127.322C284.487 127.827 286.683 126.418 287.158 124.176Z" fill="white"/>
<path d="M376.572 166.035C377.047 163.792 375.622 161.565 373.389 161.06C371.156 160.555 368.961 161.964 368.485 164.206C368.01 166.449 369.435 168.676 371.668 169.181C373.901 169.686 376.097 168.278 376.572 166.035Z" fill="white"/>
<path d="M223.611 193.204C224.086 190.961 222.661 188.734 220.428 188.229C218.195 187.724 216 189.133 215.525 191.375C215.049 193.618 216.474 195.845 218.707 196.35C220.94 196.855 223.136 195.447 223.611 193.204Z" fill="white"/>
<path d="M667.393 513.044L647.555 372.744L540.801 347.12L647.691 225.176L770.556 334.684L664.584 361.079L514.973 440.79L533.59 646.621L667.393 513.044Z" stroke="white" stroke-width="0.535938" stroke-miterlimit="10"/>
<path d="M526.428 503.987L660.146 512.639L519.532 442.577L701.049 420.688L647.746 232.111L643.517 371.77L576.63 306.247" stroke="white" stroke-width="0.535938" stroke-miterlimit="10"/>
<path d="M641.427 226.475L436.196 270.653L458.213 347.805L534.816 348.086L442.908 275.132" stroke="white" stroke-width="0.535938" stroke-miterlimit="10"/>
<path d="M574.719 303.287L524.218 251.705L461.817 341.953L371.039 447.245L443.419 498.133L463.949 576.989L533.587 646.621" stroke="white" stroke-width="0.535938" stroke-miterlimit="10"/>
<path d="M529.846 638.744L443.419 498.132L517.471 502.067" stroke="white" stroke-width="0.535938" stroke-miterlimit="10"/>
<path d="M446.094 495.088L512.512 440.116L457.569 350.271L448.589 443.706L373.418 446.255" stroke="white" stroke-width="0.535938" stroke-miterlimit="10"/>
<path d="M444.594 491.612C445.232 489.146 449.126 445.843 449.126 445.843L509.32 440.291" stroke="white" stroke-width="0.535938" stroke-miterlimit="10"/>
<path d="M332.276 470.603L386.886 562.565L369.692 450.434C366.405 450.716 243.946 514.162 243.946 514.162L386.919 562.572L440.365 501.6" stroke="white" stroke-width="0.535938" stroke-miterlimit="10"/>
<path d="M421.492 517.957C419.79 516.407 369.746 450.449 369.746 450.449" stroke="white" stroke-width="0.535938" stroke-miterlimit="10"/>
<path d="M423.478 524.289L459.837 576.38L385.495 567.623L306.012 698.167L459.369 580.506L384.174 782.084L307.36 701.829L362.978 782.245L280.41 782.83L304.652 704.913L197.388 752.746L190.122 608.504L301.108 696.825L242.15 516.202L192.357 605.955" stroke="white" stroke-width="0.535938" stroke-miterlimit="10"/>
<path d="M384.365 565.434L192.453 607.564" stroke="white" stroke-width="0.535938" stroke-miterlimit="10"/>
<path d="M241.885 512.331L178.965 406.285L284.419 388.248L243.769 510.181L248.094 396.75L253.323 283.325L283.457 385.885L323.191 380.416L254.853 281.584L179.601 403.829" stroke="white" stroke-width="0.535938" stroke-miterlimit="10"/>
<path d="M324.156 382.789L368.646 448.167L286.02 388.165L330.63 467.28" stroke="white" stroke-width="0.535938" stroke-miterlimit="10"/>
<path d="M257.163 280.682C257.911 279.837 373.721 165.051 373.721 165.051L433.589 268.355L259.713 282.949L455.59 345.528L325.611 381.077" stroke="white" stroke-width="0.535938" stroke-miterlimit="10"/>
<path d="M254.6 278.401C252.79 275.276 219.893 191.454 219.893 191.454L372.389 163.865L282.699 123.284L256.232 278.316" stroke="white" stroke-width="0.535938" stroke-miterlimit="10"/>
<path d="M201.165 756.155L204.055 890.756C204.055 890.756 222.826 1001.09 223.904 999.781C224.982 998.474 304.687 954.422 304.687 954.422L208.209 891.148L295.417 883.289L310.217 953.306L427.661 874.796L299.08 882.823L280.343 782.851L428.2 870.721L366.33 785.301L384.754 785.073L429.573 867.418" stroke="white" stroke-width="0.535938" stroke-miterlimit="10"/>
<path d="M207.159 887.19C209.548 886.215 280.354 782.818 280.354 782.818L206.257 801.605" stroke="white" stroke-width="0.535938" stroke-miterlimit="10"/>
<path d="M203.195 753.804L277.756 780.483L192.974 614.082" stroke="white" stroke-width="0.535938" stroke-miterlimit="10"/>
<path d="M191.952 755.47L99.1094 830.183L214.624 799.511" stroke="white" stroke-width="0.535938" stroke-miterlimit="10"/>
<path d="M221.612 997.712L99.1093 830.183L200.352 890.583L82.8528 994.332L-13.4155 788.239L187.167 613.596L97.5568 824.143L-10.3434 788.642L192.477 751.403" stroke="white" stroke-width="0.535938" stroke-miterlimit="10"/>
</g>
<path d="M-2355.45 1095.58C-3101.09 1254.93 -3702.06 1166.54 -3853.21 825.353C-4064.95 347.414 -3313.81 -445.696 -2175.5 -946.133C-1037.19 -1446.57 57.3691 -1464.42 269.124 -986.491C420.347 -645.14 80.438 -143.066 -540.879 298.313" stroke="white" stroke-width="3" stroke-miterlimit="10" stroke-linecap="round"/>
<path d="M-2514.19 1005.07C-3072.58 1086.08 -3505.67 993.746 -3624.76 724.957C-3813.04 299.97 -3145.14 -405.202 -2132.97 -850.087C-1120.8 -1294.97 -147.629 -1311.08 40.6594 -886.095C159.758 -617.265 -63.747 -236.363 -500.272 119.955" stroke="white" stroke-width="3" stroke-miterlimit="10" stroke-linecap="round"/>
</g>
</g>
</svg>
